<svg width="80" height="74" viewBox="0 0 80 74" fill="none" xmlns="http://www.w3.org/2000/svg">
<path d="M31.578 4.40732V10.6657M34.7289 7.60604H28.4271M15.1074 19.2444V19.2444C15.6207 19.7287 16.4397 19.7123 16.9823 19.2611C17.7353 18.6349 18.9324 17.7508 20.5499 16.8971M15.1074 19.2444C15.0835 21.971 15.1614 28.9067 16.0384 32.2C17.2049 36.5808 18.7826 41.1569 23.3021 45.5038M15.1074 19.2444L13.7536 17.9671M31.4706 49.4674C28.5169 49.4674 25.715 47.8247 23.3021 45.5038M20.5499 16.8971C23.1689 15.5148 26.8902 14.2121 31.6138 14.2121C37.8279 14.2121 42.3074 16.4667 44.8245 18.1909C46.2108 19.1405 48.1795 19.1612 49.385 17.9906L49.4092 17.9671M20.5499 16.8971C24.7974 22.1955 30.0091 23.2401 34.2992 23.4758C37.6803 23.6615 43.2194 23.7749 46.0435 26.0343C47.522 27.2171 47.9524 30.1361 47.5473 31.6659C47.0519 33.5368 45.8159 36.5993 44 39.6611M22.555 51.8317C22.804 51.4145 23.3021 49.5648 23.3021 45.5038M22.555 51.8317L27.2582 73M22.555 51.8317C20.6454 52.2953 15.5944 53.5284 10.6675 54.7523M22.555 51.8317C22.555 51.8317 24.2111 56.0856 29 57.245M27.2582 73C18.2761 73 11.34 72.1558 6.85821 71.3816C3.59287 70.8175 0.926796 67.3738 1.93114 64.216C3.35361 59.7434 6.36351 55.8214 10.6675 54.7523M27.2582 73C27.2582 73 27.5957 73 29 73M10.6675 54.7523C10.6675 54.7523 7.49837 49.4674 8.6624 36.0468C9.75274 23.4758 13.7536 17.9671 13.7536 17.9671M13.7536 17.9671L9.67121 14.1154C7.62662 12.1863 7.62792 8.99554 9.97217 7.4444C14.1999 4.64701 21.6037 1 31.4706 1C41.3843 1 48.8115 4.68171 53.029 7.48418C55.3468 9.0243 55.3699 12.179 53.3735 14.1176L49.4092 17.9671M49.4092 17.9671C49.4092 17.9671 51.593 22.5435 53.3273 30" stroke="#DCE5EB" stroke-width="2" stroke-linecap="round"/>
<path d="M51 34L50.6838 33.0513C50.2754 33.1874 50 33.5696 50 34H51ZM66 34H67C67 33.5696 66.7246 33.1874 66.3162 33.0513L66 34ZM66 65V66C66.5523 66 67 65.5523 67 65H66ZM51 65H50C50 65.5523 50.4477 66 51 66V65ZM60 32H59C59 32.4304 59.2754 32.8126 59.6838 32.9487L60 32ZM57 32L57.3162 32.9487C57.7246 32.8126 58 32.4304 58 32H57ZM57 29V28C56.4477 28 56 28.4477 56 29H57ZM60 29H61C61 28.4477 60.5523 28 60 28V29ZM66 73V74C66.3788 74 66.725 73.786 66.8944 73.4472C67.0638 73.1084 67.0273 72.703 66.8 72.4L66 73ZM51 73L50.2 72.4C49.9727 72.703 49.9362 73.1084 50.1056 73.4472C50.275 73.786 50.6212 74 51 74V73ZM59.6838 32.9487L65.6838 34.9487L66.3162 33.0513L60.3162 31.0513L59.6838 32.9487ZM51.3162 34.9487L57.3162 32.9487L56.6838 31.0513L50.6838 33.0513L51.3162 34.9487ZM58 32V29H56V32H58ZM59 29V32H61V29H59ZM57 30H58.5V28H57V30ZM58.5 30H60V28H58.5V30ZM59.5 29V15H57.5V29H59.5ZM52 40V34H50V40H52ZM51 41H55V39H51V41ZM52 44V40H50V44H52ZM65 34V44H67V34H65ZM65 44V65H67V44H65ZM51 45H66V43H51V45ZM52 48V44H50V48H52ZM51 49H55V47H51V49ZM52 52V48H50V52H52ZM51 53H55V51H51V53ZM52 65V56H50V65H52ZM52 56V52H50V56H52ZM51 57H55V55H51V57ZM54 64H51V66H54V64ZM53 65V69H55V65H53ZM54 70H63V68H54V70ZM66 64H63V66H66V64ZM63 64H54V66H63V64ZM64 69V65H62V69H64ZM62.2 69.6L65.2 73.6L66.8 72.4L63.8 68.4L62.2 69.6ZM66 72H51V74H66V72ZM51.8 73.6L54.8 69.6L53.2 68.4L50.2 72.4L51.8 73.6Z" fill="#DCE5EB"/>
<path d="M32 58V71C32 72.1046 32.8954 73 34 73H45C46.1046 73 47 72.1046 47 71V58M32 58V57C32 53.6863 34.6863 51 38 51H41C44.3137 51 47 53.6863 47 57V58M32 58H35M35 58V62C35 62.5523 35.4477 63 36 63H43C43.5523 63 44 62.5523 44 62V58M35 58V57C35 56.4477 35.4477 56 36 56H43C43.5523 56 44 56.4477 44 57V58M44 58H47M36 48H43V51H36V48ZM35 48H44C44.5523 48 45 47.5523 45 47V44C45 43.4477 44.5523 43 44 43H35C34.4477 43 34 43.4477 34 44V47C34 47.5523 34.4477 48 35 48Z" stroke="#DCE5EB" stroke-width="2"/>
<path d="M70 60V71C70 72.1046 70.8954 73 72 73H77C78.1046 73 79 72.1046 79 71V60M70 60V56.4257C70 54.8511 70.5107 53.3191 71.4554 52.0595L71.6229 51.8361C72.4482 50.7358 72.4898 49.2347 71.7269 48.0904V48.0904C71.2606 47.3909 71.084 46.5378 71.2344 45.7107L72.7317 37.4758C72.8871 36.6212 73.6314 36 74.5 36V36C75.3686 36 76.1129 36.6212 76.2683 37.4758L77.7656 45.7107C77.916 46.5378 77.7394 47.3909 77.2731 48.0904V48.0904C76.5102 49.2347 76.5518 50.7358 77.3771 51.8361L77.5446 52.0595C78.4893 53.3191 79 54.8511 79 56.4257V60M70 60H79" stroke="#DCE5EB" stroke-width="2"/>
</svg>
