<svg width="77" height="78" viewBox="0 0 77 78" fill="none" xmlns="http://www.w3.org/2000/svg">
<path d="M61.2315 13.4008L60.663 14.2234V14.2234L61.2315 13.4008ZM37.5715 4.91158L38.0846 5.76993L37.5715 4.91158ZM65.9503 4.94889L65.4349 5.80587V5.80587L65.9503 4.94889ZM52.8064 3.46085C52.8064 2.90856 52.3587 2.46085 51.8064 2.46085C51.2541 2.46085 50.8064 2.90856 50.8064 3.46085H52.8064ZM50.8064 7.98076C50.8064 8.53305 51.2541 8.98076 51.8064 8.98076C52.3587 8.98076 52.8064 8.53305 52.8064 7.98076H50.8064ZM54.0534 6.77103C54.6057 6.77103 55.0534 6.32331 55.0534 5.77103C55.0534 5.21874 54.6057 4.77103 54.0534 4.77103V6.77103ZM49.5594 4.77103C49.0071 4.77103 48.5594 5.21874 48.5594 5.77103C48.5594 6.32331 49.0071 6.77103 49.5594 6.77103V4.77103ZM40.7245 23.5333L41.6916 23.279L40.7245 23.5333ZM43.9418 12.4813L43.4704 11.5993L43.9418 12.4813ZM41.3978 14.1884L42.0419 14.9533L42.0419 14.9533L41.3978 14.1884ZM53.747 17.2325L53.6915 18.231L53.747 17.2325ZM63.1948 23.1476L62.2273 22.8946V22.8946L63.1948 23.1476ZM62.1223 19.0803L61.4928 19.8573L62.1223 19.0803ZM66.5653 39.8211L66.3063 40.787L66.5653 39.8211ZM72.3709 46.515L73.3548 46.3363L73.3448 46.281L73.3286 46.2271L72.3709 46.515ZM36.8943 39.8211L37.1383 40.7909L36.8943 39.8211ZM39.0951 13.254L39.7859 12.531L39.7859 12.531L39.0951 13.254ZM37.1849 11.4288L37.8757 10.7058L37.1849 11.4288ZM35.4644 26.3115L36.4607 26.3969L35.4644 26.3115ZM66.377 11.4304L65.6758 10.7174V10.7174L66.377 11.4304ZM68.1485 26.3115L69.1371 26.1614L68.1485 26.3115ZM19.5 45.0975L20.3134 44.5158L19.5 45.0975ZM27.5 73L27.9023 72.0845L27.5 73ZM39.0951 53L40.0893 53.1076C40.1454 52.5894 39.7941 52.1151 39.2821 52.0176C38.7702 51.9202 38.2692 52.2323 38.1309 52.7348L39.0951 53ZM30 59.5L29.0316 59.7493C29.1567 60.2355 29.623 60.5535 30.1213 60.4926C30.6197 60.4317 30.9956 60.0107 31 59.5087L30 59.5ZM27.5 33.1417L28.4984 33.198L28.5379 32.498L27.8933 32.2222L27.5 33.1417ZM24.5 39H23.5C23.5 39.5203 23.899 39.9537 24.4175 39.9966C24.9361 40.0395 25.4009 39.6776 25.4864 39.1644L24.5 39ZM75.0161 66.6787C75.1148 67.2221 75.6353 67.5826 76.1787 67.4839C76.7221 67.3852 77.0826 66.8647 76.9839 66.3213L75.0161 66.6787ZM64.5226 53L65.4808 52.714C65.3292 52.206 64.8075 51.9046 64.2917 52.027C63.7759 52.1494 63.4452 52.653 63.538 53.175L64.5226 53ZM68.0418 68.286C68.1997 68.8152 68.7568 69.1162 69.286 68.9582C69.8152 68.8003 70.1162 68.2432 69.9582 67.714L68.0418 68.286ZM52 76.5L51.9863 77.4999L52 76.5ZM9 6V7H10.1328L9.99228 5.87597L9 6ZM15 6L14.0077 5.87597L13.8672 7H15V6ZM40.7245 65.5L41.7217 65.4254L41.6964 65.088L41.4715 64.8353L40.7245 65.5ZM63.5925 65.5L62.7487 64.9635L62.5925 65.209V65.5H63.5925ZM60.7067 75.2564L60.4751 74.2836L60.7067 75.2564ZM44.007 75.2266L43.7611 76.1959L44.007 75.2266ZM41.1956 71.7972L40.1983 71.8718L41.1956 71.7972ZM13.1644 53.0136L12.178 52.8492L13.1644 53.0136ZM10.8356 53.0136L9.84921 53.178L10.8356 53.0136ZM10.1941 49.1644L9.20767 49.3288L10.1941 49.1644ZM22 11V31H24V11H22ZM2 31V11H0V31H2ZM6 18H18V16H6V18ZM6 22H18V20H6V22ZM6 26H13V24H6V26ZM8 35H6V37H8V35ZM8 36C7.17402 36.5637 7.17415 36.5639 7.17429 36.5641C7.17434 36.5642 7.17449 36.5644 7.1746 36.5646C7.17483 36.5649 7.17509 36.5653 7.17538 36.5657C7.17596 36.5665 7.17667 36.5676 7.1775 36.5688C7.17916 36.5712 7.18133 36.5743 7.18399 36.5782C7.18931 36.5859 7.19662 36.5963 7.20584 36.6094C7.22427 36.6356 7.2504 36.6723 7.2837 36.718C7.35022 36.8092 7.44576 36.937 7.56609 37.0891C7.80548 37.3918 8.14924 37.7989 8.56345 38.2099C8.97435 38.6176 9.4765 39.051 10.0349 39.3877C10.5864 39.7201 11.2619 40 12 40V38C11.7618 38 11.4491 37.9049 11.0675 37.6748C10.6929 37.449 10.3171 37.1324 9.97209 36.7901C9.63037 36.4511 9.34025 36.1082 9.13474 35.8484C9.03261 35.7193 8.95295 35.6126 8.89988 35.5398C8.87338 35.5035 8.85361 35.4757 8.8411 35.458C8.83485 35.4491 8.83042 35.4427 8.82788 35.439C8.8266 35.4372 8.8258 35.436 8.82549 35.4356C8.82533 35.4353 8.82529 35.4353 8.82537 35.4354C8.82541 35.4355 8.82548 35.4356 8.82558 35.4357C8.82563 35.4358 8.82573 35.4359 8.82576 35.436C8.82587 35.4361 8.82598 35.4363 8 36ZM18 35H16V37H18V35ZM16 35H8V37H16V35ZM12 40C12.7381 40 13.4136 39.7201 13.9651 39.3877C14.5235 39.051 15.0256 38.6176 15.4366 38.2099C15.8508 37.7989 16.1945 37.3918 16.4339 37.0891C16.5542 36.937 16.6498 36.8092 16.7163 36.718C16.7496 36.6723 16.7757 36.6356 16.7942 36.6094C16.8034 36.5963 16.8107 36.5859 16.816 36.5782C16.8187 36.5743 16.8208 36.5712 16.8225 36.5688C16.8233 36.5676 16.824 36.5665 16.8246 36.5657C16.8249 36.5653 16.8252 36.5649 16.8254 36.5646C16.8255 36.5644 16.8257 36.5642 16.8257 36.5641C16.8259 36.5639 16.826 36.5637 16 36C15.174 35.4363 15.1741 35.4361 15.1742 35.436C15.1743 35.4359 15.1744 35.4358 15.1744 35.4357C15.1745 35.4356 15.1746 35.4355 15.1746 35.4354C15.1747 35.4353 15.1747 35.4353 15.1745 35.4356C15.1742 35.436 15.1734 35.4372 15.1721 35.439C15.1696 35.4427 15.1651 35.4491 15.1589 35.458C15.1464 35.4757 15.1266 35.5035 15.1001 35.5398C15.0471 35.6126 14.9674 35.7193 14.8653 35.8484C14.6597 36.1082 14.3696 36.4511 14.0279 36.7901C13.6829 37.1324 13.3071 37.449 12.9325 37.6748C12.5509 37.9049 12.2382 38 12 38V40ZM11 39V48H13V39H11ZM12 47H11.1805V49H12V47ZM9.20767 49.3288L9.84921 53.178L11.822 52.8492L11.1805 49L9.20767 49.3288ZM14.1508 53.178L14.7923 49.3288L12.8195 49L12.178 52.8492L14.1508 53.178ZM12.8195 47H12V49H12.8195V47ZM11 54V76.5H13V54H11ZM0 31C0 34.3137 2.68629 37 6 37V35C3.79086 35 2 33.2091 2 31H0ZM22 31C22 33.2091 20.2091 35 18 35V37C21.3137 37 24 34.3137 24 31H22ZM18 7C20.2091 7 22 8.79086 22 11H24C24 7.68629 21.3137 5 18 5V7ZM6 5C2.68629 5 0 7.68629 0 11H2C2 8.79086 3.79086 7 6 7V5ZM61.8001 12.5781C59.8817 11.2523 56.5002 9.54205 51.8319 9.54205V11.5421C55.9914 11.5421 58.9832 13.0625 60.663 14.2234L61.8001 12.5781ZM38.0846 5.76993C41.0978 3.96882 45.757 2 51.7298 2V0C45.3063 0 40.2949 2.11868 37.0585 4.05324L38.0846 5.76993ZM51.7298 2C57.7424 2 62.4239 3.99515 65.4349 5.80587L66.4656 4.0919C63.2314 2.14699 58.1962 0 51.7298 0V2ZM50.8064 3.46085V5.77103H52.8064V3.46085H50.8064ZM50.8064 5.77103V7.98076H52.8064V5.77103H50.8064ZM54.0534 4.77103H51.8064V6.77103H54.0534V4.77103ZM51.8064 4.77103H49.5594V6.77103H51.8064V4.77103ZM39.0606 14.1679C39.052 15.1653 39.0617 16.9305 39.1529 18.7514C39.2428 20.5472 39.4155 22.4875 39.7573 23.7876L41.6916 23.279C41.408 22.2006 41.2403 20.4472 41.1504 18.6514C41.0617 16.8809 41.0521 15.1569 41.0605 14.1852L39.0606 14.1679ZM51.8319 9.54205C48.271 9.54205 45.4564 10.5378 43.4704 11.5993L44.4132 13.3632C46.1627 12.4281 48.6557 11.5421 51.8319 11.5421V9.54205ZM43.4704 11.5993C42.2455 12.2541 41.3345 12.9343 40.7536 13.4235L42.0419 14.9533C42.535 14.5381 43.3313 13.9415 44.4132 13.3632L43.4704 11.5993ZM53.8026 16.234C50.8815 16.0715 47.5027 15.3685 44.7259 11.8606L43.1577 13.1019C46.4391 17.2471 50.4937 18.053 53.6915 18.231L53.8026 16.234ZM64.1622 23.4006C64.3569 22.656 64.3357 21.6858 64.1382 20.802C63.9438 19.9315 63.5312 18.9348 62.7519 18.3033L61.4928 19.8573C61.7679 20.0801 62.0359 20.5646 62.1863 21.238C62.3338 21.8981 62.3215 22.5343 62.2273 22.8946L64.1622 23.4006ZM62.7519 18.3033C61.5313 17.3144 59.8191 16.8543 58.2383 16.6068C56.6347 16.3558 54.9777 16.2994 53.8026 16.234L53.6915 18.231C54.9276 18.2997 56.4512 18.3514 57.929 18.5828C59.4295 18.8177 60.6994 19.2144 61.4928 19.8573L62.7519 18.3033ZM45.3717 37.7118C44.4383 38.0706 44.4385 38.0711 44.4387 38.0716C44.4388 38.0718 44.439 38.0723 44.4391 38.0727C44.4394 38.0734 44.4397 38.0742 44.4401 38.0751C44.4407 38.0768 44.4415 38.0788 44.4424 38.0811C44.4442 38.0856 44.4464 38.0911 44.449 38.0976C44.4542 38.1105 44.4611 38.1274 44.4698 38.1478C44.4871 38.1888 44.5115 38.2443 44.5433 38.3124C44.6069 38.4484 44.7008 38.6353 44.8286 38.8561C45.0833 39.2963 45.4782 39.8805 46.0446 40.4661C47.1895 41.6498 49.0324 42.8299 51.7553 42.8299V40.8299C49.6778 40.8299 48.3289 39.951 47.4821 39.0756C47.0527 38.6317 46.7518 38.1864 46.5596 37.8544C46.464 37.6891 46.3967 37.5543 46.355 37.4651C46.3341 37.4206 46.3198 37.3876 46.3116 37.3682C46.3075 37.3586 46.3049 37.3523 46.3039 37.3496C46.3033 37.3483 46.3032 37.3479 46.3034 37.3485C46.3035 37.3487 46.3037 37.3492 46.304 37.35C46.3041 37.3504 46.3043 37.3508 46.3045 37.3513C46.3046 37.3515 46.3048 37.352 46.3048 37.3521C46.305 37.3525 46.3051 37.353 45.3717 37.7118ZM51.7553 42.8299C54.4783 42.8299 56.3211 41.6498 57.4661 40.4661C58.0325 39.8805 58.4274 39.2963 58.6821 38.8561C58.8099 38.6353 58.9038 38.4484 58.9674 38.3124C58.9992 38.2443 59.0236 38.1888 59.0409 38.1478C59.0496 38.1274 59.0565 38.1105 59.0617 38.0976C59.0643 38.0911 59.0665 38.0856 59.0683 38.0811C59.0692 38.0788 59.0699 38.0768 59.0706 38.0751C59.071 38.0742 59.0713 38.0734 59.0716 38.0727C59.0717 38.0723 59.0719 38.0718 59.072 38.0716C59.0722 38.0711 59.0724 38.0706 58.139 37.7118C57.2056 37.353 57.2057 37.3525 57.2059 37.3521C57.2059 37.352 57.2061 37.3515 57.2062 37.3513C57.2064 37.3508 57.2066 37.3504 57.2067 37.35C57.207 37.3492 57.2072 37.3487 57.2073 37.3485C57.2075 37.3479 57.2074 37.3483 57.2068 37.3496C57.2058 37.3523 57.2032 37.3586 57.1991 37.3682C57.1909 37.3876 57.1766 37.4206 57.1557 37.4651C57.114 37.5543 57.0467 37.6891 56.9511 37.8544C56.7589 38.1864 56.458 38.6317 56.0286 39.0756C55.1818 39.951 53.8329 40.8299 51.7553 40.8299V42.8299ZM51.7298 37.0043C54.2615 37.0043 56.4577 35.6174 58.2151 33.8459L56.7952 32.4374C55.2174 34.0278 53.5029 35.0043 51.7298 35.0043V37.0043ZM58.2151 33.8459C61.3893 30.6462 63.5372 25.7911 64.1622 23.4006L62.2273 22.8946C61.6678 25.0344 59.6628 29.5467 56.7952 32.4374L58.2151 33.8459ZM59.0317 37.2611C58.924 37.0478 58.5051 35.7318 58.5051 33.1417H56.5051C56.5051 35.8549 56.9314 37.5388 57.2463 38.1625L59.0317 37.2611ZM39.7573 23.7876C40.6061 27.0157 41.7904 30.5303 45.2068 33.858L46.6023 32.4253C43.5725 29.4742 42.5067 26.3788 41.6916 23.279L39.7573 23.7876ZM45.2068 33.858C47.0095 35.614 49.2461 37.0043 51.7298 37.0043V35.0043C50.0008 35.0043 48.2411 34.0216 46.6023 32.4253L45.2068 33.858ZM46.2332 38.2195C46.3461 38.0281 46.4293 37.7856 46.4946 37.5464C46.5654 37.2871 46.6337 36.9608 46.6936 36.5622C46.8135 35.7645 46.9045 34.6463 46.9045 33.1417H44.9045C44.9045 34.5699 44.8179 35.5861 44.7158 36.2649C44.6648 36.6046 44.611 36.852 44.5652 37.0196C44.514 37.2074 44.4862 37.2448 44.5102 37.2041L46.2332 38.2195ZM58.139 37.7118C57.15 37.5638 57.15 37.5639 57.1499 37.5639C57.1499 37.564 57.1499 37.5641 57.1499 37.5643C57.1498 37.5646 57.1498 37.5652 57.1497 37.5659C57.1494 37.5674 57.1491 37.5696 57.1486 37.5726C57.1477 37.5786 57.1464 37.5876 57.1446 37.5996C57.141 37.6235 57.1356 37.6592 57.1285 37.7059C57.1143 37.7995 57.0933 37.9372 57.066 38.1137C57.0116 38.4666 56.9324 38.9739 56.8335 39.5907C56.6356 40.8247 56.3592 42.4947 56.045 44.2413C55.7303 45.9898 55.3793 47.806 55.0324 49.3353C54.6759 50.9068 54.3483 52.0577 54.1021 52.5597L55.8979 53.4403C56.2646 52.6923 56.6358 51.3072 56.9828 49.7778C57.3394 48.2062 57.6965 46.3566 58.0133 44.5955C58.3306 42.8325 58.6091 41.1493 58.8083 39.9073C58.9079 39.2862 58.9877 38.7749 59.0427 38.4187C59.0701 38.2405 59.0914 38.1011 59.1058 38.0061C59.1131 37.9586 59.1186 37.9222 59.1223 37.8975C59.1241 37.8852 59.1255 37.8759 59.1265 37.8695C59.127 37.8664 59.1273 37.864 59.1276 37.8623C59.1277 37.8615 59.1278 37.8609 59.1278 37.8605C59.1279 37.8602 59.1279 37.8601 59.1279 37.86C59.1279 37.8598 59.1279 37.8597 58.139 37.7118ZM54.1021 52.5597C53.6922 53.3957 52.7789 53.875 51.7863 53.875C50.7918 53.875 49.9699 53.401 49.6515 52.6218L47.8001 53.3782C48.5032 55.099 50.2055 55.875 51.7863 55.875C53.3689 55.875 55.082 55.1043 55.8979 53.4403L54.1021 52.5597ZM49.6515 52.6218C49.4315 52.0833 49.1106 50.8952 48.7445 49.329C48.3855 47.7925 48.0004 45.9705 47.6458 44.2199C47.2915 42.4705 46.9688 40.7982 46.7347 39.5628C46.6176 38.9453 46.5228 38.4372 46.4572 38.0838C46.4244 37.907 46.3989 37.769 46.3817 37.6752C46.3731 37.6283 46.3665 37.5925 46.3621 37.5684C46.3599 37.5564 46.3582 37.5473 46.3571 37.5413C46.3566 37.5383 46.3562 37.536 46.3559 37.5345C46.3558 37.5338 46.3557 37.5332 46.3556 37.5329C46.3556 37.5327 46.3555 37.5325 46.3555 37.5325C46.3555 37.5324 46.3555 37.5324 45.3717 37.7118C44.388 37.8912 44.388 37.8913 44.388 37.8914C44.388 37.8915 44.3881 37.8917 44.3881 37.8919C44.3882 37.8923 44.3883 37.8929 44.3884 37.8937C44.3887 37.8953 44.3891 37.8977 44.3897 37.9008C44.3909 37.9071 44.3926 37.9164 44.3948 37.9287C44.3993 37.9532 44.406 37.9895 44.4147 38.0369C44.4321 38.1316 44.4577 38.2707 44.4907 38.4486C44.5567 38.8042 44.6521 39.3148 44.7697 39.9352C45.0048 41.1758 45.3291 42.8568 45.6856 44.6169C46.0419 46.3758 46.4314 48.2197 46.797 49.7841C47.1557 51.3187 47.5094 52.6667 47.8001 53.3782L49.6515 52.6218ZM57.9071 38.6845C59.5907 39.0859 63.624 40.0676 66.3063 40.787L66.8244 38.8552C64.1137 38.1282 60.0578 37.1412 58.3709 36.7391L57.9071 38.6845ZM66.3063 40.787C68.3153 41.3258 70.4095 43.4647 71.4133 46.803L73.3286 46.2271C72.1986 42.469 69.716 39.6308 66.8244 38.8552L66.3063 40.787ZM45.133 36.7407C43.7699 37.0758 40.166 37.9669 36.6503 38.8513L37.1383 40.7909C40.6497 39.9075 44.2499 39.0174 45.6105 38.6829L45.133 36.7407ZM36.6503 38.8513C33.6911 39.5957 31.5764 41.9678 30.3464 44.6852L32.1685 45.5099C33.2469 43.1271 34.9713 41.336 37.1383 40.7909L36.6503 38.8513ZM40.7514 13.4535L39.7859 12.531L38.4043 13.977L39.3697 14.8995L40.7514 13.4535ZM39.7859 12.531L37.8757 10.7058L36.494 12.1518L38.4043 13.977L39.7859 12.531ZM39.0951 13.254C38.2825 12.6712 38.2822 12.6716 38.2819 12.672C38.2818 12.6722 38.2815 12.6726 38.2813 12.6729C38.2808 12.6735 38.2803 12.6742 38.2798 12.675C38.2787 12.6765 38.2775 12.6782 38.2761 12.6802C38.2733 12.6842 38.2698 12.6892 38.2656 12.6951C38.2574 12.7071 38.2464 12.723 38.2331 12.7428C38.2063 12.7826 38.1697 12.8384 38.1244 12.9105C38.0338 13.0546 37.9086 13.2638 37.7584 13.5402C37.4581 14.0932 37.0583 14.9148 36.6367 16.0224C35.7932 18.2387 34.8647 21.5941 34.468 26.2262L36.4607 26.3969C36.8416 21.9499 37.7285 18.7765 38.5059 16.7338C38.8948 15.712 39.257 14.9715 39.5159 14.4948C39.6454 14.2564 39.7491 14.0838 39.8176 13.9749C39.8518 13.9204 39.8773 13.8819 39.8927 13.859C39.9004 13.8475 39.9056 13.8399 39.9082 13.8362C39.9094 13.8344 39.9101 13.8335 39.91 13.8336C39.91 13.8337 39.9098 13.834 39.9094 13.8345C39.9092 13.8347 39.909 13.8351 39.9087 13.8355C39.9086 13.8356 39.9083 13.836 39.9082 13.8361C39.908 13.8364 39.9077 13.8368 39.0951 13.254ZM34.468 26.2262C34.0454 31.1612 34.4063 34.6382 34.89 36.9094C35.1317 38.0446 35.4038 38.8767 35.6227 39.4371C35.7321 39.7172 35.8281 39.9291 35.9001 40.0768C35.9362 40.1506 35.9662 40.2083 35.9889 40.2505C36.0003 40.2716 36.0098 40.2887 36.0174 40.3021C36.0211 40.3087 36.0244 40.3144 36.0272 40.3192C36.0285 40.3216 36.0298 40.3237 36.0309 40.3256C36.0314 40.3265 36.032 40.3274 36.0325 40.3283C36.0327 40.3287 36.0331 40.3293 36.0332 40.3295C36.0335 40.33 36.0338 40.3306 36.8943 39.8211C37.7548 39.3116 37.7551 39.3121 37.7554 39.3126C37.7555 39.3128 37.7558 39.3133 37.7559 39.3135C37.7563 39.3141 37.7566 39.3147 37.7569 39.3152C37.7574 39.3161 37.7579 39.3169 37.7582 39.3174C37.7588 39.3184 37.7588 39.3185 37.7583 39.3176C37.7574 39.3159 37.7543 39.3105 37.7493 39.3012C37.7393 39.2827 37.7216 39.249 37.6975 39.1995C37.6492 39.1006 37.5751 38.9386 37.4856 38.7095C37.3067 38.2513 37.0656 37.5233 36.8461 36.4928C36.4073 34.4324 36.0533 31.1546 36.4607 26.3969L34.468 26.2262ZM65.6758 10.7174L63.8214 12.541L65.2237 13.967L67.0781 12.1434L65.6758 10.7174ZM64.5226 13.254C63.618 13.6802 63.6179 13.6801 63.6178 13.6799C63.6178 13.6799 63.6178 13.6798 63.6177 13.6798C63.6177 13.6797 63.6177 13.6797 63.6177 13.6798C63.6178 13.6799 63.618 13.6804 63.6184 13.6811C63.6191 13.6827 63.6204 13.6855 63.6223 13.6895C63.626 13.6975 63.632 13.7105 63.6401 13.7283C63.6563 13.764 63.6811 13.8191 63.7136 13.893C63.7786 14.0408 63.8743 14.264 63.9937 14.5579C64.2323 15.1457 64.5653 16.0158 64.9361 17.1313C65.6779 19.3631 66.5692 22.5717 67.1598 26.4617L69.1371 26.1614C68.5265 22.1397 67.6048 18.8195 66.834 16.5005C66.4484 15.3405 66.1002 14.4297 65.8467 13.8054C65.72 13.4933 65.6169 13.2526 65.5446 13.0881C65.5084 13.0059 65.4799 12.9427 65.4601 12.8991C65.4502 12.8773 65.4424 12.8604 65.4369 12.8485C65.4341 12.8426 65.4319 12.8378 65.4303 12.8344C65.4295 12.8327 65.4288 12.8312 65.4283 12.8301C65.428 12.8296 65.4278 12.8291 65.4276 12.8287C65.4275 12.8285 65.4274 12.8283 65.4274 12.8282C65.4273 12.828 65.4272 12.8278 64.5226 13.254ZM67.1598 26.4617C67.6539 29.7162 67.2787 32.9649 66.7668 35.4238C66.5118 36.6482 66.2256 37.6645 66.0042 38.372C65.8935 38.7254 65.7993 39.001 65.7336 39.186C65.7007 39.2785 65.675 39.3483 65.658 39.3938C65.6494 39.4166 65.6431 39.4333 65.6391 39.4437C65.6371 39.4489 65.6357 39.4525 65.6349 39.4546C65.6345 39.4556 65.6343 39.4562 65.6342 39.4564C65.6341 39.4566 65.6341 39.4566 65.6342 39.4565C65.6342 39.4564 65.6342 39.4563 65.6342 39.4563C65.6343 39.4561 65.6344 39.4559 66.5653 39.8211C67.4963 40.1863 67.4964 40.186 67.4965 40.1858C67.4965 40.1856 67.4966 40.1853 67.4967 40.1851C67.4969 40.1846 67.4972 40.184 67.4974 40.1833C67.498 40.1819 67.4987 40.1801 67.4995 40.1779C67.5013 40.1734 67.5036 40.1674 67.5065 40.1597C67.5124 40.1445 67.5206 40.1228 67.531 40.095C67.5519 40.0393 67.5814 39.959 67.6182 39.8555C67.6917 39.6486 67.7941 39.3489 67.9128 38.9695C68.1503 38.211 68.4543 37.1306 68.7248 35.8314C69.2637 33.2431 69.68 29.737 69.1371 26.1614L67.1598 26.4617ZM39.3697 14.8995C40.1432 15.6386 41.3091 15.5704 42.0419 14.9533L40.7536 13.4235C40.7505 13.4262 40.7457 13.4292 40.739 13.4316C40.732 13.4342 40.7256 13.435 40.7214 13.435C40.7174 13.435 40.719 13.4342 40.7255 13.4367C40.7288 13.438 40.7331 13.44 40.7379 13.443C40.7428 13.4461 40.7474 13.4497 40.7514 13.4535L39.3697 14.8995ZM60.663 14.2234C61.9712 15.1276 63.9467 15.2229 65.2237 13.967L63.8214 12.541C63.3667 12.9881 62.4899 13.0548 61.8001 12.5781L60.663 14.2234ZM65.4349 5.80587C67.1109 6.81368 67.2884 9.13157 65.6758 10.7174L67.0781 12.1434C69.3986 9.86142 69.517 5.92682 66.4656 4.0919L65.4349 5.80587ZM37.0585 4.05324C33.9694 5.8997 34.1179 9.88139 36.494 12.1518L37.8757 10.7058C36.2229 9.12653 36.3907 6.78248 38.0846 5.76993L37.0585 4.05324ZM17 36C16.0101 36.1414 16.0101 36.1415 16.0101 36.1417C16.0101 36.1417 16.0101 36.1419 16.0101 36.1421C16.0102 36.1424 16.0103 36.1428 16.0103 36.1434C16.0105 36.1444 16.0107 36.1459 16.011 36.1478C16.0115 36.1516 16.0123 36.1571 16.0133 36.1642C16.0154 36.1785 16.0185 36.1992 16.0224 36.226C16.0304 36.2797 16.0422 36.358 16.0577 36.4579C16.0886 36.6577 16.1343 36.9442 16.1938 37.2942C16.3127 37.9933 16.4874 38.9495 16.7103 39.9747C16.9326 40.9971 17.206 42.1028 17.5242 43.0962C17.8343 44.0642 18.2159 45.0211 18.6866 45.6792L20.3134 44.5158C20.0341 44.1252 19.7282 43.4205 19.4289 42.4861C19.1377 41.577 18.8799 40.5395 18.6647 39.5497C18.4501 38.5627 18.281 37.6378 18.1655 36.9589C18.1079 36.6198 18.0637 36.3431 18.0341 36.1519C18.0193 36.0563 18.0082 35.9821 18.0007 35.9322C17.997 35.9073 17.9943 35.8885 17.9925 35.8761C17.9916 35.8699 17.9909 35.8653 17.9905 35.8623C17.9903 35.8609 17.9901 35.8598 17.99 35.8592C17.99 35.8589 17.99 35.8587 17.9899 35.8586C17.9899 35.8585 17.9899 35.8585 17.9899 35.8585C17.9899 35.8585 17.99 35.8586 17 36ZM18.6866 45.6792C18.8861 45.9583 19.1589 46.3247 19.5441 46.5946C19.9741 46.8958 20.4781 47.036 21.0649 46.9979L20.9351 45.0021C20.8413 45.0082 20.7897 44.9987 20.7646 44.992C20.7414 44.9858 20.7199 44.9764 20.6916 44.9566C20.6138 44.902 20.5115 44.7929 20.3134 44.5158L18.6866 45.6792ZM21.0649 46.9979C21.4119 46.9753 21.6267 46.9764 21.7423 46.981C21.7998 46.9832 21.8314 46.9862 21.8415 46.9873C21.8465 46.9879 21.8459 46.9879 21.8403 46.9871C21.8375 46.9866 21.8334 46.986 21.8281 46.9851C21.8254 46.9846 21.8225 46.9841 21.8192 46.9835C21.8176 46.9832 21.8159 46.9829 21.8141 46.9826C21.8132 46.9824 21.8123 46.9822 21.8114 46.9821C21.8109 46.982 21.8105 46.9819 21.81 46.9818C21.8098 46.9817 21.8094 46.9817 21.8093 46.9816C21.8089 46.9816 21.8086 46.9815 22 46C22.1914 45.0185 22.1911 45.0184 22.1907 45.0184C22.1906 45.0183 22.1902 45.0183 22.19 45.0182C22.1895 45.0181 22.189 45.018 22.1885 45.0179C22.1875 45.0177 22.1865 45.0176 22.1855 45.0174C22.1835 45.017 22.1814 45.0166 22.1793 45.0162C22.1751 45.0154 22.1706 45.0146 22.1659 45.0138C22.1566 45.0122 22.1464 45.0106 22.1353 45.0089C22.1131 45.0056 22.0871 45.0022 22.0569 44.999C21.9967 44.9924 21.919 44.9863 21.8202 44.9825C21.6233 44.9748 21.3381 44.9759 20.9351 45.0021L21.0649 46.9979ZM20.0317 46.2497C21.1977 50.7721 22.5875 57.3913 23.8089 62.9725C24.4175 65.7531 24.9849 68.2787 25.4588 70.1372C25.695 71.0635 25.9133 71.8455 26.1067 72.4174C26.2022 72.7 26.3011 72.9601 26.4036 73.1697C26.4542 73.2732 26.5189 73.392 26.6003 73.5032C26.6634 73.5896 26.8227 73.7946 27.0977 73.9155L27.9023 72.0845C28.0235 72.1378 28.1024 72.2043 28.1413 72.241C28.1824 72.2798 28.2063 72.3112 28.2147 72.3227C28.2299 72.3436 28.2242 72.3401 28.2002 72.2911C28.1535 72.1955 28.0866 72.0294 28.0014 71.7771C27.8331 71.2792 27.6298 70.5565 27.3968 69.643C26.9324 67.8219 26.3717 65.3275 25.7627 62.5449C24.5491 56.9997 23.1466 50.32 21.9683 45.7503L20.0317 46.2497ZM27.0977 73.9155C28.2241 74.4105 29.3017 74.5978 30.3232 74.4653C31.3482 74.3324 32.2401 73.8873 33.0067 73.2412C34.5023 71.9806 35.5697 69.9137 36.3977 67.657C37.236 65.3721 37.8817 62.7389 38.4505 60.2118C39.0258 57.6558 39.5174 55.235 40.0593 53.2652L38.1309 52.7348C37.5724 54.765 37.06 57.2817 36.4993 59.7726C35.9321 62.2924 35.3099 64.8154 34.5201 66.968C33.72 69.1488 32.799 70.8006 31.7178 71.7119C31.1959 72.1518 30.6522 72.4059 30.066 72.4819C29.4763 72.5584 28.767 72.4645 27.9023 72.0845L27.0977 73.9155ZM30.3464 44.6852C29.9841 45.4858 29.7504 46.8579 29.5808 48.3075C29.4052 49.8081 29.2828 51.5529 29.1972 53.2033C29.1116 54.8563 29.0623 56.4272 29.0345 57.5841C29.0205 58.1629 29.0119 58.6388 29.0068 58.9703C29.0043 59.1361 29.0026 59.2659 29.0015 59.3544C29.001 59.3987 29.0006 59.4326 29.0004 59.4557C29.0003 59.4672 29.0002 59.476 29.0001 59.4819C29.0001 59.4849 29.0001 59.4872 29.0001 59.4888C29.0001 59.4895 29 59.4901 29 59.4906C29 59.4908 29 59.491 29 59.4911C29 59.4912 29 59.4913 30 59.5C31 59.5087 31 59.5087 31 59.5087C31 59.5086 31 59.5085 31 59.5084C31 59.5081 31 59.5076 31 59.5069C31 59.5056 31 59.5036 31 59.5009C31.0001 59.4954 31.0002 59.4872 31.0003 59.4762C31.0005 59.4542 31.0009 59.4213 31.0014 59.3781C31.0024 59.2918 31.0041 59.1644 31.0066 59.0012C31.0116 58.6746 31.0201 58.2045 31.0339 57.6323C31.0614 56.4872 31.1101 54.9357 31.1946 53.3068C31.2791 51.6753 31.3989 49.9789 31.5673 48.54C31.7416 47.05 31.9537 45.9843 32.1685 45.5099L30.3464 44.6852ZM30 59.5C30.9684 59.2507 30.9684 59.2506 30.9684 59.2506C30.9684 59.2505 30.9683 59.2504 30.9683 59.2502C30.9682 59.2499 30.9681 59.2494 30.9679 59.2488C30.9676 59.2476 30.9671 59.2457 30.9665 59.2432C30.9652 59.2383 30.9633 59.2309 30.9608 59.2212C30.9558 59.2016 30.9483 59.1726 30.9385 59.1345C30.9189 59.0583 30.8899 58.9458 30.8526 58.8008C30.7779 58.5109 30.6697 58.0907 30.5356 57.5701C30.2674 56.5288 29.8955 55.0855 29.4809 53.4774C28.6518 50.2614 27.6516 46.3858 26.968 43.749L25.032 44.251C25.7152 46.8863 26.7151 50.7607 27.5442 53.9767C27.9588 55.5846 28.3306 57.0278 28.5988 58.069C28.7329 58.5896 28.8411 59.0097 28.9158 59.2996C28.9531 59.4446 28.9821 59.557 29.0017 59.6332C29.0115 59.6713 29.019 59.7003 29.024 59.7198C29.0265 59.7296 29.0284 59.737 29.0297 59.7419C29.0303 59.7444 29.0308 59.7462 29.0311 59.7475C29.0313 59.7481 29.0314 59.7485 29.0315 59.7489C29.0315 59.749 29.0315 59.7491 29.0315 59.7492C29.0316 59.7493 29.0316 59.7493 30 59.5ZM25 45.0975C25.7669 45.7393 25.7669 45.7393 25.7669 45.7393C25.7669 45.7393 25.7668 45.7394 25.7668 45.7394C25.7668 45.7394 25.7668 45.7394 25.7668 45.7394C25.7668 45.7394 25.7668 45.7394 25.7669 45.7393C25.767 45.7392 25.7672 45.7389 25.7675 45.7385C25.7682 45.7377 25.7694 45.7363 25.771 45.7344C25.7742 45.7306 25.7792 45.7247 25.7859 45.7167C25.7993 45.7009 25.8194 45.6772 25.8453 45.647C25.8972 45.5865 25.9718 45.5003 26.0614 45.399C26.2424 45.1945 26.4774 44.9369 26.7071 44.7071L25.2929 43.2929C25.0226 43.5631 24.7576 43.8543 24.5636 44.0736C24.4657 44.1842 24.3841 44.2786 24.3265 44.3457C24.2977 44.3793 24.2749 44.4062 24.259 44.425C24.2511 44.4344 24.2449 44.4418 24.2405 44.447C24.2383 44.4495 24.2366 44.4516 24.2354 44.4531C24.2347 44.4538 24.2342 44.4544 24.2339 44.4549C24.2337 44.4551 24.2335 44.4553 24.2334 44.4554C24.2333 44.4555 24.2333 44.4556 24.2332 44.4556C24.2332 44.4557 24.2332 44.4557 24.2331 44.4557C24.2331 44.4557 24.2331 44.4558 25 45.0975ZM26.8944 44.4472C27.2204 43.7952 27.4571 42.7239 27.6423 41.6259C27.8351 40.4832 27.9939 39.1639 28.1199 37.9217C28.2462 36.6771 28.3407 35.4972 28.4036 34.6294C28.4351 34.1951 28.4588 33.8383 28.4746 33.5895C28.4824 33.4652 28.4884 33.3678 28.4924 33.3013C28.4943 33.268 28.4958 33.2425 28.4969 33.2251C28.4974 33.2164 28.4977 33.2098 28.498 33.2052C28.4981 33.203 28.4982 33.2012 28.4983 33.2C28.4983 33.1994 28.4984 33.1989 28.4984 33.1986C28.4984 33.1984 28.4984 33.1983 28.4984 33.1982C28.4984 33.1981 28.4984 33.198 27.5 33.1417C26.5016 33.0853 26.5016 33.0853 26.5016 33.0853C26.5016 33.0854 26.5016 33.0854 26.5016 33.0855C26.5016 33.0857 26.5015 33.086 26.5015 33.0865C26.5015 33.0875 26.5014 33.0889 26.5013 33.0909C26.501 33.0949 26.5007 33.101 26.5002 33.1092C26.4993 33.1254 26.4978 33.1499 26.4959 33.182C26.4921 33.2462 26.4863 33.3411 26.4786 33.4628C26.4631 33.7064 26.4399 34.0572 26.4089 34.4847C26.3468 35.3403 26.2538 36.5 26.1301 37.7199C26.0061 38.9423 25.8524 40.2126 25.6702 41.2933C25.4804 42.4188 25.2796 43.2048 25.1056 43.5528L26.8944 44.4472ZM27.8933 32.2222C27.5246 32.0645 27.1277 32.0202 26.7334 32.1123C26.3528 32.2013 26.0409 32.4014 25.7952 32.6253C25.3232 33.0555 24.9736 33.6848 24.7055 34.3122C24.1579 35.5933 23.7675 37.3125 23.5136 38.8356L25.4864 39.1644C25.7325 37.6875 26.0921 36.1567 26.5445 35.0982C26.7764 34.5558 26.9893 34.243 27.1423 34.1036C27.2091 34.0427 27.2254 34.0513 27.1884 34.0599C27.1379 34.0717 27.1004 34.0584 27.1067 34.0611L27.8933 32.2222ZM25.5 39C25.5 38.437 25.3814 37.6875 25.2301 36.9397C25.0749 36.1721 24.8697 35.3337 24.6672 34.563C24.4642 33.7906 24.2616 33.0773 24.1099 32.5575C24.034 32.2974 23.9707 32.0851 23.9262 31.9375C23.9039 31.8637 23.8864 31.806 23.8744 31.7666C23.8683 31.7468 23.8637 31.7316 23.8605 31.7213C23.8589 31.7161 23.8577 31.7121 23.8568 31.7093C23.8564 31.708 23.8561 31.7069 23.8558 31.7061C23.8557 31.7058 23.8556 31.7055 23.8556 31.7052C23.8555 31.7051 23.8555 31.705 23.8555 31.705C23.8554 31.7049 23.8554 31.7048 22.9 32C21.9445 32.2952 21.9445 32.2952 21.9445 32.2951C21.9445 32.2952 21.9445 32.2952 21.9446 32.2952C21.9446 32.2953 21.9446 32.2955 21.9447 32.2958C21.9449 32.2963 21.9451 32.2971 21.9455 32.2982C21.9462 32.3004 21.9472 32.3039 21.9487 32.3086C21.9515 32.3179 21.9559 32.332 21.9615 32.3507C21.9729 32.3879 21.9898 32.4433 22.0113 32.5146C22.0543 32.6574 22.1159 32.864 22.19 33.1178C22.3383 33.626 22.5358 34.3212 22.7328 35.0712C22.9303 35.8229 23.1251 36.6207 23.2698 37.3362C23.4186 38.0717 23.5 38.6524 23.5 39H25.5ZM71.387 46.6937L75.0161 66.6787L76.9839 66.3213L73.3548 46.3363L71.387 46.6937ZM63.5643 53.286L68.0418 68.286L69.9582 67.714L65.4808 52.714L63.5643 53.286ZM60.4751 74.2836C58.0381 74.8639 54.6117 75.5358 52.0137 75.5001L51.9863 77.4999C54.8525 77.5393 58.4882 76.8126 60.9384 76.2292L60.4751 74.2836ZM52.0137 75.5001C49.5341 75.466 46.4381 74.8116 44.2529 74.2573L43.7611 76.1959C45.97 76.7562 49.2576 77.4624 51.9863 77.4999L52.0137 75.5001ZM6 7H9V5H6V7ZM9 6C9.99228 5.87597 9.99233 5.87637 9.99238 5.87676C9.99239 5.87687 9.99244 5.87724 9.99246 5.87746C9.99252 5.8779 9.99256 5.87828 9.9926 5.8786C9.99268 5.87925 9.99273 5.87967 9.99275 5.87986C9.9928 5.88024 9.99274 5.87971 9.99258 5.87831C9.99227 5.87551 9.99159 5.86922 9.99068 5.85968C9.98885 5.84057 9.98608 5.80864 9.9834 5.76575C9.97802 5.67959 9.9731 5.55143 9.97635 5.39583C9.98297 5.07802 10.023 4.67886 10.142 4.29827C10.2607 3.9184 10.442 3.60618 10.6988 3.38991C10.9409 3.1861 11.3288 3 12 3V1C10.9212 1 10.0591 1.3139 9.41055 1.86009C8.77675 2.39382 8.42681 3.0816 8.23302 3.70173C8.03945 4.32114 7.98578 4.92198 7.97678 5.35417C7.97221 5.57357 7.97901 5.75791 7.9873 5.8905C7.99145 5.95699 7.99602 6.01099 7.9998 6.05047C8.00169 6.07023 8.0034 6.0864 8.00476 6.09874C8.00545 6.1049 8.00605 6.11012 8.00655 6.11434C8.0068 6.11646 8.00702 6.11832 8.00722 6.11994C8.00732 6.12075 8.00741 6.12149 8.00749 6.12218C8.00753 6.12252 8.00759 6.12298 8.00761 6.12315C8.00767 6.1236 8.00772 6.12403 9 6ZM12 3C12.6712 3 13.0591 3.1861 13.3012 3.38991C13.558 3.60618 13.7393 3.9184 13.858 4.29827C13.977 4.67886 14.017 5.07802 14.0237 5.39583C14.0269 5.55143 14.022 5.67959 14.0166 5.76575C14.0139 5.80864 14.0112 5.84057 14.0093 5.85968C14.0084 5.86922 14.0077 5.87551 14.0074 5.87831C14.0073 5.87971 14.0072 5.88024 14.0072 5.87986C14.0073 5.87967 14.0073 5.87925 14.0074 5.8786C14.0074 5.87828 14.0075 5.8779 14.0075 5.87746C14.0076 5.87724 14.0076 5.87687 14.0076 5.87676C14.0077 5.87637 14.0077 5.87597 15 6C15.9923 6.12403 15.9923 6.1236 15.9924 6.12315C15.9924 6.12298 15.9925 6.12252 15.9925 6.12218C15.9926 6.12149 15.9927 6.12075 15.9928 6.11994C15.993 6.11832 15.9932 6.11646 15.9935 6.11434C15.994 6.11012 15.9946 6.1049 15.9952 6.09874C15.9966 6.0864 15.9983 6.07023 16.0002 6.05047C16.004 6.01099 16.0085 5.95699 16.0127 5.8905C16.021 5.75791 16.0278 5.57357 16.0232 5.35417C16.0142 4.92198 15.9605 4.32114 15.767 3.70173C15.5732 3.0816 15.2233 2.39382 14.5894 1.86009C13.9409 1.3139 13.0788 1 12 1V3ZM15 7H18V5H15V7ZM12 5.5C11.7239 5.5 11.5 5.27614 11.5 5H13.5C13.5 4.17157 12.8284 3.5 12 3.5V5.5ZM11.5 5C11.5 4.72386 11.7239 4.5 12 4.5V6.5C12.8284 6.5 13.5 5.82843 13.5 5H11.5ZM12 4.5C12.2761 4.5 12.5 4.72386 12.5 5H10.5C10.5 5.82843 11.1716 6.5 12 6.5V4.5ZM12.5 5C12.5 5.27614 12.2761 5.5 12 5.5V3.5C11.1716 3.5 10.5 4.17157 10.5 5H12.5ZM38.1009 52.8924C37.8017 55.6579 37.6433 58.2405 37.857 60.4704C38.0703 62.6955 38.6645 64.6892 39.9774 66.1647L41.4715 64.8353C40.56 63.8108 40.042 62.3045 39.8479 60.2796C39.6543 58.2595 39.7934 55.8421 40.0893 53.1076L38.1009 52.8924ZM39.7272 65.5746L40.1983 71.8718L42.1928 71.7226L41.7217 65.4254L39.7272 65.5746ZM63.538 53.175C64.5125 58.6585 64.4345 62.312 62.7487 64.9635L64.4364 66.0366C66.5655 62.688 66.4875 58.3415 65.5071 52.825L63.538 53.175ZM62.5925 65.5V71.5152H64.5925V65.5H62.5925ZM60.9384 76.2292C63.1379 75.7055 64.5925 73.7209 64.5925 71.5152H62.5925C62.5925 72.8506 61.7204 73.9871 60.4751 74.2836L60.9384 76.2292ZM44.2529 74.2573C43.1097 73.9673 42.2849 72.954 42.1928 71.7226L40.1983 71.8718C40.3504 73.9048 41.7313 75.681 43.7611 76.1959L44.2529 74.2573ZM14.7923 49.3288C14.9955 48.1097 14.0554 47 12.8195 47V49L14.7923 49.3288ZM12.178 52.8492C12.1635 52.9362 12.0882 53 12 53V55C13.0659 55 13.9756 54.2294 14.1508 53.178L12.178 52.8492ZM9.84921 53.178C10.0244 54.2294 10.9341 55 12 55V53C11.9118 53 11.8365 52.9362 11.822 52.8492L9.84921 53.178ZM11.1805 47C9.94458 47 9.0045 48.1097 9.20767 49.3288L11.1805 49V47Z" fill="#DCE5EB"/>
</svg>
