<svg width="64" height="77" viewBox="0 0 64 77" fill="none" xmlns="http://www.w3.org/2000/svg">
<path d="M33.4418 4.5493C33.4418 3.99701 32.9941 3.5493 32.4418 3.5493C31.8895 3.5493 31.4418 3.99701 31.4418 4.5493H33.4418ZM31.4418 11.0684C31.4418 11.6207 31.8895 12.0684 32.4418 12.0684C32.9941 12.0684 33.4418 11.6207 33.4418 11.0684H31.4418ZM35.6817 8.88129C36.234 8.88129 36.6817 8.43357 36.6817 7.88129C36.6817 7.329 36.234 6.88129 35.6817 6.88129V8.88129ZM29.2019 6.88129C28.6496 6.88129 28.2019 7.329 28.2019 7.88129C28.2019 8.43357 28.6496 8.88129 29.2019 8.88129V6.88129ZM16.4632 33.5L17.4303 33.2458L16.4632 33.5ZM48.8622 32.9437L47.8947 32.6908L48.8622 32.9437ZM21.1021 17.5595L20.6306 16.6777L21.1021 17.5595ZM35.2399 24.4123L35.1843 25.4107L35.2399 24.4123ZM47.3159 27.0773L47.9456 26.3005L47.3159 27.0773ZM14.1139 18.674L14.8048 17.9511L14.1139 18.674ZM8.87886 37.507L7.8825 37.4217L8.87886 37.507ZM50.7767 18.674L50.0754 17.9612V17.9612L50.7767 18.674ZM56.0048 37.507L55.0161 37.6571L56.0048 37.507ZM1.88472 67.0865L0.927129 66.7984L1.88472 67.0865ZM62.5701 68.5632L61.5894 68.7589L62.5701 68.5632ZM58.658 74.0046L58.8494 74.9861L58.658 74.0046ZM17.434 20.0218L18.0783 20.7866L17.434 20.0218ZM54.6915 7.88499L54.128 8.71108L54.6915 7.88499ZM10.0326 7.84314L9.47074 7.01593L10.0326 7.84314ZM46.6857 18.1226C43.9882 16.2391 39.1674 13.7626 32.4786 13.7626V15.7626C38.6529 15.7626 43.0812 18.0451 45.5408 19.7624L46.6857 18.1226ZM10.5945 8.67034C14.7987 5.81453 22.2937 2 32.3314 2V0C21.7741 0 13.8922 4.01253 9.47074 7.01593L10.5945 8.67034ZM32.3314 2C42.4169 2 49.9354 5.85103 54.128 8.71108L55.2551 7.05889C50.8456 4.05087 42.9389 0 32.3314 0V2ZM31.4418 4.5493V11.0684H33.4418V4.5493H31.4418ZM35.6817 6.88129H29.2019V8.88129H35.6817V6.88129ZM14.506 19.9959C14.4936 21.4289 14.5075 23.9657 14.6385 26.5809C14.7681 29.1709 15.016 31.9281 15.496 33.7542L17.4303 33.2458C17.0086 31.6413 16.7656 29.071 16.636 26.4809C16.5076 23.9161 16.4937 21.4204 16.5059 20.0132L14.506 19.9959ZM32.4786 13.7626C27.4292 13.7626 23.4419 15.1745 20.6306 16.6777L21.5737 18.4414C24.1484 17.0647 27.814 15.7626 32.4786 15.7626V13.7626ZM20.6306 16.6777C18.8961 17.6051 17.6079 18.5677 16.7897 19.257L18.0783 20.7866C18.8087 20.1713 19.9821 19.2923 21.5737 18.4414L20.6306 16.6777ZM35.2955 23.4138C31.0226 23.176 26.0016 22.1393 21.8863 16.939L20.318 18.1801C24.9377 24.0179 30.6346 25.1575 35.1843 25.4107L35.2955 23.4138ZM49.8297 33.1966C50.0882 32.2077 50.0649 30.8822 49.7914 29.6571C49.5208 28.4452 48.9578 27.1209 47.9456 26.3005L46.6863 27.8542C47.1943 28.266 47.6128 29.078 47.8394 30.0929C48.0631 31.0945 48.0528 32.0861 47.8947 32.6908L49.8297 33.1966ZM47.9456 26.3005C46.2801 24.9506 43.909 24.301 41.6474 23.9469C39.363 23.5891 37.0032 23.5089 35.2955 23.4138L35.1843 25.4107C36.9532 25.5092 39.1795 25.5847 41.338 25.9228C43.5192 26.2644 45.4479 26.8506 46.6863 27.8542L47.9456 26.3005ZM23.1639 53.9497C22.2305 54.3084 22.2306 54.3089 22.2308 54.3094C22.2309 54.3096 22.2311 54.3102 22.2313 54.3106C22.2316 54.3114 22.2319 54.3123 22.2323 54.3132C22.2331 54.3152 22.234 54.3175 22.235 54.3202C22.2372 54.3256 22.2399 54.3324 22.2432 54.3406C22.2498 54.357 22.2588 54.379 22.2703 54.4061C22.2932 54.4604 22.3262 54.5355 22.3696 54.6285C22.4565 54.8142 22.586 55.0723 22.7631 55.3785C23.1166 55.9894 23.6651 56.8014 24.4515 57.6147C26.0365 59.2537 28.5845 60.8893 32.3682 60.8893V58.8893C29.2302 58.8893 27.1761 57.5551 25.8893 56.2244C25.2399 55.5528 24.7852 54.8798 24.4943 54.377C24.3493 54.1264 24.2464 53.9204 24.1814 53.7814C24.1489 53.7119 24.126 53.6594 24.1122 53.6267C24.1052 53.6103 24.1006 53.5989 24.0981 53.5929C24.0969 53.5898 24.0962 53.5881 24.0961 53.5878C24.096 53.5876 24.0961 53.5878 24.0963 53.5883C24.0964 53.5886 24.0966 53.5889 24.0967 53.5894C24.0968 53.5896 24.097 53.59 24.097 53.5901C24.0972 53.5905 24.0973 53.591 23.1639 53.9497ZM32.3682 60.8893C36.1518 60.8893 38.6999 59.2537 40.2848 57.6147C41.0712 56.8014 41.6198 55.9894 41.9732 55.3785C42.1504 55.0723 42.2799 54.8142 42.3667 54.6285C42.4102 54.5355 42.4431 54.4604 42.4661 54.4061C42.4775 54.379 42.4866 54.357 42.4932 54.3406C42.4965 54.3324 42.4992 54.3256 42.5013 54.3202C42.5023 54.3175 42.5033 54.3152 42.504 54.3132C42.5044 54.3123 42.5048 54.3114 42.5051 54.3106C42.5052 54.3102 42.5054 54.3096 42.5055 54.3094C42.5057 54.3089 42.5059 54.3084 41.5724 53.9497C40.639 53.591 40.6392 53.5905 40.6393 53.5901C40.6394 53.59 40.6395 53.5896 40.6396 53.5894C40.6398 53.5889 40.6399 53.5886 40.64 53.5883C40.6402 53.5878 40.6403 53.5876 40.6402 53.5878C40.6401 53.5881 40.6394 53.5898 40.6382 53.5929C40.6358 53.5989 40.6311 53.6103 40.6242 53.6267C40.6103 53.6594 40.5874 53.7119 40.555 53.7814C40.49 53.9204 40.387 54.1264 40.242 54.377C39.9512 54.8798 39.4965 55.5528 38.847 56.2244C37.5602 57.5551 35.5061 58.8893 32.3682 58.8893V60.8893ZM32.3314 52.4869C35.8143 52.4869 38.8745 50.5772 41.3686 48.0623L39.9485 46.654C37.6339 48.9879 35.0554 50.4869 32.3314 50.4869V52.4869ZM41.3686 48.0623C45.8776 43.5157 48.943 36.5889 49.8297 33.1966L47.8947 32.6908C47.0735 35.8325 44.151 42.4164 39.9485 46.654L41.3686 48.0623ZM42.4652 53.4992C42.2641 53.1007 41.6586 51.1212 41.6586 47.3582H39.6586C39.6586 51.2442 40.2715 53.5915 40.6797 54.4002L42.4652 53.4992ZM15.496 33.7542C16.7124 38.3817 18.3938 43.358 23.2342 48.0744L24.6299 46.6419C20.176 42.3022 18.613 37.7451 17.4303 33.2458L15.496 33.7542ZM23.2342 48.0744C25.7973 50.5717 28.9168 52.4869 32.3314 52.4869V50.4869C29.6717 50.4869 27.0292 48.9796 24.6299 46.6419L23.2342 48.0744ZM24.0255 54.4573C24.1579 54.2326 24.2656 53.9281 24.3567 53.5946C24.4532 53.2409 24.5485 52.7877 24.6329 52.2259C24.8019 51.1017 24.9321 49.5114 24.9321 47.3582H22.9321C22.9321 49.4351 22.8062 50.9233 22.6551 51.9286C22.5795 52.4317 22.4988 52.806 22.4272 53.068C22.3502 53.3501 22.298 53.4495 22.3023 53.4421L24.0255 54.4573ZM41.5724 53.9497C40.6029 53.7047 40.6029 53.7047 40.6029 53.7048C40.6029 53.7049 40.6028 53.7051 40.6028 53.7053C40.6026 53.7061 40.6026 53.706 40.6023 53.7071C40.6019 53.7086 40.6012 53.7114 40.6005 53.7145C40.5988 53.7209 40.5964 53.7307 40.5931 53.7435C40.5866 53.7692 40.5769 53.8075 40.5643 53.8577C40.5388 53.9582 40.5013 54.1068 40.4527 54.299C40.3556 54.6832 40.2145 55.2419 40.0383 55.9391C39.6859 57.3336 39.1933 59.2826 38.6328 61.5006C37.5117 65.9368 36.1186 71.4494 35.0305 75.755L36.9695 76.245C38.0576 71.9394 39.4507 66.4268 40.5718 61.9907C41.1324 59.7726 41.6249 57.8236 41.9773 56.4291C42.1535 55.7319 42.2947 55.1733 42.3918 54.789C42.4403 54.5968 42.4779 54.4483 42.5033 54.3477C42.516 54.2974 42.5257 54.2593 42.5322 54.2335C42.5354 54.2207 42.5378 54.211 42.5395 54.2045C42.5404 54.2011 42.5409 54.199 42.5413 54.1972C42.5415 54.1967 42.5418 54.1954 42.5418 54.1953C42.5419 54.1951 42.5419 54.195 42.5419 54.1949C42.542 54.1948 42.542 54.1947 41.5724 53.9497ZM36 75C35.9939 75 35.9878 75 35.9817 75C35.9756 75 35.9694 75 35.9633 75C35.9572 75 35.951 75 35.9449 75C35.9388 75 35.9326 75 35.9265 75C35.9203 75 35.9141 75 35.908 75C35.9018 75 35.8956 75 35.8895 75C35.8833 75 35.8771 75 35.8709 75C35.8647 75 35.8585 75 35.8523 75C35.8461 75 35.8399 75 35.8337 75C35.8274 75 35.8212 75 35.815 75C35.8088 75 35.8025 75 35.7963 75C35.79 75 35.7838 75 35.7775 75C35.7713 75 35.765 75 35.7587 75C35.7525 75 35.7462 75 35.7399 75C35.7336 75 35.7274 75 35.7211 75C35.7148 75 35.7085 75 35.7022 75C35.6959 75 35.6896 75 35.6833 75C35.6769 75 35.6706 75 35.6643 75C35.658 75 35.6516 75 35.6453 75C35.639 75 35.6326 75 35.6263 75C35.6199 75 35.6136 75 35.6072 75C35.6008 75 35.5945 75 35.5881 75C35.5817 75 35.5753 75 35.569 75C35.5626 75 35.5562 75 35.5498 75C35.5434 75 35.537 75 35.5306 75C35.5242 75 35.5178 75 35.5114 75C35.5049 75 35.4985 75 35.4921 75C35.4857 75 35.4792 75 35.4728 75C35.4664 75 35.4599 75 35.4535 75C35.447 75 35.4406 75 35.4341 75C35.4277 75 35.4212 75 35.4147 75C35.4083 75 35.4018 75 35.3953 75C35.3888 75 35.3823 75 35.3759 75C35.3694 75 35.3629 75 35.3564 75C35.3499 75 35.3434 75 35.3369 75C35.3303 75 35.3238 75 35.3173 75C35.3108 75 35.3043 75 35.2977 75C35.2912 75 35.2847 75 35.2781 75C35.2716 75 35.2651 75 35.2585 75C35.252 75 35.2454 75 35.2389 75C35.2323 75 35.2257 75 35.2192 75C35.2126 75 35.206 75 35.1995 75C35.1929 75 35.1863 75 35.1797 75C35.1731 75 35.1665 75 35.1599 75C35.1533 75 35.1467 75 35.1401 75C35.1335 75 35.1269 75 35.1203 75C35.1137 75 35.1071 75 35.1005 75C35.0938 75 35.0872 75 35.0806 75C35.074 75 35.0673 75 35.0607 75C35.0541 75 35.0474 75 35.0408 75C35.0341 75 35.0275 75 35.0208 75C35.0142 75 35.0075 75 35.0008 75C34.9942 75 34.9875 75 34.9808 75C34.9742 75 34.9675 75 34.9608 75C34.9541 75 34.9474 75 34.9408 75C34.9341 75 34.9274 75 34.9207 75C34.914 75 34.9073 75 34.9006 75C34.8939 75 34.8872 75 34.8805 75C34.8738 75 34.867 75 34.8603 75C34.8536 75 34.8469 75 34.8402 75C34.8334 75 34.8267 75 34.82 75C34.8132 75 34.8065 75 34.7998 75C34.793 75 34.7863 75 34.7795 75C34.7728 75 34.766 75 34.7593 75C34.7525 75 34.7458 75 34.739 75C34.7322 75 34.7255 75 34.7187 75C34.7119 75 34.7052 75 34.6984 75C34.6916 75 34.6848 75 34.678 75C34.6713 75 34.6645 75 34.6577 75C34.6509 75 34.6441 75 34.6373 75C34.6305 75 34.6237 75 34.6169 75C34.6101 75 34.6033 75 34.5965 75C34.5897 75 34.5829 75 34.5761 75C34.5692 75 34.5624 75 34.5556 75C34.5488 75 34.542 75 34.5351 75C34.5283 75 34.5215 75 34.5146 75C34.5078 75 34.501 75 34.4941 75C34.4873 75 34.4805 75 34.4736 75C34.4668 75 34.4599 75 34.4531 75C34.4462 75 34.4394 75 34.4325 75C34.4257 75 34.4188 75 34.4119 75C34.4051 75 34.3982 75 34.3914 75C34.3845 75 34.3776 75 34.3708 75C34.3639 75 34.357 75 34.3501 75C34.3433 75 34.3364 75 34.3295 75C34.3226 75 34.3157 75 34.3088 75C34.302 75 34.2951 75 34.2882 75C34.2813 75 34.2744 75 34.2675 75C34.2606 75 34.2537 75 34.2468 75C34.2399 75 34.233 75 34.2261 75C34.2192 75 34.2123 75 34.2054 75C34.1985 75 34.1916 75 34.1846 75C34.1777 75 34.1708 75 34.1639 75C34.157 75 34.1501 75 34.1431 75C34.1362 75 34.1293 75 34.1224 75C34.1154 75 34.1085 75 34.1016 75C34.0947 75 34.0877 75 34.0808 75C34.0739 75 34.0669 75 34.06 75C34.053 75 34.0461 75 34.0392 75C34.0322 75 34.0253 75 34.0183 75C34.0114 75 34.0044 75 33.9975 75C33.9906 75 33.9836 75 33.9767 75C33.9697 75 33.9627 75 33.9558 75C33.9488 75 33.9419 75 33.9349 75C33.928 75 33.921 75 33.914 75C33.9071 75 33.9001 75 33.8932 75C33.8862 75 33.8792 75 33.8723 75C33.8653 75 33.8583 75 33.8514 75C33.8444 75 33.8374 75 33.8304 75C33.8235 75 33.8165 75 33.8095 75C33.8026 75 33.7956 75 33.7886 75C33.7816 75 33.7746 75 33.7677 75C33.7607 75 33.7537 75 33.7467 75C33.7397 75 33.7328 75 33.7258 75C33.7188 75 33.7118 75 33.7048 75C33.6978 75 33.6909 75 33.6839 75C33.6769 75 33.6699 75 33.6629 75C33.6559 75 33.6489 75 33.6419 75C33.6349 75 33.6279 75 33.621 75C33.614 75 33.607 75 33.6 75C33.593 75 33.586 75 33.579 75C33.572 75 33.565 75 33.558 75C33.551 75 33.544 75 33.537 75C33.53 75 33.523 75 33.516 75C33.509 75 33.502 75 33.495 75C33.488 75 33.481 75 33.474 75C33.467 75 33.46 75 33.453 75C33.446 75 33.439 75 33.432 75C33.425 75 33.418 75 33.411 75C33.404 75 33.397 75 33.39 75C33.3829 75 33.3759 75 33.3689 75C33.3619 75 33.3549 75 33.3479 75C33.3409 75 33.3339 75 33.3269 75C33.3199 75 33.3129 75 33.3059 75C33.2989 75 33.2919 75 33.2849 75C33.2779 75 33.2709 75 33.2639 75C33.2568 75 33.2498 75 33.2428 75C33.2358 75 33.2288 75 33.2218 75C33.2148 75 33.2078 75 33.2008 75C33.1938 75 33.1868 75 33.1798 75C33.1728 75 33.1658 75 33.1588 75C33.1518 75 33.1448 75 33.1378 75C33.1308 75 33.1237 75 33.1167 75C33.1097 75 33.1027 75 33.0957 75C33.0887 75 33.0817 75 33.0747 75C33.0677 75 33.0607 75 33.0537 75C33.0467 75 33.0397 75 33.0327 75C33.0257 75 33.0187 75 33.0117 75C33.0047 75 32.9977 75 32.9907 75C32.9837 75 32.9767 75 32.9698 75C32.9628 75 32.9558 75 32.9488 75C32.9418 75 32.9348 75 32.9278 75C32.9208 75 32.9138 75 32.9068 75C32.8998 75 32.8928 75 32.8858 75C32.8789 75 32.8719 75 32.8649 75C32.8579 75 32.8509 75 32.8439 75C32.8369 75 32.83 75 32.823 75C32.816 75 32.809 75 32.802 75C32.795 75 32.7881 75 32.7811 75C32.7741 75 32.7671 75 32.7602 75C32.7532 75 32.7462 75 32.7392 75C32.7323 75 32.7253 75 32.7183 75C32.7113 75 32.7044 75 32.6974 75C32.6904 75 32.6835 75 32.6765 75C32.6695 75 32.6626 75 32.6556 75C32.6486 75 32.6417 75 32.6347 75C32.6278 75 32.6208 75 32.6139 75C32.6069 75 32.5999 75 32.593 75C32.586 75 32.5791 75 32.5721 75C32.5652 75 32.5582 75 32.5513 75C32.5443 75 32.5374 75 32.5305 75C32.5235 75 32.5166 75 32.5096 75C32.5027 75 32.4957 75 32.4888 75C32.4819 75 32.4749 75 32.468 75C32.4611 75 32.4541 75 32.4472 75C32.4403 75 32.4334 75 32.4264 75C32.4195 75 32.4126 75 32.4057 75C32.3988 75 32.3918 75 32.3849 75C32.378 75 32.3711 75 32.3642 75C32.3573 75 32.3504 75 32.3434 75C32.3365 75 32.3296 75 32.3227 75C32.3158 75 32.3089 75 32.302 75C32.2951 75 32.2882 75 32.2813 75C32.2744 75 32.2676 75 32.2607 75C32.2538 75 32.2469 75 32.24 75C32.2331 75 32.2262 75 32.2194 75C32.2125 75 32.2056 75 32.1987 75C32.1919 75 32.185 75 32.1781 75C32.1712 75 32.1644 75 32.1575 75C32.1507 75 32.1438 75 32.1369 75C32.1301 75 32.1232 75 32.1164 75C32.1095 75 32.1027 75 32.0958 75C32.089 75 32.0821 75 32.0753 75C32.0684 75 32.0616 75 32.0548 75C32.0479 75 32.0411 75 32.0343 75C32.0274 75 32.0206 75 32.0138 75C32.007 75 32.0001 75 31.9933 75C31.9865 75 31.9797 75 31.9729 75C31.9661 75 31.9592 75 31.9524 75C31.9456 75 31.9388 75 31.932 75C31.9252 75 31.9184 75 31.9116 75C31.9049 75 31.8981 75 31.8913 75C31.8845 75 31.8777 75 31.8709 75C31.8641 75 31.8574 75 31.8506 75C31.8438 75 31.8371 75 31.8303 75C31.8235 75 31.8168 75 31.81 75C31.8032 75 31.7965 75 31.7897 75C31.783 75 31.7762 75 31.7695 75C31.7627 75 31.756 75 31.7493 75C31.7425 75 31.7358 75 31.7291 75C31.7223 75 31.7156 75 31.7089 75C31.7022 75 31.6954 75 31.6887 75C31.682 75 31.6753 75 31.6686 75C31.6619 75 31.6552 75 31.6485 75C31.6418 75 31.6351 75 31.6284 75C31.6217 75 31.615 75 31.6083 75C31.6016 75 31.5949 75 31.5883 75C31.5816 75 31.5749 75 31.5683 75C31.5616 75 31.5549 75 31.5483 75C31.5416 75 31.5349 75 31.5283 75C31.5216 75 31.515 75 31.5083 75C31.5017 75 31.4951 75 31.4884 75C31.4818 75 31.4752 75 31.4685 75C31.4619 75 31.4553 75 31.4487 75C31.4421 75 31.4354 75 31.4288 75C31.4222 75 31.4156 75 31.409 75C31.4024 75 31.3958 75 31.3892 75C31.3826 75 31.376 75 31.3695 75C31.3629 75 31.3563 75 31.3497 75C31.3432 75 31.3366 75 31.33 75C31.3235 75 31.3169 75 31.3104 75C31.3038 75 31.2973 75 31.2907 75C31.2842 75 31.2776 75 31.2711 75C31.2646 75 31.258 75 31.2515 75C31.245 75 31.2385 75 31.2319 75C31.2254 75 31.2189 75 31.2124 75C31.2059 75 31.1994 75 31.1929 75C31.1864 75 31.1799 75 31.1734 75C31.1669 75 31.1605 75 31.154 75C31.1475 75 31.141 75 31.1346 75C31.1281 75 31.1217 75 31.1152 75C31.1087 75 31.1023 75 31.0958 75C31.0894 75 31.083 75 31.0765 75C31.0701 75 31.0637 75 31.0572 75C31.0508 75 31.0444 75 31.038 75C31.0316 75 31.0252 75 31.0188 75C31.0124 75 31.006 75 30.9996 75C30.9932 75 30.9868 75 30.9804 75C30.9741 75 30.9677 75 30.9613 75C30.9549 75 30.9486 75 30.9422 75C30.9359 75 30.9295 75 30.9232 75C30.9168 75 30.9105 75 30.9042 75C30.8978 75 30.8915 75 30.8852 75C30.8788 75 30.8725 75 30.8662 75C30.8599 75 30.8536 75 30.8473 75C30.841 75 30.8347 75 30.8284 75C30.8221 75 30.8159 75 30.8096 75C30.8033 75 30.797 75 30.7908 75C30.7845 75 30.7783 75 30.772 75C30.7658 75 30.7595 75 30.7533 75C30.747 75 30.7408 75 30.7346 75C30.7283 75 30.7221 75 30.7159 75C30.7097 75 30.7035 75 30.6973 75C30.6911 75 30.6849 75 30.6787 75C30.6725 75 30.6663 75 30.6602 75C30.654 75 30.6478 75 30.6417 75C30.6355 75 30.6293 75 30.6232 75C30.617 75 30.6109 75 30.6048 75C30.5986 75 30.5925 75 30.5864 75C30.5802 75 30.5741 75 30.568 75C30.5619 75 30.5558 75 30.5497 75C30.5436 75 30.5375 75 30.5314 75C30.5253 75 30.5193 75 30.5132 75C30.5071 75 30.5011 75 30.495 75C30.489 75 30.4829 75 30.4769 75C30.4708 75 30.4648 75 30.4588 75C30.4527 75 30.4467 75 30.4407 75C30.4347 75 30.4287 75 30.4227 75C30.4167 75 30.4107 75 30.4047 75C30.3987 75 30.3927 75 30.3867 75C30.3808 75 30.3748 75 30.3688 75C30.3629 75 30.3569 75 30.351 75C30.345 75 30.3391 75 30.3332 75C30.3273 75 30.3213 75 30.3154 75C30.3095 75 30.3036 75 30.2977 75C30.2918 75 30.2859 75 30.28 75C30.2741 75 30.2683 75 30.2624 75C30.2565 75 30.2507 75 30.2448 75C30.2389 75 30.2331 75 30.2273 75C30.2214 75 30.2156 75 30.2098 75C30.2039 75 30.1981 75 30.1923 75C30.1865 75 30.1807 75 30.1749 75C30.1691 75 30.1633 75 30.1575 75C30.1518 75 30.146 75 30.1402 75C30.1345 75 30.1287 75 30.123 75C30.1172 75 30.1115 75 30.1057 75C30.1 75 30.0943 75 30.0886 75C30.0829 75 30.0772 75 30.0715 75C30.0658 75 30.0601 75 30.0544 75C30.0487 75 30.043 75 30.0374 75C30.0317 75 30.026 75 30.0204 75C30.0147 75 30.0091 75 30.0035 75C29.9978 75 29.9922 75 29.9866 75C29.981 75 29.9753 75 29.9697 75C29.9641 75 29.9586 75 29.953 75C29.9474 75 29.9418 75 29.9362 75C29.9307 75 29.9251 75 29.9196 75C29.914 75 29.9085 75 29.9029 75C29.8974 75 29.8919 75 29.8864 75C29.8808 75 29.8753 75 29.8698 75C29.8643 75 29.8588 75 29.8534 75C29.8479 75 29.8424 75 29.8369 75C29.8315 75 29.826 75 29.8206 75C29.8151 75 29.8097 75 29.8043 75C29.7988 75 29.7934 75 29.788 75C29.7826 75 29.7772 75 29.7718 75C29.7664 75 29.761 75 29.7556 75C29.7503 75 29.7449 75 29.7395 75C29.7342 75 29.7288 75 29.7235 75C29.7181 75 29.7128 75 29.7075 75C29.7022 75 29.6969 75 29.6915 75C29.6862 75 29.681 75 29.6757 75C29.6704 75 29.6651 75 29.6598 75C29.6546 75 29.6493 75 29.6441 75C29.6388 75 29.6336 75 29.6283 75C29.6231 75 29.6179 75 29.6127 75C29.6075 75 29.6023 75 29.5971 75C29.5919 75 29.5867 75 29.5815 75C29.5764 75 29.5712 75 29.566 75C29.5609 75 29.5557 75 29.5506 75C29.5455 75 29.5404 75 29.5352 75C29.5301 75 29.525 75 29.5199 75C29.5148 75 29.5097 75 29.5047 75C29.4996 75 29.4945 75 29.4895 75C29.4844 75 29.4794 75 29.4743 75C29.4693 75 29.4643 75 29.4592 75C29.4542 75 29.4492 75 29.4442 75C29.4392 75 29.4342 75 29.4293 75C29.4243 75 29.4193 75 29.4143 75C29.4094 75 29.4044 75 29.3995 75C29.3946 75 29.3896 75 29.3847 75C29.3798 75 29.3749 75 29.37 75C29.3651 75 29.3602 75 29.3553 75C29.3505 75 29.3456 75 29.3407 75C29.3359 75 29.331 75 29.3262 75C29.3214 75 29.3165 75 29.3117 75C29.3069 75 29.3021 75 29.2973 75C29.2925 75 29.2877 75 29.283 75C29.2782 75 29.2734 75 29.2687 75C29.2639 75 29.2592 75 29.2545 75C29.2497 75 29.245 75 29.2403 75C29.2356 75 29.2309 75 29.2262 75C29.2215 75 29.2168 75 29.2122 75C29.2075 75 29.2029 75 29.1982 75C29.1936 75 29.1889 75 29.1843 75C29.1797 75 29.1751 75 29.1705 75C29.1659 75 29.1613 75 29.1567 75C29.1521 75 29.1475 75 29.143 75C29.1384 75 29.1339 75 29.1294 75C29.1248 75 29.1203 75 29.1158 75C29.1113 75 29.1068 75 29.1023 75C29.0978 75 29.0933 75 29.0888 75C29.0844 75 29.0799 75 29.0755 75C29.071 75 29.0666 75 29.0622 75C29.0577 75 29.0533 75 29.0489 75C29.0445 75 29.0401 75 29.0357 75C29.0314 75 29.027 75 29.0226 75C29.0183 75 29.0139 75 29.0096 75C29.0053 75 29.001 75 28.9966 75C28.9923 75 28.988 75 28.9838 75C28.9795 75 28.9752 75 28.9709 75C28.9667 75 28.9624 75 28.9582 75C28.9539 75 28.9497 75 28.9455 75C28.9413 75 28.9371 75 28.9329 75C28.9287 75 28.9245 75 28.9203 75C28.9162 75 28.912 75 28.9079 75C28.9037 75 28.8996 75 28.8955 75C28.8913 75 28.8872 75 28.8831 75C28.879 75 28.8749 75 28.8709 75C28.8668 75 28.8627 75 28.8587 75C28.8546 75 28.8506 75 28.8466 75C28.8425 75 28.8385 75 28.8345 75C28.8305 75 28.8265 75 28.8226 75C28.8186 75 28.8146 75 28.8107 75C28.8067 75 28.8028 75 28.7988 75C28.7949 75 28.791 75 28.7871 75C28.7832 75 28.7793 75 28.7754 75C28.7715 75 28.7677 75 28.7638 75C28.76 75 28.7561 75 28.7523 75C28.7485 75 28.7447 75 28.7409 75C28.737 75 28.7333 75 28.7295 75C28.7257 75 28.7219 75 28.7182 75C28.7144 75 28.7107 75 28.707 75C28.7032 75 28.6995 75 28.6958 75C28.6921 75 28.6884 75 28.6847 75C28.6811 75 28.6774 75 28.6738 75C28.6701 75 28.6665 75 28.6628 75C28.6592 75 28.6556 75 28.652 75C28.6484 75 28.6448 75 28.6413 75C28.6377 75 28.6341 75 28.6306 75C28.627 75 28.6235 75 28.62 75C28.6164 75 28.6129 75 28.6094 75C28.606 75 28.6025 75 28.599 75C28.5955 75 28.5921 75 28.5886 75C28.5852 75 28.5818 75 28.5784 75C28.5749 75 28.5715 75 28.5681 75C28.5648 75 28.5614 75 28.558 75C28.5547 75 28.5513 75 28.548 75C28.5446 75 28.5413 75 28.538 75C28.5347 75 28.5314 75 28.5281 75C28.5249 75 28.5216 75 28.5183 75C28.5151 75 28.5118 75 28.5086 75C28.5054 75 28.5022 75 28.499 75C28.4958 75 28.4926 75 28.4894 75C28.4862 75 28.4831 75 28.4799 75C28.4768 75 28.4737 75 28.4706 75C28.4674 75 28.4643 75 28.4613 75C28.4582 75 28.4551 75 28.452 75C28.449 75 28.4459 75 28.4429 75C28.4399 75 28.4368 75 28.4338 75C28.4308 75 28.4278 75 28.4249 75C28.4219 75 28.4189 75 28.416 75C28.413 75 28.4101 75 28.4072 75C28.4043 75 28.4014 75 28.3985 75C28.3956 75 28.3927 75 28.3898 75C28.387 75 28.3841 75 28.3813 75C28.3785 75 28.3756 75 28.3728 75C28.37 75 28.3672 75 28.3645 75C28.3617 75 28.3589 75 28.3562 75C28.3534 75 28.3507 75 28.348 75C28.3452 75 28.3425 75 28.3399 75C28.3372 75 28.3345 75 28.3318 75C28.3292 75 28.3265 75 28.3239 75C28.3213 75 28.3187 75 28.316 75C28.3134 75 28.3109 75 28.3083 75C28.3057 75 28.3032 75 28.3006 75C28.2981 75 28.2956 75 28.293 75C28.2905 75 28.288 75 28.2855 75C28.2831 75 28.2806 75 28.2781 75C28.2757 75 28.2733 75 28.2708 75C28.2684 75 28.266 75 28.2636 75C28.2612 75 28.2588 75 28.2565 75C28.2541 75 28.2518 75 28.2494 75C28.2471 75 28.2448 75 28.2425 75C28.2402 75 28.2379 75 28.2356 75C28.2334 75 28.2311 75 28.2289 75C28.2266 75 28.2244 75 28.2222 75C28.22 75 28.2178 75 28.2156 75C28.2134 75 28.2113 75 28.2091 75C28.207 75 28.2048 75 28.2027 75C28.2006 75 28.1985 75 28.1964 75C28.1943 75 28.1923 75 28.1902 75C28.1882 75 28.1861 75 28.1841 75C28.1821 75 28.1801 75 28.1781 75C28.1761 75 28.1741 75 28.1721 75C28.1702 75 28.1682 75 28.1663 75C28.1644 75 28.1625 75 28.1606 75C28.1587 75 28.1568 75 28.1549 75C28.1531 75 28.1512 75 28.1494 75C28.1476 75 28.1457 75 28.1439 75C28.1421 75 28.1404 75 28.1386 75C28.1368 75 28.1351 75 28.1333 75C28.1316 75 28.1299 75 28.1282 75C28.1265 75 28.1248 75 28.1231 75C28.1214 75 28.1198 75 28.1181 75C28.1165 75 28.1149 75 28.1133 75C28.1117 75 28.1101 75 28.1085 75C28.1069 75 28.1054 75 28.1038 75C28.1023 75 28.1008 75 28.0992 75C28.0977 75 28.0962 75 28.0948 75C28.0933 75 28.0918 75 28.0904 75C28.089 75 28.0875 75 28.0861 75C28.0847 75 28.0833 75 28.0819 75C28.0806 75 28.0792 75 28.0779 75C28.0765 75 28.0752 75 28.0739 75C28.0726 75 28.0713 75 28.07 75C28.0687 75 28.0675 75 28.0662 75C28.065 75 28.0638 75 28.0626 75C28.0614 75 28.0602 75 28.059 75C28.0578 75 28.0567 75 28.0555 75C28.0544 75 28.0533 75 28.0522 75C28.051 75 28.05 75 28.0489 75C28.0478 75 28.0468 75 28.0457 75C28.0447 75 28.0437 75 28.0427 75C28.0417 75 28.0407 75 28.0397 75C28.0387 75 28.0378 75 28.0369 75C28.0359 75 28.035 75 28.0341 75C28.0332 75 28.0323 75 28.0315 75C28.0306 75 28.0297 75 28.0289 75C28.0281 75 28.0273 75 28.0265 75C28.0257 75 28.0249 75 28.0242 75C28.0234 75 28.0226 75 28.0219 75C28.0212 75 28.0205 75 28.0198 75C28.0191 75 28.0184 75 28.0178 75C28.0171 75 28.0165 75 28.0159 75C28.0153 75 28.0147 75 28.0141 75C28.0135 75 28.0129 75 28.0124 75C28.0118 75 28.0113 75 28.0108 75C28.0103 75 28.0098 75 28.0093 75C28.0088 75 28.0084 75 28.0079 75C28.0075 75 28.0071 75 28.0067 75C28.0063 75 28.0059 75 28.0055 75C28.0052 75 28.0048 75 28.0045 75C28.0042 75 28.0038 75 28.0035 75C28.0033 75 28.003 75 28.0027 75C28.0025 75 28.0022 75 28.002 75C28.0018 75 28.0016 75 28.0014 75C28.0012 75 28.001 75 28.0009 75C28.0007 75 28.0006 75 28.0005 75C28.0004 75 28.0003 75 28.0002 75C28.0001 75 28.0001 75 28.0001 75C28 75 28 75 28 76C28 77 28 77 28.0001 77C28.0001 77 28.0001 77 28.0002 77C28.0003 77 28.0004 77 28.0005 77C28.0006 77 28.0007 77 28.0009 77C28.001 77 28.0012 77 28.0014 77C28.0016 77 28.0018 77 28.002 77C28.0022 77 28.0025 77 28.0027 77C28.003 77 28.0033 77 28.0035 77C28.0038 77 28.0042 77 28.0045 77C28.0048 77 28.0052 77 28.0055 77C28.0059 77 28.0063 77 28.0067 77C28.0071 77 28.0075 77 28.0079 77C28.0084 77 28.0088 77 28.0093 77C28.0098 77 28.0103 77 28.0108 77C28.0113 77 28.0118 77 28.0124 77C28.0129 77 28.0135 77 28.0141 77C28.0147 77 28.0153 77 28.0159 77C28.0165 77 28.0171 77 28.0178 77C28.0184 77 28.0191 77 28.0198 77C28.0205 77 28.0212 77 28.0219 77C28.0226 77 28.0234 77 28.0242 77C28.0249 77 28.0257 77 28.0265 77C28.0273 77 28.0281 77 28.0289 77C28.0297 77 28.0306 77 28.0315 77C28.0323 77 28.0332 77 28.0341 77C28.035 77 28.0359 77 28.0369 77C28.0378 77 28.0387 77 28.0397 77C28.0407 77 28.0417 77 28.0427 77C28.0437 77 28.0447 77 28.0457 77C28.0468 77 28.0478 77 28.0489 77C28.05 77 28.051 77 28.0522 77C28.0533 77 28.0544 77 28.0555 77C28.0567 77 28.0578 77 28.059 77C28.0602 77 28.0614 77 28.0626 77C28.0638 77 28.065 77 28.0662 77C28.0675 77 28.0687 77 28.07 77C28.0713 77 28.0726 77 28.0739 77C28.0752 77 28.0765 77 28.0779 77C28.0792 77 28.0806 77 28.0819 77C28.0833 77 28.0847 77 28.0861 77C28.0875 77 28.089 77 28.0904 77C28.0918 77 28.0933 77 28.0948 77C28.0962 77 28.0977 77 28.0992 77C28.1008 77 28.1023 77 28.1038 77C28.1054 77 28.1069 77 28.1085 77C28.1101 77 28.1117 77 28.1133 77C28.1149 77 28.1165 77 28.1181 77C28.1198 77 28.1214 77 28.1231 77C28.1248 77 28.1265 77 28.1282 77C28.1299 77 28.1316 77 28.1333 77C28.1351 77 28.1368 77 28.1386 77C28.1404 77 28.1421 77 28.1439 77C28.1457 77 28.1476 77 28.1494 77C28.1512 77 28.1531 77 28.1549 77C28.1568 77 28.1587 77 28.1606 77C28.1625 77 28.1644 77 28.1663 77C28.1682 77 28.1702 77 28.1721 77C28.1741 77 28.1761 77 28.1781 77C28.1801 77 28.1821 77 28.1841 77C28.1861 77 28.1882 77 28.1902 77C28.1923 77 28.1943 77 28.1964 77C28.1985 77 28.2006 77 28.2027 77C28.2048 77 28.207 77 28.2091 77C28.2113 77 28.2134 77 28.2156 77C28.2178 77 28.22 77 28.2222 77C28.2244 77 28.2266 77 28.2289 77C28.2311 77 28.2334 77 28.2356 77C28.2379 77 28.2402 77 28.2425 77C28.2448 77 28.2471 77 28.2494 77C28.2518 77 28.2541 77 28.2565 77C28.2588 77 28.2612 77 28.2636 77C28.266 77 28.2684 77 28.2708 77C28.2733 77 28.2757 77 28.2781 77C28.2806 77 28.2831 77 28.2855 77C28.288 77 28.2905 77 28.293 77C28.2956 77 28.2981 77 28.3006 77C28.3032 77 28.3057 77 28.3083 77C28.3109 77 28.3134 77 28.316 77C28.3187 77 28.3213 77 28.3239 77C28.3265 77 28.3292 77 28.3318 77C28.3345 77 28.3372 77 28.3399 77C28.3425 77 28.3452 77 28.348 77C28.3507 77 28.3534 77 28.3562 77C28.3589 77 28.3617 77 28.3645 77C28.3672 77 28.37 77 28.3728 77C28.3756 77 28.3785 77 28.3813 77C28.3841 77 28.387 77 28.3898 77C28.3927 77 28.3956 77 28.3985 77C28.4014 77 28.4043 77 28.4072 77C28.4101 77 28.413 77 28.416 77C28.4189 77 28.4219 77 28.4249 77C28.4278 77 28.4308 77 28.4338 77C28.4368 77 28.4399 77 28.4429 77C28.4459 77 28.449 77 28.452 77C28.4551 77 28.4582 77 28.4613 77C28.4643 77 28.4674 77 28.4706 77C28.4737 77 28.4768 77 28.4799 77C28.4831 77 28.4862 77 28.4894 77C28.4926 77 28.4958 77 28.499 77C28.5022 77 28.5054 77 28.5086 77C28.5118 77 28.5151 77 28.5183 77C28.5216 77 28.5249 77 28.5281 77C28.5314 77 28.5347 77 28.538 77C28.5413 77 28.5446 77 28.548 77C28.5513 77 28.5547 77 28.558 77C28.5614 77 28.5648 77 28.5681 77C28.5715 77 28.5749 77 28.5784 77C28.5818 77 28.5852 77 28.5886 77C28.5921 77 28.5955 77 28.599 77C28.6025 77 28.606 77 28.6094 77C28.6129 77 28.6164 77 28.62 77C28.6235 77 28.627 77 28.6306 77C28.6341 77 28.6377 77 28.6413 77C28.6448 77 28.6484 77 28.652 77C28.6556 77 28.6592 77 28.6628 77C28.6665 77 28.6701 77 28.6738 77C28.6774 77 28.6811 77 28.6847 77C28.6884 77 28.6921 77 28.6958 77C28.6995 77 28.7032 77 28.707 77C28.7107 77 28.7144 77 28.7182 77C28.7219 77 28.7257 77 28.7295 77C28.7333 77 28.737 77 28.7409 77C28.7447 77 28.7485 77 28.7523 77C28.7561 77 28.76 77 28.7638 77C28.7677 77 28.7715 77 28.7754 77C28.7793 77 28.7832 77 28.7871 77C28.791 77 28.7949 77 28.7988 77C28.8028 77 28.8067 77 28.8107 77C28.8146 77 28.8186 77 28.8226 77C28.8265 77 28.8305 77 28.8345 77C28.8385 77 28.8425 77 28.8466 77C28.8506 77 28.8546 77 28.8587 77C28.8627 77 28.8668 77 28.8709 77C28.8749 77 28.879 77 28.8831 77C28.8872 77 28.8913 77 28.8955 77C28.8996 77 28.9037 77 28.9079 77C28.912 77 28.9162 77 28.9203 77C28.9245 77 28.9287 77 28.9329 77C28.9371 77 28.9413 77 28.9455 77C28.9497 77 28.9539 77 28.9582 77C28.9624 77 28.9667 77 28.9709 77C28.9752 77 28.9795 77 28.9838 77C28.988 77 28.9923 77 28.9966 77C29.001 77 29.0053 77 29.0096 77C29.0139 77 29.0183 77 29.0226 77C29.027 77 29.0314 77 29.0357 77C29.0401 77 29.0445 77 29.0489 77C29.0533 77 29.0577 77 29.0622 77C29.0666 77 29.071 77 29.0755 77C29.0799 77 29.0844 77 29.0888 77C29.0933 77 29.0978 77 29.1023 77C29.1068 77 29.1113 77 29.1158 77C29.1203 77 29.1248 77 29.1294 77C29.1339 77 29.1384 77 29.143 77C29.1475 77 29.1521 77 29.1567 77C29.1613 77 29.1659 77 29.1705 77C29.1751 77 29.1797 77 29.1843 77C29.1889 77 29.1936 77 29.1982 77C29.2029 77 29.2075 77 29.2122 77C29.2168 77 29.2215 77 29.2262 77C29.2309 77 29.2356 77 29.2403 77C29.245 77 29.2497 77 29.2545 77C29.2592 77 29.2639 77 29.2687 77C29.2734 77 29.2782 77 29.283 77C29.2877 77 29.2925 77 29.2973 77C29.3021 77 29.3069 77 29.3117 77C29.3165 77 29.3214 77 29.3262 77C29.331 77 29.3359 77 29.3407 77C29.3456 77 29.3505 77 29.3553 77C29.3602 77 29.3651 77 29.37 77C29.3749 77 29.3798 77 29.3847 77C29.3896 77 29.3946 77 29.3995 77C29.4044 77 29.4094 77 29.4143 77C29.4193 77 29.4243 77 29.4293 77C29.4342 77 29.4392 77 29.4442 77C29.4492 77 29.4542 77 29.4592 77C29.4643 77 29.4693 77 29.4743 77C29.4794 77 29.4844 77 29.4895 77C29.4945 77 29.4996 77 29.5047 77C29.5097 77 29.5148 77 29.5199 77C29.525 77 29.5301 77 29.5352 77C29.5404 77 29.5455 77 29.5506 77C29.5557 77 29.5609 77 29.566 77C29.5712 77 29.5764 77 29.5815 77C29.5867 77 29.5919 77 29.5971 77C29.6023 77 29.6075 77 29.6127 77C29.6179 77 29.6231 77 29.6283 77C29.6336 77 29.6388 77 29.6441 77C29.6493 77 29.6546 77 29.6598 77C29.6651 77 29.6704 77 29.6757 77C29.681 77 29.6862 77 29.6915 77C29.6969 77 29.7022 77 29.7075 77C29.7128 77 29.7181 77 29.7235 77C29.7288 77 29.7342 77 29.7395 77C29.7449 77 29.7503 77 29.7556 77C29.761 77 29.7664 77 29.7718 77C29.7772 77 29.7826 77 29.788 77C29.7934 77 29.7988 77 29.8043 77C29.8097 77 29.8151 77 29.8206 77C29.826 77 29.8315 77 29.8369 77C29.8424 77 29.8479 77 29.8534 77C29.8588 77 29.8643 77 29.8698 77C29.8753 77 29.8808 77 29.8864 77C29.8919 77 29.8974 77 29.9029 77C29.9085 77 29.914 77 29.9196 77C29.9251 77 29.9307 77 29.9362 77C29.9418 77 29.9474 77 29.953 77C29.9586 77 29.9641 77 29.9697 77C29.9753 77 29.981 77 29.9866 77C29.9922 77 29.9978 77 30.0035 77C30.0091 77 30.0147 77 30.0204 77C30.026 77 30.0317 77 30.0374 77C30.043 77 30.0487 77 30.0544 77C30.0601 77 30.0658 77 30.0715 77C30.0772 77 30.0829 77 30.0886 77C30.0943 77 30.1 77 30.1057 77C30.1115 77 30.1172 77 30.123 77C30.1287 77 30.1345 77 30.1402 77C30.146 77 30.1518 77 30.1575 77C30.1633 77 30.1691 77 30.1749 77C30.1807 77 30.1865 77 30.1923 77C30.1981 77 30.2039 77 30.2098 77C30.2156 77 30.2214 77 30.2273 77C30.2331 77 30.2389 77 30.2448 77C30.2507 77 30.2565 77 30.2624 77C30.2683 77 30.2741 77 30.28 77C30.2859 77 30.2918 77 30.2977 77C30.3036 77 30.3095 77 30.3154 77C30.3213 77 30.3273 77 30.3332 77C30.3391 77 30.345 77 30.351 77C30.3569 77 30.3629 77 30.3688 77C30.3748 77 30.3808 77 30.3867 77C30.3927 77 30.3987 77 30.4047 77C30.4107 77 30.4167 77 30.4227 77C30.4287 77 30.4347 77 30.4407 77C30.4467 77 30.4527 77 30.4588 77C30.4648 77 30.4708 77 30.4769 77C30.4829 77 30.489 77 30.495 77C30.5011 77 30.5071 77 30.5132 77C30.5193 77 30.5253 77 30.5314 77C30.5375 77 30.5436 77 30.5497 77C30.5558 77 30.5619 77 30.568 77C30.5741 77 30.5802 77 30.5864 77C30.5925 77 30.5986 77 30.6048 77C30.6109 77 30.617 77 30.6232 77C30.6293 77 30.6355 77 30.6417 77C30.6478 77 30.654 77 30.6602 77C30.6663 77 30.6725 77 30.6787 77C30.6849 77 30.6911 77 30.6973 77C30.7035 77 30.7097 77 30.7159 77C30.7221 77 30.7283 77 30.7346 77C30.7408 77 30.747 77 30.7533 77C30.7595 77 30.7658 77 30.772 77C30.7783 77 30.7845 77 30.7908 77C30.797 77 30.8033 77 30.8096 77C30.8159 77 30.8221 77 30.8284 77C30.8347 77 30.841 77 30.8473 77C30.8536 77 30.8599 77 30.8662 77C30.8725 77 30.8788 77 30.8852 77C30.8915 77 30.8978 77 30.9042 77C30.9105 77 30.9168 77 30.9232 77C30.9295 77 30.9359 77 30.9422 77C30.9486 77 30.9549 77 30.9613 77C30.9677 77 30.9741 77 30.9804 77C30.9868 77 30.9932 77 30.9996 77C31.006 77 31.0124 77 31.0188 77C31.0252 77 31.0316 77 31.038 77C31.0444 77 31.0508 77 31.0572 77C31.0637 77 31.0701 77 31.0765 77C31.083 77 31.0894 77 31.0958 77C31.1023 77 31.1087 77 31.1152 77C31.1217 77 31.1281 77 31.1346 77C31.141 77 31.1475 77 31.154 77C31.1605 77 31.1669 77 31.1734 77C31.1799 77 31.1864 77 31.1929 77C31.1994 77 31.2059 77 31.2124 77C31.2189 77 31.2254 77 31.2319 77C31.2385 77 31.245 77 31.2515 77C31.258 77 31.2646 77 31.2711 77C31.2776 77 31.2842 77 31.2907 77C31.2973 77 31.3038 77 31.3104 77C31.3169 77 31.3235 77 31.33 77C31.3366 77 31.3432 77 31.3497 77C31.3563 77 31.3629 77 31.3695 77C31.376 77 31.3826 77 31.3892 77C31.3958 77 31.4024 77 31.409 77C31.4156 77 31.4222 77 31.4288 77C31.4354 77 31.4421 77 31.4487 77C31.4553 77 31.4619 77 31.4685 77C31.4752 77 31.4818 77 31.4884 77C31.4951 77 31.5017 77 31.5083 77C31.515 77 31.5216 77 31.5283 77C31.5349 77 31.5416 77 31.5483 77C31.5549 77 31.5616 77 31.5683 77C31.5749 77 31.5816 77 31.5883 77C31.5949 77 31.6016 77 31.6083 77C31.615 77 31.6217 77 31.6284 77C31.6351 77 31.6418 77 31.6485 77C31.6552 77 31.6619 77 31.6686 77C31.6753 77 31.682 77 31.6887 77C31.6954 77 31.7022 77 31.7089 77C31.7156 77 31.7223 77 31.7291 77C31.7358 77 31.7425 77 31.7493 77C31.756 77 31.7627 77 31.7695 77C31.7762 77 31.783 77 31.7897 77C31.7965 77 31.8032 77 31.81 77C31.8168 77 31.8235 77 31.8303 77C31.8371 77 31.8438 77 31.8506 77C31.8574 77 31.8641 77 31.8709 77C31.8777 77 31.8845 77 31.8913 77C31.8981 77 31.9049 77 31.9116 77C31.9184 77 31.9252 77 31.932 77C31.9388 77 31.9456 77 31.9524 77C31.9592 77 31.9661 77 31.9729 77C31.9797 77 31.9865 77 31.9933 77C32.0001 77 32.007 77 32.0138 77C32.0206 77 32.0274 77 32.0343 77C32.0411 77 32.0479 77 32.0548 77C32.0616 77 32.0684 77 32.0753 77C32.0821 77 32.089 77 32.0958 77C32.1027 77 32.1095 77 32.1164 77C32.1232 77 32.1301 77 32.1369 77C32.1438 77 32.1507 77 32.1575 77C32.1644 77 32.1712 77 32.1781 77C32.185 77 32.1919 77 32.1987 77C32.2056 77 32.2125 77 32.2194 77C32.2262 77 32.2331 77 32.24 77C32.2469 77 32.2538 77 32.2607 77C32.2676 77 32.2744 77 32.2813 77C32.2882 77 32.2951 77 32.302 77C32.3089 77 32.3158 77 32.3227 77C32.3296 77 32.3365 77 32.3434 77C32.3504 77 32.3573 77 32.3642 77C32.3711 77 32.378 77 32.3849 77C32.3918 77 32.3988 77 32.4057 77C32.4126 77 32.4195 77 32.4264 77C32.4334 77 32.4403 77 32.4472 77C32.4541 77 32.4611 77 32.468 77C32.4749 77 32.4819 77 32.4888 77C32.4957 77 32.5027 77 32.5096 77C32.5166 77 32.5235 77 32.5305 77C32.5374 77 32.5443 77 32.5513 77C32.5582 77 32.5652 77 32.5721 77C32.5791 77 32.586 77 32.593 77C32.5999 77 32.6069 77 32.6139 77C32.6208 77 32.6278 77 32.6347 77C32.6417 77 32.6486 77 32.6556 77C32.6626 77 32.6695 77 32.6765 77C32.6835 77 32.6904 77 32.6974 77C32.7044 77 32.7113 77 32.7183 77C32.7253 77 32.7323 77 32.7392 77C32.7462 77 32.7532 77 32.7602 77C32.7671 77 32.7741 77 32.7811 77C32.7881 77 32.795 77 32.802 77C32.809 77 32.816 77 32.823 77C32.83 77 32.8369 77 32.8439 77C32.8509 77 32.8579 77 32.8649 77C32.8719 77 32.8789 77 32.8858 77C32.8928 77 32.8998 77 32.9068 77C32.9138 77 32.9208 77 32.9278 77C32.9348 77 32.9418 77 32.9488 77C32.9558 77 32.9628 77 32.9698 77C32.9767 77 32.9837 77 32.9907 77C32.9977 77 33.0047 77 33.0117 77C33.0187 77 33.0257 77 33.0327 77C33.0397 77 33.0467 77 33.0537 77C33.0607 77 33.0677 77 33.0747 77C33.0817 77 33.0887 77 33.0957 77C33.1027 77 33.1097 77 33.1167 77C33.1237 77 33.1308 77 33.1378 77C33.1448 77 33.1518 77 33.1588 77C33.1658 77 33.1728 77 33.1798 77C33.1868 77 33.1938 77 33.2008 77C33.2078 77 33.2148 77 33.2218 77C33.2288 77 33.2358 77 33.2428 77C33.2498 77 33.2568 77 33.2639 77C33.2709 77 33.2779 77 33.2849 77C33.2919 77 33.2989 77 33.3059 77C33.3129 77 33.3199 77 33.3269 77C33.3339 77 33.3409 77 33.3479 77C33.3549 77 33.3619 77 33.3689 77C33.3759 77 33.3829 77 33.39 77C33.397 77 33.404 77 33.411 77C33.418 77 33.425 77 33.432 77C33.439 77 33.446 77 33.453 77C33.46 77 33.467 77 33.474 77C33.481 77 33.488 77 33.495 77C33.502 77 33.509 77 33.516 77C33.523 77 33.53 77 33.537 77C33.544 77 33.551 77 33.558 77C33.565 77 33.572 77 33.579 77C33.586 77 33.593 77 33.6 77C33.607 77 33.614 77 33.621 77C33.6279 77 33.6349 77 33.6419 77C33.6489 77 33.6559 77 33.6629 77C33.6699 77 33.6769 77 33.6839 77C33.6909 77 33.6978 77 33.7048 77C33.7118 77 33.7188 77 33.7258 77C33.7328 77 33.7397 77 33.7467 77C33.7537 77 33.7607 77 33.7677 77C33.7746 77 33.7816 77 33.7886 77C33.7956 77 33.8026 77 33.8095 77C33.8165 77 33.8235 77 33.8304 77C33.8374 77 33.8444 77 33.8514 77C33.8583 77 33.8653 77 33.8723 77C33.8792 77 33.8862 77 33.8932 77C33.9001 77 33.9071 77 33.914 77C33.921 77 33.928 77 33.9349 77C33.9419 77 33.9488 77 33.9558 77C33.9627 77 33.9697 77 33.9767 77C33.9836 77 33.9906 77 33.9975 77C34.0044 77 34.0114 77 34.0183 77C34.0253 77 34.0322 77 34.0392 77C34.0461 77 34.053 77 34.06 77C34.0669 77 34.0739 77 34.0808 77C34.0877 77 34.0947 77 34.1016 77C34.1085 77 34.1154 77 34.1224 77C34.1293 77 34.1362 77 34.1431 77C34.1501 77 34.157 77 34.1639 77C34.1708 77 34.1777 77 34.1846 77C34.1916 77 34.1985 77 34.2054 77C34.2123 77 34.2192 77 34.2261 77C34.233 77 34.2399 77 34.2468 77C34.2537 77 34.2606 77 34.2675 77C34.2744 77 34.2813 77 34.2882 77C34.2951 77 34.302 77 34.3088 77C34.3157 77 34.3226 77 34.3295 77C34.3364 77 34.3433 77 34.3501 77C34.357 77 34.3639 77 34.3708 77C34.3776 77 34.3845 77 34.3914 77C34.3982 77 34.4051 77 34.4119 77C34.4188 77 34.4257 77 34.4325 77C34.4394 77 34.4462 77 34.4531 77C34.4599 77 34.4668 77 34.4736 77C34.4805 77 34.4873 77 34.4941 77C34.501 77 34.5078 77 34.5146 77C34.5215 77 34.5283 77 34.5351 77C34.542 77 34.5488 77 34.5556 77C34.5624 77 34.5692 77 34.5761 77C34.5829 77 34.5897 77 34.5965 77C34.6033 77 34.6101 77 34.6169 77C34.6237 77 34.6305 77 34.6373 77C34.6441 77 34.6509 77 34.6577 77C34.6645 77 34.6713 77 34.678 77C34.6848 77 34.6916 77 34.6984 77C34.7052 77 34.7119 77 34.7187 77C34.7255 77 34.7322 77 34.739 77C34.7458 77 34.7525 77 34.7593 77C34.766 77 34.7728 77 34.7795 77C34.7863 77 34.793 77 34.7998 77C34.8065 77 34.8132 77 34.82 77C34.8267 77 34.8334 77 34.8402 77C34.8469 77 34.8536 77 34.8603 77C34.867 77 34.8738 77 34.8805 77C34.8872 77 34.8939 77 34.9006 77C34.9073 77 34.914 77 34.9207 77C34.9274 77 34.9341 77 34.9408 77C34.9474 77 34.9541 77 34.9608 77C34.9675 77 34.9742 77 34.9808 77C34.9875 77 34.9942 77 35.0008 77C35.0075 77 35.0142 77 35.0208 77C35.0275 77 35.0341 77 35.0408 77C35.0474 77 35.0541 77 35.0607 77C35.0673 77 35.074 77 35.0806 77C35.0872 77 35.0938 77 35.1005 77C35.1071 77 35.1137 77 35.1203 77C35.1269 77 35.1335 77 35.1401 77C35.1467 77 35.1533 77 35.1599 77C35.1665 77 35.1731 77 35.1797 77C35.1863 77 35.1929 77 35.1995 77C35.206 77 35.2126 77 35.2192 77C35.2257 77 35.2323 77 35.2389 77C35.2454 77 35.252 77 35.2585 77C35.2651 77 35.2716 77 35.2781 77C35.2847 77 35.2912 77 35.2977 77C35.3043 77 35.3108 77 35.3173 77C35.3238 77 35.3303 77 35.3369 77C35.3434 77 35.3499 77 35.3564 77C35.3629 77 35.3694 77 35.3759 77C35.3823 77 35.3888 77 35.3953 77C35.4018 77 35.4083 77 35.4147 77C35.4212 77 35.4277 77 35.4341 77C35.4406 77 35.447 77 35.4535 77C35.4599 77 35.4664 77 35.4728 77C35.4792 77 35.4857 77 35.4921 77C35.4985 77 35.5049 77 35.5114 77C35.5178 77 35.5242 77 35.5306 77C35.537 77 35.5434 77 35.5498 77C35.5562 77 35.5626 77 35.569 77C35.5753 77 35.5817 77 35.5881 77C35.5945 77 35.6008 77 35.6072 77C35.6136 77 35.6199 77 35.6263 77C35.6326 77 35.639 77 35.6453 77C35.6516 77 35.658 77 35.6643 77C35.6706 77 35.6769 77 35.6833 77C35.6896 77 35.6959 77 35.7022 77C35.7085 77 35.7148 77 35.7211 77C35.7274 77 35.7336 77 35.7399 77C35.7462 77 35.7525 77 35.7587 77C35.765 77 35.7713 77 35.7775 77C35.7838 77 35.79 77 35.7963 77C35.8025 77 35.8088 77 35.815 77C35.8212 77 35.8274 77 35.8337 77C35.8399 77 35.8461 77 35.8523 77C35.8585 77 35.8647 77 35.8709 77C35.8771 77 35.8833 77 35.8895 77C35.8956 77 35.9018 77 35.908 77C35.9141 77 35.9203 77 35.9265 77C35.9326 77 35.9388 77 35.9449 77C35.951 77 35.9572 77 35.9633 77C35.9694 77 35.9756 77 35.9817 77C35.9878 77 35.9939 77 36 77V75ZM28.9768 75.7858L24.1407 53.7355L22.1871 54.1639L27.0232 76.2142L28.9768 75.7858ZM41.3405 54.9224C43.7687 55.5015 49.5893 56.9185 53.463 57.9578L53.9812 56.0261C50.0791 54.9792 44.236 53.5568 41.8044 52.977L41.3405 54.9224ZM53.463 57.9578C56.9315 58.8883 60.4122 62.8581 61.5894 68.7589L63.5507 68.3676C62.2822 62.0088 58.4311 57.2199 53.9812 56.0261L53.463 57.9578ZM58.4667 73.0231C54.049 73.8842 46.3315 75 36 75V77C46.4751 77 54.3214 75.8688 58.8494 74.9861L58.4667 73.0231ZM22.9251 52.9786C20.9602 53.4618 15.7648 54.7468 10.6966 56.0222L11.1847 57.9617C16.2485 56.6874 21.4404 55.4034 23.4027 54.9208L22.9251 52.9786ZM10.6966 56.0222C5.71638 57.2754 2.4103 61.8691 0.927129 66.7984L2.84231 67.3747C4.22156 62.7908 7.16418 58.9735 11.1847 57.9617L10.6966 56.0222ZM6.67817 75.2687C11.3318 76.0924 18.5847 77 28 77V75C18.7133 75 11.5774 74.1048 7.02676 73.2993L6.67817 75.2687ZM16.1969 19.2817L14.8048 17.9511L13.4229 19.3969L14.815 20.7275L16.1969 19.2817ZM14.8048 17.9511L10.4312 13.7708L9.04926 15.2166L13.4229 19.3969L14.8048 17.9511ZM14.1139 18.674C13.3012 18.0914 13.3009 18.0918 13.3006 18.0922C13.3004 18.0924 13.3001 18.0928 13.2999 18.0932C13.2994 18.0938 13.2989 18.0946 13.2982 18.0955C13.297 18.0972 13.2956 18.0992 13.2938 18.1017C13.2904 18.1065 13.286 18.1128 13.2807 18.1205C13.27 18.1358 13.2555 18.1569 13.2375 18.1838C13.2014 18.2374 13.1511 18.3141 13.0882 18.4141C12.9625 18.6142 12.7867 18.9078 12.5748 19.2981C12.1509 20.0788 11.5828 21.2458 10.9822 22.8244C9.78053 25.9826 8.451 30.7818 7.8825 37.4217L9.87521 37.5923C10.4279 31.1375 11.7158 26.5202 12.8514 23.5356C13.4194 22.0428 13.9499 20.9569 14.3324 20.2524C14.5236 19.9002 14.678 19.6432 14.7816 19.4783C14.8334 19.3958 14.8725 19.3364 14.8973 19.2996C14.9097 19.2812 14.9184 19.2685 14.9234 19.2613C14.9259 19.2578 14.9274 19.2556 14.9279 19.2548C14.9282 19.2544 14.9282 19.2544 14.928 19.2547C14.9279 19.2549 14.9277 19.2551 14.9275 19.2555C14.9274 19.2556 14.9271 19.2559 14.9271 19.256C14.9268 19.2563 14.9266 19.2567 14.1139 18.674ZM7.8825 37.4217C7.27646 44.5003 7.79532 49.4711 8.48281 52.7002C8.82648 54.3144 9.21188 55.4914 9.51864 56.2771C9.67198 56.6698 9.80554 56.9644 9.9042 57.1666C9.95353 57.2677 9.99411 57.3457 10.0241 57.4012C10.039 57.429 10.0514 57.4512 10.0608 57.4678C10.0655 57.4762 10.0695 57.4831 10.0727 57.4887C10.0743 57.4915 10.0757 57.4939 10.077 57.496C10.0776 57.4971 10.0781 57.4981 10.0787 57.4989C10.0789 57.4994 10.0793 57.5 10.0794 57.5002C10.0798 57.5008 10.0801 57.5013 10.9406 56.992C11.8012 56.4826 11.8015 56.4831 11.8017 56.4836C11.8018 56.4837 11.8021 56.4842 11.8023 56.4845C11.8026 56.485 11.8029 56.4855 11.8031 56.4858C11.8035 56.4866 11.8038 56.487 11.8038 56.4871C11.8039 56.4873 11.8033 56.4861 11.8018 56.4836C11.799 56.4786 11.7932 56.4682 11.7846 56.4522C11.7674 56.4203 11.7391 56.3663 11.7017 56.2896C11.6268 56.1362 11.5151 55.8914 11.3817 55.5496C11.1148 54.8662 10.7604 53.7933 10.439 52.2837C9.79635 49.2654 9.28434 44.4936 9.87521 37.5923L7.8825 37.4217ZM54.3234 13.7824L50.0754 17.9612L51.478 19.3869L55.726 15.2081L54.3234 13.7824ZM50.0754 17.9612L50.0031 18.0323L51.4057 19.4581L51.478 19.3869L50.0754 17.9612ZM50.7767 18.674C49.8721 19.1002 49.872 19.1 49.8719 19.0999C49.8719 19.0999 49.8719 19.0998 49.8719 19.0998C49.8719 19.0998 49.8719 19.0999 49.872 19.1001C49.8722 19.1005 49.8726 19.1014 49.8733 19.1027C49.8745 19.1054 49.8766 19.1098 49.8795 19.1161C49.8852 19.1285 49.8942 19.1481 49.9064 19.1747C49.9306 19.2279 49.9672 19.3091 50.0148 19.4176C50.1101 19.6345 50.2498 19.9602 50.4235 20.3881C50.7709 21.244 51.2544 22.508 51.7922 24.1267C52.8682 27.3649 54.1601 32.0174 55.0161 37.6571L56.9934 37.357C56.1174 31.5856 54.7952 26.8216 53.6902 23.496C53.1376 21.8329 52.6388 20.5282 52.2766 19.6359C52.0955 19.1897 51.9485 18.8465 51.8458 18.6129C51.7945 18.4962 51.7543 18.4068 51.7265 18.3457C51.7125 18.3151 51.7017 18.2916 51.6941 18.2753C51.6904 18.2671 51.6874 18.2608 51.6853 18.2562C51.6842 18.2539 51.6833 18.2521 51.6827 18.2507C51.6824 18.25 51.6821 18.2494 51.6819 18.249C51.6818 18.2487 51.6816 18.2485 51.6816 18.2484C51.6815 18.2481 51.6814 18.2479 50.7767 18.674ZM55.0161 37.6571C55.7393 42.4222 55.1892 47.1647 54.4451 50.7399C54.0741 52.5224 53.6575 54.0025 53.3347 55.0341C53.1733 55.5496 53.0357 55.9524 52.9392 56.2241C52.8909 56.3599 52.853 56.463 52.8276 56.5309C52.8149 56.5648 52.8053 56.59 52.7991 56.6061C52.796 56.6141 52.7938 56.6199 52.7925 56.6234C52.7918 56.6251 52.7913 56.6263 52.7911 56.6269C52.791 56.6272 52.7909 56.6273 52.7909 56.6273L52.791 56.6272C52.791 56.627 52.7911 56.6269 53.7221 56.992C54.6531 57.357 54.6532 57.3568 54.6533 57.3565C54.6533 57.3563 54.6535 57.356 54.6536 57.3557C54.6538 57.3551 54.6541 57.3544 54.6544 57.3535C54.6551 57.3518 54.656 57.3494 54.6572 57.3465C54.6594 57.3406 54.6626 57.3324 54.6666 57.3219C54.6747 57.301 54.6861 57.2709 54.7007 57.2318C54.7299 57.1538 54.7717 57.0402 54.8238 56.8934C54.9281 56.5998 55.0739 56.173 55.2434 55.6314C55.5822 54.5488 56.0166 53.0047 56.4032 51.1474C57.1742 47.4429 57.7654 42.443 56.9934 37.357L55.0161 37.6571ZM0.927129 66.7984C0.341852 68.7436 0.881171 70.7159 1.97407 72.2411C3.06455 73.7629 4.76503 74.9301 6.67817 75.2687L7.02676 73.2993C5.6769 73.0604 4.41613 72.2154 3.59979 71.0762C2.78587 69.9403 2.47282 68.6027 2.84231 67.3747L0.927129 66.7984ZM61.5894 68.7589C61.983 70.7321 60.6095 72.6054 58.4667 73.0231L58.8494 74.9861C61.908 74.3899 64.1938 71.5913 63.5507 68.3676L61.5894 68.7589ZM14.815 20.7275C15.7496 21.6208 17.175 21.5475 18.0783 20.7866L16.7897 19.257C16.697 19.3351 16.5764 19.3774 16.4587 19.3774C16.3443 19.3773 16.2564 19.3386 16.1969 19.2817L14.815 20.7275ZM45.5408 19.7624C47.2421 20.9504 49.7855 21.0519 51.4057 19.4581L50.0031 18.0323C49.2058 18.8166 47.7649 18.8761 46.6857 18.1226L45.5408 19.7624ZM54.128 8.71108C55.7957 9.84875 55.9209 12.2109 54.3234 13.7824L55.726 15.2081C58.0601 12.9121 58.1432 9.02908 55.2551 7.05889L54.128 8.71108ZM9.47074 7.01593C6.54871 9.0008 6.65835 12.9313 9.04926 15.2166L10.4312 13.7708C8.79467 12.2066 8.90809 9.81591 10.5945 8.67034L9.47074 7.01593Z" fill="#DCE5EB"/>
</svg>
