<svg width="64" height="72" viewBox="0 0 64 72" fill="none" xmlns="http://www.w3.org/2000/svg">
<path d="M31.9997 38C31.9997 42 40.4997 45.5 40.4997 45.5M31.9997 38C31.9997 42 23.4997 45.5 23.4997 45.5M31.9997 38V32M40.4997 45.5C40.4997 45.5 45.7997 49.2 46.9997 52M40.4997 45.5C40.9997 45.1667 42.8997 44.5 46.4997 44.5M40.4997 45.5C40.4997 47.6667 40.9997 52.6 42.9997 55M35.9997 38V34.5497C35.9997 31.8195 38.6407 30.0257 40.939 31.4995C44.2507 33.623 48.2782 37.0439 51.4997 42C54.4399 46.5235 55.3593 51.7505 54.9997 56C54.6352 60.3075 49.6791 62.5038 45.5385 61.2616C40.7275 59.8184 36.7766 56.3521 36.2608 51.3559C36.1022 49.8192 35.9997 50.0378 35.9997 48M23.4997 45.5C23.4997 45.5 18.1997 49.2 16.9997 52M23.4997 45.5C22.9997 45.1667 21.0997 44.5 17.4997 44.5M23.4997 45.5C23.4997 47.6667 22.9997 52.6 20.9997 55M27.9997 38V34.5497C27.9997 31.8195 25.3586 30.0257 23.0603 31.4995C19.7486 33.623 15.7212 37.0439 12.4997 42C9.55941 46.5235 8.64007 51.7505 8.99967 56C9.36417 60.3075 14.3203 62.5038 18.4609 61.2616C23.2718 59.8184 27.2228 56.3521 27.7385 51.3559C27.8971 49.8192 27.9997 50.0378 27.9997 48M31.9997 32L30.9997 31V29L31.9997 28M31.9997 32L32.9997 31V29L31.9997 28M31.9997 28L30.9997 27V25L31.9997 24M31.9997 28L32.9997 27V25L31.9997 24M31.9997 24L30.9997 23V21L31.9997 20M31.9997 24L32.9997 23V21L31.9997 20M31.9997 20L30.9997 19V17L31.9997 16L32.9997 17V19L31.9997 20Z" stroke="#DCE5EB" stroke-width="2" stroke-linecap="round" stroke-linejoin="round"/>
<rect x="1" y="1" width="62" height="70" rx="4" stroke="#DCE5EB" stroke-width="2"/>
</svg>
