<svg width="73" height="64" viewBox="0 0 73 64" fill="none" xmlns="http://www.w3.org/2000/svg">
<path d="M37.7403 15.709C37.7403 23.9933 32.6269 31.9995 25.9995 31.9995C19.3721 31.9995 14.2586 23.9933 14.2586 15.709M37.7403 15.709C30.0146 13.9261 21.9844 13.9261 14.2586 15.709M37.7403 15.709C38.3647 15.8531 38.9495 15.35 38.9004 14.7111L38.2432 6.16957C38.0976 4.27647 36.757 2.68892 34.915 2.22841C29.0614 0.765008 22.9376 0.765008 17.0839 2.22841C15.2419 2.68892 13.9012 4.27647 13.7556 6.16957L13.0986 14.7111C13.0495 15.35 13.6343 15.8531 14.2586 15.709M25.9995 4.49951V7.69824M25.9995 7.69824V10.7579M25.9995 7.69824H29.1504M25.9995 7.69824H22.8486" stroke="#DCE5EB" stroke-width="2" stroke-linecap="round"/>
<path d="M14 30L14.6402 29.2318C14.3805 29.0154 14.029 28.9448 13.7059 29.0442L14 30ZM10.5 35L9.68077 34.4265C9.36809 34.8732 9.47087 35.488 9.91183 35.8087L10.5 35ZM24 53L23.251 53.6626C23.5531 54.0041 24.048 54.098 24.4542 53.8909C24.8604 53.6838 25.0751 53.2282 24.9762 52.7831L24 53ZM20 35L20.9762 34.7831C20.9282 34.5672 20.8101 34.3733 20.6402 34.2318L20 35ZM0 63C0 63.5523 0.447715 64 1 64C1.55228 64 2 63.5523 2 63H0ZM10 53.5V52.5C9.44771 52.5 9 52.9477 9 53.5H10ZM10 59.5H9C9 59.8788 9.214 60.225 9.55279 60.3944L10 59.5ZM14 61.5L13.5528 62.3944C13.8343 62.5352 14.1657 62.5352 14.4472 62.3944L14 61.5ZM18 59.5L18.4472 60.3944C18.786 60.225 19 59.8788 19 59.5H18ZM18 53.5H19C19 52.9477 18.5523 52.5 18 52.5V53.5ZM16 39L16.2747 39.9615C16.6424 39.8565 16.918 39.5509 16.9847 39.1744C17.0514 38.7978 16.8974 38.4162 16.5882 38.1913L16 39ZM12.5 40L12.2253 39.0385C11.8951 39.1328 11.6364 39.39 11.5401 39.7197C11.4438 40.0493 11.5235 40.4053 11.751 40.6626L12.5 40ZM13.1808 29.4265L9.68077 34.4265L11.3192 35.5735L14.8192 30.5735L13.1808 29.4265ZM24.9762 52.7831L20.9762 34.7831L19.0238 35.2169L23.0238 53.2169L24.9762 52.7831ZM20.6402 34.2318L14.6402 29.2318L13.3598 30.7682L19.3598 35.7682L20.6402 34.2318ZM14 30C13.7059 29.0442 13.7055 29.0444 13.705 29.0445C13.7047 29.0446 13.7042 29.0447 13.7037 29.0449C13.7028 29.0452 13.7017 29.0455 13.7004 29.0459C13.6977 29.0468 13.6943 29.0478 13.6901 29.0492C13.6817 29.0518 13.6702 29.0555 13.6557 29.0601C13.6267 29.0695 13.5857 29.0829 13.5334 29.1006C13.4289 29.136 13.2794 29.1883 13.0914 29.2586C12.7155 29.399 12.1844 29.6116 11.5497 29.9045C10.2828 30.4893 8.58925 31.4005 6.89029 32.7074C3.49077 35.3224 0 39.5852 0 46H2C2 40.4148 5.00923 36.6776 8.10971 34.2926C9.66075 33.0995 11.2172 32.2607 12.3878 31.7205C12.9718 31.4509 13.4563 31.2573 13.7914 31.1321C13.9588 31.0695 14.0887 31.0242 14.1746 30.9951C14.2176 30.9805 14.2495 30.9701 14.2697 30.9635C14.2798 30.9603 14.2869 30.958 14.291 30.9567C14.2931 30.9561 14.2944 30.9557 14.2949 30.9555C14.2951 30.9555 14.2952 30.9554 14.2951 30.9555C14.295 30.9555 14.2948 30.9556 14.2947 30.9556C14.2944 30.9557 14.2941 30.9558 14 30ZM0 46C0 46.0234 0 46.0468 0 46.0702C0 46.0936 0 46.117 0 46.1403C0 46.1636 0 46.1869 0 46.2102C0 46.2335 0 46.2567 0 46.28C0 46.3032 0 46.3264 0 46.3496C0 46.3727 0 46.3959 0 46.419C0 46.4421 0 46.4652 0 46.4883C0 46.5113 0 46.5344 0 46.5574C0 46.5804 0 46.6034 0 46.6263C0 46.6493 0 46.6722 0 46.6951C0 46.718 0 46.7409 0 46.7638C0 46.7866 0 46.8094 0 46.8322C0 46.855 0 46.8778 0 46.9006C0 46.9233 0 46.946 0 46.9687C0 46.9914 0 47.0141 0 47.0367C0 47.0594 0 47.082 0 47.1046C0 47.1271 0 47.1497 0 47.1722C0 47.1948 0 47.2173 0 47.2398C0 47.2622 0 47.2847 0 47.3071C0 47.3295 0 47.3519 0 47.3743C0 47.3967 0 47.4191 0 47.4414C0 47.4637 0 47.486 0 47.5083C0 47.5305 0 47.5528 0 47.575C0 47.5972 0 47.6194 0 47.6416C0 47.6637 0 47.6859 0 47.708C0 47.7301 0 47.7522 0 47.7742C0 47.7963 0 47.8183 0 47.8403C0 47.8623 0 47.8843 0 47.9063C0 47.9282 0 47.9502 0 47.9721C0 47.994 0 48.0158 0 48.0377C0 48.0595 0 48.0814 0 48.1031C0 48.1249 0 48.1467 0 48.1685C0 48.1902 0 48.2119 0 48.2336C0 48.2553 0 48.277 0 48.2986C0 48.3202 0 48.3419 0 48.3634C0 48.385 0 48.4066 0 48.4281C0 48.4497 0 48.4712 0 48.4926C0 48.5141 0 48.5356 0 48.557C0 48.5784 0 48.5998 0 48.6212C0 48.6426 0 48.664 0 48.6853C0 48.7066 0 48.7279 0 48.7492C0 48.7705 0 48.7917 0 48.8129C0 48.8341 0 48.8553 0 48.8765C0 48.8977 0 48.9188 0 48.9399C0 48.961 0 48.9821 0 49.0032C0 49.0243 0 49.0453 0 49.0663C0 49.0873 0 49.1083 0 49.1293C0 49.1502 0 49.1712 0 49.1921C0 49.213 0 49.2339 0 49.2547C0 49.2756 0 49.2964 0 49.3172C0 49.338 0 49.3588 0 49.3796C0 49.4003 0 49.421 0 49.4417C0 49.4624 0 49.4831 0 49.5038C0 49.5244 0 49.545 0 49.5656C0 49.5862 0 49.6068 0 49.6273C0 49.6479 0 49.6684 0 49.6889C0 49.7094 0 49.7299 0 49.7503C0 49.7707 0 49.7912 0 49.8115C0 49.8319 0 49.8523 0 49.8726C0 49.893 0 49.9133 0 49.9336C0 49.9539 0 49.9741 0 49.9944C0 50.0146 0 50.0348 0 50.055C0 50.0752 0 50.0953 0 50.1155C0 50.1356 0 50.1557 0 50.1758C0 50.1959 0 50.2159 0 50.2359C0 50.256 0 50.276 0 50.296C0 50.3159 0 50.3359 0 50.3558C0 50.3757 0 50.3956 0 50.4155C0 50.4354 0 50.4552 0 50.4751C0 50.4949 0 50.5147 0 50.5345C0 50.5542 0 50.574 0 50.5937C0 50.6134 0 50.6331 0 50.6528C0 50.6724 0 50.6921 0 50.7117C0 50.7313 0 50.7509 0 50.7705C0 50.7901 0 50.8096 0 50.8291C0 50.8486 0 50.8681 0 50.8876C0 50.907 0 50.9265 0 50.9459C0 50.9653 0 50.9847 0 51.0041C0 51.0234 0 51.0428 0 51.0621C0 51.0814 0 51.1007 0 51.1199C0 51.1392 0 51.1584 0 51.1776C0 51.1968 0 51.216 0 51.2352C0 51.2543 0 51.2735 0 51.2926C0 51.3117 0 51.3308 0 51.3498C0 51.3689 0 51.3879 0 51.4069C0 51.4259 0 51.4449 0 51.4639C0 51.4828 0 51.5018 0 51.5207C0 51.5396 0 51.5584 0 51.5773C0 51.5961 0 51.615 0 51.6338C0 51.6526 0 51.6714 0 51.6901C0 51.7089 0 51.7276 0 51.7463C0 51.765 0 51.7837 0 51.8023C0 51.821 0 51.8396 0 51.8582C0 51.8768 0 51.8954 0 51.9139C0 51.9325 0 51.951 0 51.9695C0 51.988 0 52.0065 0 52.0249C0 52.0434 0 52.0618 0 52.0802C0 52.0986 0 52.1169 0 52.1353C0 52.1536 0 52.172 0 52.1903C0 52.2085 0 52.2268 0 52.2451C0 52.2633 0 52.2815 0 52.2997C0 52.3179 0 52.3361 0 52.3542C0 52.3724 0 52.3905 0 52.4086C0 52.4267 0 52.4448 0 52.4628C0 52.4809 0 52.4989 0 52.5169C0 52.5349 0 52.5528 0 52.5708C0 52.5887 0 52.6066 0 52.6245C0 52.6424 0 52.6603 0 52.6781C0 52.696 0 52.7138 0 52.7316C0 52.7494 0 52.7672 0 52.7849C0 52.8026 0 52.8204 0 52.838C0 52.8557 0 52.8734 0 52.8911C0 52.9087 0 52.9263 0 52.9439C0 52.9615 0 52.9791 0 52.9966C0 53.0142 0 53.0317 0 53.0492C0 53.0667 0 53.0841 0 53.1016C0 53.119 0 53.1364 0 53.1538C0 53.1712 0 53.1886 0 53.2059C0 53.2233 0 53.2406 0 53.2579C0 53.2752 0 53.2924 0 53.3097C0 53.3269 0 53.3441 0 53.3613C0 53.3785 0 53.3957 0 53.4128C0 53.43 0 53.4471 0 53.4642C0 53.4813 0 53.4984 0 53.5154C0 53.5325 0 53.5495 0 53.5665C0 53.5835 0 53.6004 0 53.6174C0 53.6343 0 53.6512 0 53.6681C0 53.685 0 53.7019 0 53.7188C0 53.7356 0 53.7524 0 53.7692C0 53.786 0 53.8028 0 53.8195C0 53.8363 0 53.853 0 53.8697C0 53.8864 0 53.9031 0 53.9197C0 53.9364 0 53.953 0 53.9696C0 53.9862 0 54.0027 0 54.0193C0 54.0358 0 54.0524 0 54.0689C0 54.0854 0 54.1018 0 54.1183C0 54.1347 0 54.1512 0 54.1676C0 54.184 0 54.2003 0 54.2167C0 54.233 0 54.2494 0 54.2657C0 54.282 0 54.2983 0 54.3145C0 54.3308 0 54.347 0 54.3632C0 54.3794 0 54.3956 0 54.4117C0 54.4279 0 54.444 0 54.4601C0 54.4762 0 54.4923 0 54.5084C0 54.5244 0 54.5404 0 54.5565C0 54.5725 0 54.5884 0 54.6044C0 54.6204 0 54.6363 0 54.6522C0 54.6681 0 54.684 0 54.6999C0 54.7157 0 54.7316 0 54.7474C0 54.7632 0 54.779 0 54.7947C0 54.8105 0 54.8262 0 54.8419C0 54.8576 0 54.8733 0 54.889C0 54.9047 0 54.9203 0 54.9359C0 54.9515 0 54.9671 0 54.9827C0 54.9983 0 55.0138 0 55.0293C0 55.0448 0 55.0603 0 55.0758C0 55.0913 0 55.1067 0 55.1221C0 55.1376 0 55.1529 0 55.1683C0 55.1837 0 55.199 0 55.2144C0 55.2297 0 55.245 0 55.2603C0 55.2755 0 55.2908 0 55.306C0 55.3212 0 55.3364 0 55.3516C0 55.3668 0 55.3819 0 55.3971C0 55.4122 0 55.4273 0 55.4424C0 55.4575 0 55.4725 0 55.4875C0 55.5026 0 55.5176 0 55.5326C0 55.5475 0 55.5625 0 55.5774C0 55.5924 0 55.6073 0 55.6222C0 55.6371 0 55.6519 0 55.6668C0 55.6816 0 55.6964 0 55.7112C0 55.726 0 55.7407 0 55.7555C0 55.7702 0 55.7849 0 55.7996C0 55.8143 0 55.829 0 55.8436C0 55.8583 0 55.8729 0 55.8875C0 55.9021 0 55.9167 0 55.9312C0 55.9458 0 55.9603 0 55.9748C0 55.9893 0 56.0038 0 56.0182C0 56.0327 0 56.0471 0 56.0615C0 56.0759 0 56.0903 0 56.1046C0 56.119 0 56.1333 0 56.1476C0 56.1619 0 56.1762 0 56.1905C0 56.2047 0 56.219 0 56.2332C0 56.2474 0 56.2616 0 56.2758C0 56.2899 0 56.3041 0 56.3182C0 56.3323 0 56.3464 0 56.3604C0 56.3745 0 56.3886 0 56.4026C0 56.4166 0 56.4306 0 56.4446C0 56.4585 0 56.4725 0 56.4864C0 56.5003 0 56.5142 0 56.5281C0 56.542 0 56.5558 0 56.5697C0 56.5835 0 56.5973 0 56.6111C0 56.6249 0 56.6386 0 56.6523C0 56.6661 0 56.6798 0 56.6935C0 56.7072 0 56.7208 0 56.7345C0 56.7481 0 56.7617 0 56.7753C0 56.7889 0 56.8025 0 56.816C0 56.8295 0 56.8431 0 56.8566C0 56.87 0 56.8835 0 56.897C0 56.9104 0 56.9238 0 56.9372C0 56.9506 0 56.964 0 56.9774C0 56.9907 0 57.004 0 57.0173C0 57.0307 0 57.0439 0 57.0572C0 57.0705 0 57.0837 0 57.0969C0 57.1101 0 57.1233 0 57.1365C0 57.1496 0 57.1628 0 57.1759C0 57.189 0 57.2021 0 57.2151C0 57.2282 0 57.2413 0 57.2543C0 57.2673 0 57.2803 0 57.2933C0 57.3062 0 57.3192 0 57.3321C0 57.3451 0 57.358 0 57.3708C0 57.3837 0 57.3966 0 57.4094C0 57.4222 0 57.435 0 57.4478C0 57.4606 0 57.4734 0 57.4861C0 57.4988 0 57.5116 0 57.5243C0 57.5369 0 57.5496 0 57.5623C0 57.5749 0 57.5875 0 57.6001C0 57.6127 0 57.6253 0 57.6378C0 57.6504 0 57.6629 0 57.6754C0 57.6879 0 57.7004 0 57.7129C0 57.7253 0 57.7377 0 57.7502C0 57.7626 0 57.775 0 57.7873C0 57.7997 0 57.812 0 57.8243C0 57.8367 0 57.8489 0 57.8612C0 57.8735 0 57.8857 0 57.8979C0 57.9102 0 57.9224 0 57.9345C0 57.9467 0 57.9589 0 57.971C0 57.9831 0 57.9952 0 58.0073C0 58.0194 0 58.0315 0 58.0435C0 58.0555 0 58.0675 0 58.0795C0 58.0915 0 58.1035 0 58.1154C0 58.1274 0 58.1393 0 58.1512C0 58.1631 0 58.175 0 58.1868C0 58.1987 0 58.2105 0 58.2223C0 58.2341 0 58.2459 0 58.2576C0 58.2694 0 58.2811 0 58.2928C0 58.3045 0 58.3162 0 58.3279C0 58.3395 0 58.3512 0 58.3628C0 58.3744 0 58.386 0 58.3976C0 58.4092 0 58.4207 0 58.4322C0 58.4438 0 58.4553 0 58.4667C0 58.4782 0 58.4897 0 58.5011C0 58.5125 0 58.5239 0 58.5353C0 58.5467 0 58.5581 0 58.5694C0 58.5808 0 58.5921 0 58.6034C0 58.6147 0 58.6259 0 58.6372C0 58.6484 0 58.6597 0 58.6709C0 58.6821 0 58.6932 0 58.7044C0 58.7155 0 58.7267 0 58.7378C0 58.7489 0 58.76 0 58.771C0 58.7821 0 58.7931 0 58.8042C0 58.8152 0 58.8262 0 58.8371C0 58.8481 0 58.8591 0 58.87C0 58.8809 0 58.8918 0 58.9027C0 58.9136 0 58.9244 0 58.9353C0 58.9461 0 58.9569 0 58.9677C0 58.9785 0 58.9893 0 59C0 59.0107 0 59.0215 0 59.0322C0 59.0429 0 59.0535 0 59.0642C0 59.0748 0 59.0855 0 59.0961C0 59.1067 0 59.1172 0 59.1278C0 59.1384 0 59.1489 0 59.1594C0 59.1699 0 59.1804 0 59.1909C0 59.2014 0 59.2118 0 59.2222C0 59.2326 0 59.243 0 59.2534C0 59.2638 0 59.2742 0 59.2845C0 59.2948 0 59.3051 0 59.3154C0 59.3257 0 59.336 0 59.3462C0 59.3564 0 59.3667 0 59.3769C0 59.3871 0 59.3972 0 59.4074C0 59.4175 0 59.4277 0 59.4378C0 59.4479 0 59.4579 0 59.468C0 59.4781 0 59.4881 0 59.4981C0 59.5081 0 59.5181 0 59.5281C0 59.538 0 59.548 0 59.5579C0 59.5678 0 59.5777 0 59.5876C0 59.5975 0 59.6074 0 59.6172C0 59.627 0 59.6368 0 59.6466C0 59.6564 0 59.6662 0 59.6759C0 59.6857 0 59.6954 0 59.7051C0 59.7148 0 59.7244 0 59.7341C0 59.7437 0 59.7534 0 59.763C0 59.7726 0 59.7822 0 59.7917C0 59.8013 0 59.8108 0 59.8204C0 59.8299 0 59.8394 0 59.8488C0 59.8583 0 59.8678 0 59.8772C0 59.8866 0 59.896 0 59.9054C0 59.9148 0 59.9241 0 59.9335C0 59.9428 0 59.9521 0 59.9614C0 59.9707 0 59.98 0 59.9892C0 59.9985 0 60.0077 0 60.0169C0 60.0261 0 60.0353 0 60.0445C0 60.0536 0 60.0627 0 60.0719C0 60.081 0 60.0901 0 60.0991C0 60.1082 0 60.1173 0 60.1263C0 60.1353 0 60.1443 0 60.1533C0 60.1623 0 60.1712 0 60.1802C0 60.1891 0 60.198 0 60.2069C0 60.2158 0 60.2246 0 60.2335C0 60.2423 0 60.2512 0 60.26C0 60.2688 0 60.2775 0 60.2863C0 60.2951 0 60.3038 0 60.3125C0 60.3212 0 60.3299 0 60.3386C0 60.3472 0 60.3559 0 60.3645C0 60.3731 0 60.3817 0 60.3903C0 60.3989 0 60.4075 0 60.416C0 60.4245 0 60.433 0 60.4415C0 60.45 0 60.4585 0 60.4669C0 60.4754 0 60.4838 0 60.4922C0 60.5006 0 60.509 0 60.5173C0 60.5257 0 60.534 0 60.5424C0 60.5507 0 60.559 0 60.5672C0 60.5755 0 60.5837 0 60.592C0 60.6002 0 60.6084 0 60.6166C0 60.6248 0 60.6329 0 60.6411C0 60.6492 0 60.6573 0 60.6654C0 60.6735 0 60.6816 0 60.6896C0 60.6977 0 60.7057 0 60.7137C0 60.7217 0 60.7297 0 60.7377C0 60.7456 0 60.7536 0 60.7615C0 60.7694 0 60.7773 0 60.7852C0 60.793 0 60.8009 0 60.8087C0 60.8165 0 60.8243 0 60.8321C0 60.8399 0 60.8477 0 60.8554C0 60.8632 0 60.8709 0 60.8786C0 60.8863 0 60.894 0 60.9016C0 60.9093 0 60.9169 0 60.9245C0 60.9321 0 60.9397 0 60.9473C0 60.9548 0 60.9624 0 60.9699C0 60.9774 0 60.9849 0 60.9924C0 60.9999 0 61.0074 0 61.0148C0 61.0222 0 61.0296 0 61.037C0 61.0444 0 61.0518 0 61.0592C0 61.0665 0 61.0738 0 61.0811C0 61.0884 0 61.0957 0 61.103C0 61.1103 0 61.1175 0 61.1247C0 61.1319 0 61.1391 0 61.1463C0 61.1535 0 61.1606 0 61.1678C0 61.1749 0 61.182 0 61.1891C0 61.1962 0 61.2032 0 61.2103C0 61.2173 0 61.2244 0 61.2314C0 61.2384 0 61.2453 0 61.2523C0 61.2593 0 61.2662 0 61.2731C0 61.28 0 61.2869 0 61.2938C0 61.3007 0 61.3075 0 61.3144C0 61.3212 0 61.328 0 61.3348C0 61.3416 0 61.3483 0 61.3551C0 61.3618 0 61.3685 0 61.3752C0 61.3819 0 61.3886 0 61.3953C0 61.4019 0 61.4086 0 61.4152C0 61.4218 0 61.4284 0 61.435C0 61.4415 0 61.4481 0 61.4546C0 61.4611 0 61.4676 0 61.4741C0 61.4806 0 61.4871 0 61.4935C0 61.5 0 61.5064 0 61.5128C0 61.5192 0 61.5256 0 61.5319C0 61.5383 0 61.5446 0 61.5509C0 61.5572 0 61.5635 0 61.5698C0 61.5761 0 61.5823 0 61.5885C0 61.5948 0 61.601 0 61.6072C0 61.6133 0 61.6195 0 61.6256C0 61.6318 0 61.6379 0 61.644C0 61.6501 0 61.6562 0 61.6622C0 61.6683 0 61.6743 0 61.6804C0 61.6864 0 61.6924 0 61.6983C0 61.7043 0 61.7103 0 61.7162C0 61.7221 0 61.728 0 61.7339C0 61.7398 0 61.7457 0 61.7515C0 61.7574 0 61.7632 0 61.769C0 61.7748 0 61.7806 0 61.7863C0 61.7921 0 61.7978 0 61.8035C0 61.8093 0 61.815 0 61.8206C0 61.8263 0 61.832 0 61.8376C0 61.8432 0 61.8488 0 61.8544C0 61.86 0 61.8656 0 61.8711C0 61.8767 0 61.8822 0 61.8877C0 61.8932 0 61.8987 0 61.9042C0 61.9096 0 61.9151 0 61.9205C0 61.9259 0 61.9313 0 61.9367C0 61.9421 0 61.9474 0 61.9528C0 61.9581 0 61.9634 0 61.9687C0 61.974 0 61.9793 0 61.9845C0 61.9898 0 61.995 0 62.0002C0 62.0054 0 62.0106 0 62.0158C0 62.021 0 62.0261 0 62.0312C0 62.0364 0 62.0415 0 62.0466C0 62.0517 0 62.0567 0 62.0618C0 62.0668 0 62.0718 0 62.0768C0 62.0818 0 62.0868 0 62.0918C0 62.0967 0 62.1017 0 62.1066C0 62.1115 0 62.1164 0 62.1213C0 62.1261 0 62.131 0 62.1358C0 62.1407 0 62.1455 0 62.1503C0 62.1551 0 62.1598 0 62.1646C0 62.1693 0 62.1741 0 62.1788C0 62.1835 0 62.1882 0 62.1928C0 62.1975 0 62.2022 0 62.2068C0 62.2114 0 62.216 0 62.2206C0 62.2252 0 62.2297 0 62.2343C0 62.2388 0 62.2434 0 62.2479C0 62.2524 0 62.2568 0 62.2613C0 62.2658 0 62.2702 0 62.2746C0 62.279 0 62.2834 0 62.2878C0 62.2922 0 62.2965 0 62.3009C0 62.3052 0 62.3095 0 62.3138C0 62.3181 0 62.3224 0 62.3266C0 62.3309 0 62.3351 0 62.3393C0 62.3435 0 62.3477 0 62.3519C0 62.3561 0 62.3602 0 62.3643C0 62.3685 0 62.3726 0 62.3767C0 62.3808 0 62.3848 0 62.3889C0 62.3929 0 62.3969 0 62.4009C0 62.4049 0 62.4089 0 62.4129C0 62.4169 0 62.4208 0 62.4247C0 62.4286 0 62.4325 0 62.4364C0 62.4403 0 62.4442 0 62.448C0 62.4519 0 62.4557 0 62.4595C0 62.4633 0 62.4671 0 62.4708C0 62.4746 0 62.4783 0 62.482C0 62.4857 0 62.4894 0 62.4931C0 62.4968 0 62.5004 0 62.5041C0 62.5077 0 62.5113 0 62.5149C0 62.5185 0 62.5221 0 62.5257C0 62.5292 0 62.5327 0 62.5363C0 62.5398 0 62.5433 0 62.5467C0 62.5502 0 62.5537 0 62.5571C0 62.5605 0 62.5639 0 62.5673C0 62.5707 0 62.5741 0 62.5774C0 62.5808 0 62.5841 0 62.5874C0 62.5907 0 62.594 0 62.5973C0 62.6006 0 62.6038 0 62.607C0 62.6103 0 62.6135 0 62.6167C0 62.6198 0 62.623 0 62.6262C0 62.6293 0 62.6324 0 62.6355C0 62.6386 0 62.6417 0 62.6448C0 62.6479 0 62.6509 0 62.6539C0 62.657 0 62.66 0 62.663C0 62.6659 0 62.6689 0 62.6718C0 62.6748 0 62.6777 0 62.6806C0 62.6835 0 62.6864 0 62.6893C0 62.6921 0 62.695 0 62.6978C0 62.7006 0 62.7034 0 62.7062C0 62.709 0 62.7118 0 62.7145C0 62.7173 0 62.72 0 62.7227C0 62.7254 0 62.7281 0 62.7307C0 62.7334 0 62.736 0 62.7387C0 62.7413 0 62.7439 0 62.7465C0 62.749 0 62.7516 0 62.7542C0 62.7567 0 62.7592 0 62.7617C0 62.7642 0 62.7667 0 62.7692C0 62.7716 0 62.7741 0 62.7765C0 62.7789 0 62.7813 0 62.7837C0 62.7861 0 62.7884 0 62.7908C0 62.7931 0 62.7955 0 62.7978C0 62.8001 0 62.8023 0 62.8046C0 62.8069 0 62.8091 0 62.8113C0 62.8136 0 62.8158 0 62.8179C0 62.8201 0 62.8223 0 62.8244C0 62.8266 0 62.8287 0 62.8308C0 62.8329 0 62.835 0 62.837C0 62.8391 0 62.8412 0 62.8432C0 62.8452 0 62.8472 0 62.8492C0 62.8512 0 62.8531 0 62.8551C0 62.857 0 62.859 0 62.8609C0 62.8628 0 62.8647 0 62.8665C0 62.8684 0 62.8702 0 62.8721C0 62.8739 0 62.8757 0 62.8775C0 62.8793 0 62.881 0 62.8828C0 62.8845 0 62.8862 0 62.888C0 62.8897 0 62.8913 0 62.893C0 62.8947 0 62.8963 0 62.898C0 62.8996 0 62.9012 0 62.9028C0 62.9044 0 62.9059 0 62.9075C0 62.909 0 62.9106 0 62.9121C0 62.9136 0 62.9151 0 62.9166C0 62.918 0 62.9195 0 62.9209C0 62.9223 0 62.9238 0 62.9251C0 62.9265 0 62.9279 0 62.9293C0 62.9306 0 62.932 0 62.9333C0 62.9346 0 62.9359 0 62.9372C0 62.9384 0 62.9397 0 62.9409C0 62.9422 0 62.9434 0 62.9446C0 62.9458 0 62.9469 0 62.9481C0 62.9493 0 62.9504 0 62.9515C0 62.9526 0 62.9537 0 62.9548C0 62.9559 0 62.957 0 62.958C0 62.959 0 62.9601 0 62.9611C0 62.9621 0 62.963 0 62.964C0 62.965 0 62.9659 0 62.9668C0 62.9678 0 62.9687 0 62.9695C0 62.9704 0 62.9713 0 62.9721C0 62.973 0 62.9738 0 62.9746C0 62.9754 0 62.9762 0 62.977C0 62.9778 0 62.9785 0 62.9792C0 62.98 0 62.9807 0 62.9814C0 62.9821 0 62.9827 0 62.9834C0 62.984 0 62.9847 0 62.9853C0 62.9859 0 62.9865 0 62.9871C0 62.9877 0 62.9882 0 62.9887C0 62.9893 0 62.9898 0 62.9903C0 62.9908 0 62.9913 0 62.9917C0 62.9922 0 62.9926 0 62.9931C0 62.9935 0 62.9939 0 62.9943C0 62.9946 0 62.995 0 62.9954C0 62.9957 0 62.996 0 62.9963C0 62.9966 0 62.9969 0 62.9972C0 62.9975 0 62.9977 0 62.9979C0 62.9982 0 62.9984 0 62.9986C0 62.9988 0 62.9989 0 62.9991C0 62.9992 0 62.9994 0 62.9995C0 62.9996 0 62.9997 0 62.9998C0 62.9998 0 62.9999 0 62.9999C0 63 0 63 1 63C2 63 2 63 2 62.9999C2 62.9999 2 62.9998 2 62.9998C2 62.9997 2 62.9996 2 62.9995C2 62.9994 2 62.9992 2 62.9991C2 62.9989 2 62.9988 2 62.9986C2 62.9984 2 62.9982 2 62.9979C2 62.9977 2 62.9975 2 62.9972C2 62.9969 2 62.9966 2 62.9963C2 62.996 2 62.9957 2 62.9954C2 62.995 2 62.9946 2 62.9943C2 62.9939 2 62.9935 2 62.9931C2 62.9926 2 62.9922 2 62.9917C2 62.9913 2 62.9908 2 62.9903C2 62.9898 2 62.9893 2 62.9887C2 62.9882 2 62.9877 2 62.9871C2 62.9865 2 62.9859 2 62.9853C2 62.9847 2 62.984 2 62.9834C2 62.9827 2 62.9821 2 62.9814C2 62.9807 2 62.98 2 62.9792C2 62.9785 2 62.9778 2 62.977C2 62.9762 2 62.9754 2 62.9746C2 62.9738 2 62.973 2 62.9721C2 62.9713 2 62.9704 2 62.9695C2 62.9687 2 62.9678 2 62.9668C2 62.9659 2 62.965 2 62.964C2 62.963 2 62.9621 2 62.9611C2 62.9601 2 62.959 2 62.958C2 62.957 2 62.9559 2 62.9548C2 62.9537 2 62.9526 2 62.9515C2 62.9504 2 62.9493 2 62.9481C2 62.9469 2 62.9458 2 62.9446C2 62.9434 2 62.9422 2 62.9409C2 62.9397 2 62.9384 2 62.9372C2 62.9359 2 62.9346 2 62.9333C2 62.932 2 62.9306 2 62.9293C2 62.9279 2 62.9265 2 62.9251C2 62.9238 2 62.9223 2 62.9209C2 62.9195 2 62.918 2 62.9166C2 62.9151 2 62.9136 2 62.9121C2 62.9106 2 62.909 2 62.9075C2 62.9059 2 62.9044 2 62.9028C2 62.9012 2 62.8996 2 62.898C2 62.8963 2 62.8947 2 62.893C2 62.8913 2 62.8897 2 62.888C2 62.8862 2 62.8845 2 62.8828C2 62.881 2 62.8793 2 62.8775C2 62.8757 2 62.8739 2 62.8721C2 62.8702 2 62.8684 2 62.8665C2 62.8647 2 62.8628 2 62.8609C2 62.859 2 62.857 2 62.8551C2 62.8531 2 62.8512 2 62.8492C2 62.8472 2 62.8452 2 62.8432C2 62.8412 2 62.8391 2 62.837C2 62.835 2 62.8329 2 62.8308C2 62.8287 2 62.8266 2 62.8244C2 62.8223 2 62.8201 2 62.8179C2 62.8158 2 62.8136 2 62.8113C2 62.8091 2 62.8069 2 62.8046C2 62.8023 2 62.8001 2 62.7978C2 62.7955 2 62.7931 2 62.7908C2 62.7884 2 62.7861 2 62.7837C2 62.7813 2 62.7789 2 62.7765C2 62.7741 2 62.7716 2 62.7692C2 62.7667 2 62.7642 2 62.7617C2 62.7592 2 62.7567 2 62.7542C2 62.7516 2 62.749 2 62.7465C2 62.7439 2 62.7413 2 62.7387C2 62.736 2 62.7334 2 62.7307C2 62.7281 2 62.7254 2 62.7227C2 62.72 2 62.7173 2 62.7145C2 62.7118 2 62.709 2 62.7062C2 62.7034 2 62.7006 2 62.6978C2 62.695 2 62.6921 2 62.6893C2 62.6864 2 62.6835 2 62.6806C2 62.6777 2 62.6748 2 62.6718C2 62.6689 2 62.6659 2 62.663C2 62.66 2 62.657 2 62.6539C2 62.6509 2 62.6479 2 62.6448C2 62.6417 2 62.6386 2 62.6355C2 62.6324 2 62.6293 2 62.6262C2 62.623 2 62.6198 2 62.6167C2 62.6135 2 62.6103 2 62.607C2 62.6038 2 62.6006 2 62.5973C2 62.594 2 62.5907 2 62.5874C2 62.5841 2 62.5808 2 62.5774C2 62.5741 2 62.5707 2 62.5673C2 62.5639 2 62.5605 2 62.5571C2 62.5537 2 62.5502 2 62.5467C2 62.5433 2 62.5398 2 62.5363C2 62.5327 2 62.5292 2 62.5257C2 62.5221 2 62.5185 2 62.5149C2 62.5113 2 62.5077 2 62.5041C2 62.5004 2 62.4968 2 62.4931C2 62.4894 2 62.4857 2 62.482C2 62.4783 2 62.4746 2 62.4708C2 62.4671 2 62.4633 2 62.4595C2 62.4557 2 62.4519 2 62.448C2 62.4442 2 62.4403 2 62.4364C2 62.4325 2 62.4286 2 62.4247C2 62.4208 2 62.4169 2 62.4129C2 62.4089 2 62.4049 2 62.4009C2 62.3969 2 62.3929 2 62.3889C2 62.3848 2 62.3808 2 62.3767C2 62.3726 2 62.3685 2 62.3643C2 62.3602 2 62.3561 2 62.3519C2 62.3477 2 62.3435 2 62.3393C2 62.3351 2 62.3309 2 62.3266C2 62.3224 2 62.3181 2 62.3138C2 62.3095 2 62.3052 2 62.3009C2 62.2965 2 62.2922 2 62.2878C2 62.2834 2 62.279 2 62.2746C2 62.2702 2 62.2658 2 62.2613C2 62.2568 2 62.2524 2 62.2479C2 62.2434 2 62.2388 2 62.2343C2 62.2297 2 62.2252 2 62.2206C2 62.216 2 62.2114 2 62.2068C2 62.2022 2 62.1975 2 62.1928C2 62.1882 2 62.1835 2 62.1788C2 62.1741 2 62.1693 2 62.1646C2 62.1598 2 62.1551 2 62.1503C2 62.1455 2 62.1407 2 62.1358C2 62.131 2 62.1261 2 62.1213C2 62.1164 2 62.1115 2 62.1066C2 62.1017 2 62.0967 2 62.0918C2 62.0868 2 62.0818 2 62.0768C2 62.0718 2 62.0668 2 62.0618C2 62.0567 2 62.0517 2 62.0466C2 62.0415 2 62.0364 2 62.0312C2 62.0261 2 62.021 2 62.0158C2 62.0106 2 62.0054 2 62.0002C2 61.995 2 61.9898 2 61.9845C2 61.9793 2 61.974 2 61.9687C2 61.9634 2 61.9581 2 61.9528C2 61.9474 2 61.9421 2 61.9367C2 61.9313 2 61.9259 2 61.9205C2 61.9151 2 61.9096 2 61.9042C2 61.8987 2 61.8932 2 61.8877C2 61.8822 2 61.8767 2 61.8711C2 61.8656 2 61.86 2 61.8544C2 61.8488 2 61.8432 2 61.8376C2 61.832 2 61.8263 2 61.8206C2 61.815 2 61.8093 2 61.8035C2 61.7978 2 61.7921 2 61.7863C2 61.7806 2 61.7748 2 61.769C2 61.7632 2 61.7574 2 61.7515C2 61.7457 2 61.7398 2 61.7339C2 61.728 2 61.7221 2 61.7162C2 61.7103 2 61.7043 2 61.6983C2 61.6924 2 61.6864 2 61.6804C2 61.6743 2 61.6683 2 61.6622C2 61.6562 2 61.6501 2 61.644C2 61.6379 2 61.6318 2 61.6256C2 61.6195 2 61.6133 2 61.6072C2 61.601 2 61.5948 2 61.5885C2 61.5823 2 61.5761 2 61.5698C2 61.5635 2 61.5572 2 61.5509C2 61.5446 2 61.5383 2 61.5319C2 61.5256 2 61.5192 2 61.5128C2 61.5064 2 61.5 2 61.4935C2 61.4871 2 61.4806 2 61.4741C2 61.4676 2 61.4611 2 61.4546C2 61.4481 2 61.4415 2 61.435C2 61.4284 2 61.4218 2 61.4152C2 61.4086 2 61.4019 2 61.3953C2 61.3886 2 61.3819 2 61.3752C2 61.3685 2 61.3618 2 61.3551C2 61.3483 2 61.3416 2 61.3348C2 61.328 2 61.3212 2 61.3144C2 61.3075 2 61.3007 2 61.2938C2 61.2869 2 61.28 2 61.2731C2 61.2662 2 61.2593 2 61.2523C2 61.2453 2 61.2384 2 61.2314C2 61.2244 2 61.2173 2 61.2103C2 61.2032 2 61.1962 2 61.1891C2 61.182 2 61.1749 2 61.1678C2 61.1606 2 61.1535 2 61.1463C2 61.1391 2 61.1319 2 61.1247C2 61.1175 2 61.1103 2 61.103C2 61.0957 2 61.0884 2 61.0811C2 61.0738 2 61.0665 2 61.0592C2 61.0518 2 61.0444 2 61.037C2 61.0296 2 61.0222 2 61.0148C2 61.0074 2 60.9999 2 60.9924C2 60.9849 2 60.9774 2 60.9699C2 60.9624 2 60.9548 2 60.9473C2 60.9397 2 60.9321 2 60.9245C2 60.9169 2 60.9093 2 60.9016C2 60.894 2 60.8863 2 60.8786C2 60.8709 2 60.8632 2 60.8554C2 60.8477 2 60.8399 2 60.8321C2 60.8243 2 60.8165 2 60.8087C2 60.8009 2 60.793 2 60.7852C2 60.7773 2 60.7694 2 60.7615C2 60.7536 2 60.7456 2 60.7377C2 60.7297 2 60.7217 2 60.7137C2 60.7057 2 60.6977 2 60.6896C2 60.6816 2 60.6735 2 60.6654C2 60.6573 2 60.6492 2 60.6411C2 60.6329 2 60.6248 2 60.6166C2 60.6084 2 60.6002 2 60.592C2 60.5837 2 60.5755 2 60.5672C2 60.559 2 60.5507 2 60.5424C2 60.534 2 60.5257 2 60.5173C2 60.509 2 60.5006 2 60.4922C2 60.4838 2 60.4754 2 60.4669C2 60.4585 2 60.45 2 60.4415C2 60.433 2 60.4245 2 60.416C2 60.4075 2 60.3989 2 60.3903C2 60.3817 2 60.3731 2 60.3645C2 60.3559 2 60.3472 2 60.3386C2 60.3299 2 60.3212 2 60.3125C2 60.3038 2 60.2951 2 60.2863C2 60.2775 2 60.2688 2 60.26C2 60.2512 2 60.2423 2 60.2335C2 60.2246 2 60.2158 2 60.2069C2 60.198 2 60.1891 2 60.1802C2 60.1712 2 60.1623 2 60.1533C2 60.1443 2 60.1353 2 60.1263C2 60.1173 2 60.1082 2 60.0991C2 60.0901 2 60.081 2 60.0719C2 60.0627 2 60.0536 2 60.0445C2 60.0353 2 60.0261 2 60.0169C2 60.0077 2 59.9985 2 59.9892C2 59.98 2 59.9707 2 59.9614C2 59.9521 2 59.9428 2 59.9335C2 59.9241 2 59.9148 2 59.9054C2 59.896 2 59.8866 2 59.8772C2 59.8678 2 59.8583 2 59.8488C2 59.8394 2 59.8299 2 59.8204C2 59.8108 2 59.8013 2 59.7917C2 59.7822 2 59.7726 2 59.763C2 59.7534 2 59.7437 2 59.7341C2 59.7244 2 59.7148 2 59.7051C2 59.6954 2 59.6857 2 59.6759C2 59.6662 2 59.6564 2 59.6466C2 59.6368 2 59.627 2 59.6172C2 59.6074 2 59.5975 2 59.5876C2 59.5777 2 59.5678 2 59.5579C2 59.548 2 59.538 2 59.5281C2 59.5181 2 59.5081 2 59.4981C2 59.4881 2 59.4781 2 59.468C2 59.4579 2 59.4479 2 59.4378C2 59.4277 2 59.4175 2 59.4074C2 59.3972 2 59.3871 2 59.3769C2 59.3667 2 59.3564 2 59.3462C2 59.336 2 59.3257 2 59.3154C2 59.3051 2 59.2948 2 59.2845C2 59.2742 2 59.2638 2 59.2534C2 59.243 2 59.2326 2 59.2222C2 59.2118 2 59.2014 2 59.1909C2 59.1804 2 59.1699 2 59.1594C2 59.1489 2 59.1384 2 59.1278C2 59.1172 2 59.1067 2 59.0961C2 59.0855 2 59.0748 2 59.0642C2 59.0535 2 59.0429 2 59.0322C2 59.0215 2 59.0107 2 59C2 58.9893 2 58.9785 2 58.9677C2 58.9569 2 58.9461 2 58.9353C2 58.9244 2 58.9136 2 58.9027C2 58.8918 2 58.8809 2 58.87C2 58.8591 2 58.8481 2 58.8371C2 58.8262 2 58.8152 2 58.8042C2 58.7931 2 58.7821 2 58.771C2 58.76 2 58.7489 2 58.7378C2 58.7267 2 58.7155 2 58.7044C2 58.6932 2 58.6821 2 58.6709C2 58.6597 2 58.6484 2 58.6372C2 58.6259 2 58.6147 2 58.6034C2 58.5921 2 58.5808 2 58.5694C2 58.5581 2 58.5467 2 58.5353C2 58.5239 2 58.5125 2 58.5011C2 58.4897 2 58.4782 2 58.4667C2 58.4553 2 58.4438 2 58.4322C2 58.4207 2 58.4092 2 58.3976C2 58.386 2 58.3744 2 58.3628C2 58.3512 2 58.3395 2 58.3279C2 58.3162 2 58.3045 2 58.2928C2 58.2811 2 58.2694 2 58.2576C2 58.2459 2 58.2341 2 58.2223C2 58.2105 2 58.1987 2 58.1868C2 58.175 2 58.1631 2 58.1512C2 58.1393 2 58.1274 2 58.1154C2 58.1035 2 58.0915 2 58.0795C2 58.0675 2 58.0555 2 58.0435C2 58.0315 2 58.0194 2 58.0073C2 57.9952 2 57.9831 2 57.971C2 57.9589 2 57.9467 2 57.9345C2 57.9224 2 57.9102 2 57.8979C2 57.8857 2 57.8735 2 57.8612C2 57.8489 2 57.8367 2 57.8243C2 57.812 2 57.7997 2 57.7873C2 57.775 2 57.7626 2 57.7502C2 57.7377 2 57.7253 2 57.7129C2 57.7004 2 57.6879 2 57.6754C2 57.6629 2 57.6504 2 57.6378C2 57.6253 2 57.6127 2 57.6001C2 57.5875 2 57.5749 2 57.5623C2 57.5496 2 57.5369 2 57.5243C2 57.5116 2 57.4988 2 57.4861C2 57.4734 2 57.4606 2 57.4478C2 57.435 2 57.4222 2 57.4094C2 57.3966 2 57.3837 2 57.3708C2 57.358 2 57.3451 2 57.3321C2 57.3192 2 57.3062 2 57.2933C2 57.2803 2 57.2673 2 57.2543C2 57.2413 2 57.2282 2 57.2151C2 57.2021 2 57.189 2 57.1759C2 57.1628 2 57.1496 2 57.1365C2 57.1233 2 57.1101 2 57.0969C2 57.0837 2 57.0705 2 57.0572C2 57.0439 2 57.0307 2 57.0173C2 57.004 2 56.9907 2 56.9774C2 56.964 2 56.9506 2 56.9372C2 56.9238 2 56.9104 2 56.897C2 56.8835 2 56.87 2 56.8566C2 56.8431 2 56.8295 2 56.816C2 56.8025 2 56.7889 2 56.7753C2 56.7617 2 56.7481 2 56.7345C2 56.7208 2 56.7072 2 56.6935C2 56.6798 2 56.6661 2 56.6523C2 56.6386 2 56.6249 2 56.6111C2 56.5973 2 56.5835 2 56.5697C2 56.5558 2 56.542 2 56.5281C2 56.5142 2 56.5003 2 56.4864C2 56.4725 2 56.4585 2 56.4446C2 56.4306 2 56.4166 2 56.4026C2 56.3886 2 56.3745 2 56.3604C2 56.3464 2 56.3323 2 56.3182C2 56.3041 2 56.2899 2 56.2758C2 56.2616 2 56.2474 2 56.2332C2 56.219 2 56.2047 2 56.1905C2 56.1762 2 56.1619 2 56.1476C2 56.1333 2 56.119 2 56.1046C2 56.0903 2 56.0759 2 56.0615C2 56.0471 2 56.0327 2 56.0182C2 56.0038 2 55.9893 2 55.9748C2 55.9603 2 55.9458 2 55.9312C2 55.9167 2 55.9021 2 55.8875C2 55.8729 2 55.8583 2 55.8436C2 55.829 2 55.8143 2 55.7996C2 55.7849 2 55.7702 2 55.7555C2 55.7407 2 55.726 2 55.7112C2 55.6964 2 55.6816 2 55.6668C2 55.6519 2 55.6371 2 55.6222C2 55.6073 2 55.5924 2 55.5774C2 55.5625 2 55.5475 2 55.5326C2 55.5176 2 55.5026 2 55.4875C2 55.4725 2 55.4575 2 55.4424C2 55.4273 2 55.4122 2 55.3971C2 55.3819 2 55.3668 2 55.3516C2 55.3364 2 55.3212 2 55.306C2 55.2908 2 55.2755 2 55.2603C2 55.245 2 55.2297 2 55.2144C2 55.199 2 55.1837 2 55.1683C2 55.1529 2 55.1376 2 55.1221C2 55.1067 2 55.0913 2 55.0758C2 55.0603 2 55.0448 2 55.0293C2 55.0138 2 54.9983 2 54.9827C2 54.9671 2 54.9515 2 54.9359C2 54.9203 2 54.9047 2 54.889C2 54.8733 2 54.8576 2 54.8419C2 54.8262 2 54.8105 2 54.7947C2 54.779 2 54.7632 2 54.7474C2 54.7316 2 54.7157 2 54.6999C2 54.684 2 54.6681 2 54.6522C2 54.6363 2 54.6204 2 54.6044C2 54.5884 2 54.5725 2 54.5565C2 54.5404 2 54.5244 2 54.5084C2 54.4923 2 54.4762 2 54.4601C2 54.444 2 54.4279 2 54.4117C2 54.3956 2 54.3794 2 54.3632C2 54.347 2 54.3308 2 54.3145C2 54.2983 2 54.282 2 54.2657C2 54.2494 2 54.233 2 54.2167C2 54.2003 2 54.184 2 54.1676C2 54.1512 2 54.1347 2 54.1183C2 54.1018 2 54.0854 2 54.0689C2 54.0524 2 54.0358 2 54.0193C2 54.0027 2 53.9862 2 53.9696C2 53.953 2 53.9364 2 53.9197C2 53.9031 2 53.8864 2 53.8697C2 53.853 2 53.8363 2 53.8195C2 53.8028 2 53.786 2 53.7692C2 53.7524 2 53.7356 2 53.7188C2 53.7019 2 53.685 2 53.6681C2 53.6512 2 53.6343 2 53.6174C2 53.6004 2 53.5835 2 53.5665C2 53.5495 2 53.5325 2 53.5154C2 53.4984 2 53.4813 2 53.4642C2 53.4471 2 53.43 2 53.4128C2 53.3957 2 53.3785 2 53.3613C2 53.3441 2 53.3269 2 53.3097C2 53.2924 2 53.2752 2 53.2579C2 53.2406 2 53.2233 2 53.2059C2 53.1886 2 53.1712 2 53.1538C2 53.1364 2 53.119 2 53.1016C2 53.0841 2 53.0667 2 53.0492C2 53.0317 2 53.0142 2 52.9966C2 52.9791 2 52.9615 2 52.9439C2 52.9263 2 52.9087 2 52.8911C2 52.8734 2 52.8557 2 52.838C2 52.8204 2 52.8026 2 52.7849C2 52.7672 2 52.7494 2 52.7316C2 52.7138 2 52.696 2 52.6781C2 52.6603 2 52.6424 2 52.6245C2 52.6066 2 52.5887 2 52.5708C2 52.5528 2 52.5349 2 52.5169C2 52.4989 2 52.4809 2 52.4628C2 52.4448 2 52.4267 2 52.4086C2 52.3905 2 52.3724 2 52.3542C2 52.3361 2 52.3179 2 52.2997C2 52.2815 2 52.2633 2 52.2451C2 52.2268 2 52.2085 2 52.1903C2 52.172 2 52.1536 2 52.1353C2 52.1169 2 52.0986 2 52.0802C2 52.0618 2 52.0434 2 52.0249C2 52.0065 2 51.988 2 51.9695C2 51.951 2 51.9325 2 51.9139C2 51.8954 2 51.8768 2 51.8582C2 51.8396 2 51.821 2 51.8023C2 51.7837 2 51.765 2 51.7463C2 51.7276 2 51.7089 2 51.6901C2 51.6714 2 51.6526 2 51.6338C2 51.615 2 51.5961 2 51.5773C2 51.5584 2 51.5396 2 51.5207C2 51.5018 2 51.4828 2 51.4639C2 51.4449 2 51.4259 2 51.4069C2 51.3879 2 51.3689 2 51.3498C2 51.3308 2 51.3117 2 51.2926C2 51.2735 2 51.2543 2 51.2352C2 51.216 2 51.1968 2 51.1776C2 51.1584 2 51.1392 2 51.1199C2 51.1007 2 51.0814 2 51.0621C2 51.0428 2 51.0234 2 51.0041C2 50.9847 2 50.9653 2 50.9459C2 50.9265 2 50.907 2 50.8876C2 50.8681 2 50.8486 2 50.8291C2 50.8096 2 50.7901 2 50.7705C2 50.7509 2 50.7313 2 50.7117C2 50.6921 2 50.6724 2 50.6528C2 50.6331 2 50.6134 2 50.5937C2 50.574 2 50.5542 2 50.5345C2 50.5147 2 50.4949 2 50.4751C2 50.4552 2 50.4354 2 50.4155C2 50.3956 2 50.3757 2 50.3558C2 50.3359 2 50.3159 2 50.296C2 50.276 2 50.256 2 50.2359C2 50.2159 2 50.1959 2 50.1758C2 50.1557 2 50.1356 2 50.1155C2 50.0953 2 50.0752 2 50.055C2 50.0348 2 50.0146 2 49.9944C2 49.9741 2 49.9539 2 49.9336C2 49.9133 2 49.893 2 49.8726C2 49.8523 2 49.8319 2 49.8115C2 49.7912 2 49.7707 2 49.7503C2 49.7299 2 49.7094 2 49.6889C2 49.6684 2 49.6479 2 49.6273C2 49.6068 2 49.5862 2 49.5656C2 49.545 2 49.5244 2 49.5038C2 49.4831 2 49.4624 2 49.4417C2 49.421 2 49.4003 2 49.3796C2 49.3588 2 49.338 2 49.3172C2 49.2964 2 49.2756 2 49.2547C2 49.2339 2 49.213 2 49.1921C2 49.1712 2 49.1502 2 49.1293C2 49.1083 2 49.0873 2 49.0663C2 49.0453 2 49.0243 2 49.0032C2 48.9821 2 48.961 2 48.9399C2 48.9188 2 48.8977 2 48.8765C2 48.8553 2 48.8341 2 48.8129C2 48.7917 2 48.7705 2 48.7492C2 48.7279 2 48.7066 2 48.6853C2 48.664 2 48.6426 2 48.6212C2 48.5998 2 48.5784 2 48.557C2 48.5356 2 48.5141 2 48.4926C2 48.4712 2 48.4497 2 48.4281C2 48.4066 2 48.385 2 48.3634C2 48.3419 2 48.3202 2 48.2986C2 48.277 2 48.2553 2 48.2336C2 48.2119 2 48.1902 2 48.1685C2 48.1467 2 48.1249 2 48.1031C2 48.0814 2 48.0595 2 48.0377C2 48.0158 2 47.994 2 47.9721C2 47.9502 2 47.9282 2 47.9063C2 47.8843 2 47.8623 2 47.8403C2 47.8183 2 47.7963 2 47.7742C2 47.7522 2 47.7301 2 47.708C2 47.6859 2 47.6637 2 47.6416C2 47.6194 2 47.5972 2 47.575C2 47.5528 2 47.5305 2 47.5083C2 47.486 2 47.4637 2 47.4414C2 47.4191 2 47.3967 2 47.3743C2 47.3519 2 47.3295 2 47.3071C2 47.2847 2 47.2622 2 47.2398C2 47.2173 2 47.1948 2 47.1722C2 47.1497 2 47.1271 2 47.1046C2 47.082 2 47.0594 2 47.0367C2 47.0141 2 46.9914 2 46.9687C2 46.946 2 46.9233 2 46.9006C2 46.8778 2 46.855 2 46.8322C2 46.8094 2 46.7866 2 46.7638C2 46.7409 2 46.718 2 46.6951C2 46.6722 2 46.6493 2 46.6263C2 46.6034 2 46.5804 2 46.5574C2 46.5344 2 46.5113 2 46.4883C2 46.4652 2 46.4421 2 46.419C2 46.3959 2 46.3727 2 46.3496C2 46.3264 2 46.3032 2 46.28C2 46.2567 2 46.2335 2 46.2102C2 46.1869 2 46.1636 2 46.1403C2 46.117 2 46.0936 2 46.0702C2 46.0468 2 46.0234 2 46H0ZM9 53.5V59.5H11V53.5H9ZM9.55279 60.3944L13.5528 62.3944L14.4472 60.6056L10.4472 58.6056L9.55279 60.3944ZM14.4472 62.3944L18.4472 60.3944L17.5528 58.6056L13.5528 60.6056L14.4472 62.3944ZM19 59.5V53.5H17V59.5H19ZM18 52.5H10V54.5H18V52.5ZM9.91183 35.8087L15.4118 39.8087L16.5882 38.1913L11.0882 34.1913L9.91183 35.8087ZM15.7253 38.0385L12.2253 39.0385L12.7747 40.9615L16.2747 39.9615L15.7253 38.0385ZM11.751 40.6626L23.251 53.6626L24.749 52.3374L13.249 39.3374L11.751 40.6626Z" fill="#DCE5EB"/>
<rect x="29" y="41" width="18" height="5" stroke="#DCE5EB" stroke-width="2" stroke-linecap="round" stroke-linejoin="round"/>
<path d="M47.4853 20.6773L60.2132 7.94936L62.3345 10.0707M47.4853 20.6773L54.5564 27.7483M47.4853 20.6773L45.364 18.556L42.5355 21.3844L46.7782 25.627M54.5564 27.7483L67.2843 15.0204L65.163 12.8991M54.5564 27.7483L56.6777 29.8697L53.8492 32.6981L49.6066 28.4555M46.7782 25.627L43.2426 29.1626L46.0711 31.991L49.6066 28.4555M46.7782 25.627L49.6066 28.4555M62.3345 10.0707L65.163 7.24225L67.9914 10.0707L65.163 12.8991M62.3345 10.0707L65.163 12.8991" stroke="#DCE5EB" stroke-width="2" stroke-linecap="round" stroke-linejoin="round"/>
<rect x="36" y="58" width="32" height="5" stroke="#DCE5EB" stroke-width="2" stroke-linecap="round" stroke-linejoin="round"/>
<path d="M69.7817 29.3067C68.8291 26.7755 67.347 24.4769 65.4346 22.5645L62.8382 25.1608C64.381 26.7037 65.5767 28.5581 66.3453 30.6001C67.1138 32.6422 67.4376 34.8248 67.2949 37.002C67.1522 39.1792 66.5463 41.3009 65.5178 43.2251C64.4892 45.1494 63.0617 46.8319 61.3307 48.1601C59.5997 49.4884 57.6051 50.4318 55.4802 50.9272C53.3553 51.4227 51.1491 51.4588 49.0092 51.0331C47.8873 50.81 46.7972 50.4626 45.7583 49.9995H39.1543C39.7161 50.515 40.3098 50.9974 40.9325 51.4436C43.1308 53.0189 45.6402 54.1068 48.2928 54.6344C50.9454 55.162 53.6801 55.1173 56.314 54.5031C58.9479 53.889 61.4203 52.7196 63.566 51.0732C65.7117 49.4268 67.4811 47.3412 68.756 44.956C70.031 42.5708 70.782 39.9409 70.9588 37.2421C71.1357 34.5434 70.7344 31.8379 69.7817 29.3067Z" stroke="#DCE5EB" stroke-width="2" stroke-linecap="round" stroke-linejoin="round"/>
</svg>
