<svg width="71" height="76" viewBox="0 0 71 76" fill="none" xmlns="http://www.w3.org/2000/svg">
<path d="M40.8987 17.3241L40.1916 18.0312C40.5821 18.4218 41.2153 18.4218 41.6058 18.0312L40.8987 17.3241ZM42.1989 13.1244L43.1918 13.0052L43.1918 13.0052L42.1989 13.1244ZM35.1989 6.12439L35.0798 7.11727L35.1989 6.12439ZM32.8642 6.31313L33.16 7.2684L33.16 7.2684L32.8642 6.31313ZM30.9992 7.42465L30.2921 6.71754C29.9016 7.10806 29.9016 7.74123 30.2921 8.13175L30.9992 7.42465ZM41.6058 18.0312C42.2366 17.4004 42.6965 16.6235 42.9655 15.7548L41.0549 15.1633C40.8777 15.7358 40.5822 16.2264 40.1916 16.617L41.6058 18.0312ZM42.9655 15.7548C43.2339 14.8877 43.3054 13.9519 43.1918 13.0052L41.2061 13.2435C41.2894 13.9384 41.2327 14.5892 41.0549 15.1633L42.9655 15.7548ZM35.3181 5.13152C34.3714 5.01791 33.4356 5.08941 32.5685 5.35787L33.16 7.2684C33.7341 7.09066 34.3849 7.03389 35.0798 7.11727L35.3181 5.13152ZM32.5685 5.35787C31.6998 5.62682 30.9229 6.08674 30.2921 6.71754L31.7063 8.13175C32.0969 7.74111 32.5875 7.44564 33.16 7.2684L32.5685 5.35787ZM43.1918 13.0052C43.1384 12.5602 43.0361 12.1395 42.9191 11.7399L40.9996 12.3018C41.0996 12.6431 41.1706 12.9482 41.2061 13.2435L43.1918 13.0052ZM36.5835 5.40424C36.1838 5.28725 35.7631 5.18492 35.3181 5.13152L35.0798 7.11727C35.3752 7.15272 35.6803 7.22377 36.0216 7.32368L36.5835 5.40424ZM42.6665 11.3137L37.0096 5.65685L35.5954 7.07107L41.2523 12.7279L42.6665 11.3137ZM42.6665 9.89949L41.2523 11.3137L42.6665 12.7279L44.0807 11.3137L42.6665 9.89949ZM37.0096 7.07107L38.4238 5.65685L37.0096 4.24264L35.5954 5.65685L37.0096 7.07107ZM42.6665 5.65685C43.838 6.82843 43.838 8.72792 42.6665 9.89949L44.0807 11.3137C46.0333 9.36109 46.0333 6.19526 44.0807 4.24264L42.6665 5.65685ZM44.0807 4.24264C42.1281 2.29002 38.9622 2.29002 37.0096 4.24264L38.4238 5.65685C39.5954 4.48528 41.4949 4.48528 42.6665 5.65685L44.0807 4.24264ZM30.2921 8.13175L40.1916 18.0312L41.6058 16.617L31.7063 6.71754L30.2921 8.13175Z" fill="#DCE5EB"/>
<path d="M54 47C54 47.5523 54.4477 48 55 48C55.5523 48 56 47.5523 56 47H54ZM43.5 6H51V4H43.5V6ZM54 9V42H56V9H54ZM54 42V47H56V42H54ZM55 41H50V43H55V41ZM47 38V37H45V38H47ZM50 41C48.3431 41 47 39.6569 47 38H45C45 40.7614 47.2386 43 50 43V41ZM51 6C52.6569 6 54 7.34315 54 9H56C56 6.23858 53.7614 4 51 4V6Z" fill="#DCE5EB"/>
<path d="M39.5528 30.1053C39.0588 30.3523 38.8586 30.953 39.1056 31.4469C39.3526 31.9409 39.9532 32.1411 40.4472 31.8942L39.5528 30.1053ZM46 27.9997L45.5528 27.1053L45.5528 27.1053L46 27.9997ZM49.9657 30.6435L49.411 31.4756L49.9657 30.6435ZM40.8541 34.0727L40.4069 33.1782L40.8541 34.0727ZM51 33.0701V34.9997H53V33.0701H51ZM50 35.9997H41.5451V37.9997H50V35.9997ZM41.3013 34.9671L48.4091 31.4132L47.5147 29.6244L40.4069 33.1782L41.3013 34.9671ZM49.411 31.4756L50.5547 32.238L51.6641 30.5739L50.5204 29.8115L49.411 31.4756ZM40.4472 31.8942L46.4472 28.8942L45.5528 27.1053L39.5528 30.1053L40.4472 31.8942ZM46.4472 28.8942C47.2918 28.4719 48.0712 28.4353 48.5631 28.6743C48.9717 28.8727 49.5 29.4252 49.5 30.9998H51.5C51.5 28.9744 50.7783 27.5268 49.4369 26.8753C48.1788 26.2642 46.7082 26.5276 45.5528 27.1053L46.4472 28.8942ZM48.4091 31.4132C48.7301 31.2527 49.1124 31.2765 49.411 31.4756L50.5204 29.8115C49.6247 29.2143 48.4776 29.1429 47.5147 29.6244L48.4091 31.4132ZM41.5451 35.9997C41.244 35.9997 41 35.7557 41 35.4546H39C39 36.8603 40.1395 37.9997 41.5451 37.9997V35.9997ZM51 34.9997C51 35.552 50.5523 35.9997 50 35.9997V37.9997C51.6569 37.9997 53 36.6566 53 34.9997H51ZM53 33.0701C53 32.067 52.4987 31.1303 51.6641 30.5739L50.5547 32.238C50.8329 32.4235 51 32.7357 51 33.0701H53ZM41 35.4546C41 35.2482 41.1166 35.0594 41.3013 34.9671L40.4069 33.1782C39.5447 33.6094 39 34.4906 39 35.4546H41Z" fill="#DCE5EB"/>
<path d="M1 30H0C0 30.169 0.042806 30.3351 0.124422 30.4831L1 30ZM45 53L45.9162 52.5992C45.7569 52.2352 45.3973 52 45 52V53ZM38 42C38.5523 42 39 41.5523 39 41C39 40.4477 38.5523 40 38 40V42ZM61 69V70C61.073 70 61.1457 69.992 61.2169 69.9762L61 69ZM70.2169 67.9762C70.7561 67.8564 71.096 67.3222 70.9762 66.7831C70.8564 66.2439 70.3222 65.904 69.7831 66.0238L70.2169 67.9762ZM1 18V17C0.447715 17 0 17.4477 0 18H1ZM43 76C43.5523 76 44 75.5523 44 75C44 74.4477 43.5523 74 43 74V76ZM17 74C16.4477 74 16 74.4477 16 75C16 75.5523 16.4477 76 17 76V74ZM53.4887 53.262L52.5862 53.6927L53.4887 53.262ZM49.9029 64.2066L48.9867 64.6074L49.9029 64.2066ZM20.2105 43.584L19.3884 43.0147L20.2105 43.584ZM15.2888 55.8985L14.4132 56.3815L15.2888 55.8985ZM46 54V53H44V54H46ZM0.124422 30.4831L12.8141 53.4831L14.5652 52.5169L1.87558 29.5169L0.124422 30.4831ZM12.8141 53.4831L14.4132 56.3815L16.1644 55.4154L14.5652 52.5169L12.8141 53.4831ZM45 52H13.6897V54H45V52ZM25.1431 42H38V40H25.1431V42ZM14.5118 53.5693L18.6669 47.5693L17.0227 46.4307L12.8675 52.4307L14.5118 53.5693ZM18.6669 47.5693L21.0326 44.1533L19.3884 43.0147L17.0227 46.4307L18.6669 47.5693ZM17.8448 48H43.5614V46H17.8448V48ZM52.5862 53.6927L60.0975 69.4307L61.9025 68.5693L54.3912 52.8312L52.5862 53.6927ZM61 68H57.2321V70H61V68ZM50.819 63.8057L45.9162 52.5992L44.0838 53.4008L48.9867 64.6074L50.819 63.8057ZM61.2169 69.9762L70.2169 67.9762L69.7831 66.0238L60.7831 68.0238L61.2169 69.9762ZM18.7319 46.5384L11.8481 33.3076L10.0739 34.2307L16.9577 47.4616L18.7319 46.5384ZM4.75123 29H1V31H4.75123V29ZM2 30V18H0V30H2ZM1 19H5V17H1V19ZM9 23V25H11V23H9ZM5 29H1V31H5V29ZM20.5423 60H23V58H20.5423V60ZM22.0077 59.124L24.0077 75.124L25.9923 74.876L23.9923 58.876L22.0077 59.124ZM25 76H35V74H25V76ZM23 60H39V58H23V60ZM39 60H40V58H39V60ZM35.9701 75.2425L39.9701 59.2425L38.0299 58.7575L34.0299 74.7575L35.9701 75.2425ZM35 76H43V74H35V76ZM43 74H25V76H43V74ZM17 76H25V74H17V76ZM9 25C9 27.2091 7.20914 29 5 29V31C8.31371 31 11 28.3137 11 25H9ZM5 19C7.20914 19 9 20.7909 9 23H11C11 19.6863 8.31371 17 5 17V19ZM43.5614 48C47.4153 48 50.9262 50.2146 52.5862 53.6927L54.3912 52.8312C52.3992 48.6576 48.1861 46 43.5614 46V48ZM57.2321 68C54.451 68 51.9337 66.3536 50.819 63.8057L48.9867 64.6074C50.4199 67.8833 53.6564 70 57.2321 70V68ZM25.1431 40C22.8465 40 20.696 41.1266 19.3884 43.0147L21.0326 44.1533C21.9666 42.8047 23.5027 42 25.1431 42V40ZM44 54C44 56.2091 42.2091 58 40 58V60C43.3137 60 46 57.3137 46 54H44ZM11.8481 33.3076C10.4709 30.6606 7.73507 29 4.75123 29V31C6.98911 31 9.04101 32.2454 10.0739 34.2307L11.8481 33.3076ZM14.4132 56.3815C15.6448 58.6138 17.9928 60 20.5423 60V58C18.7212 58 17.0441 57.0099 16.1644 55.4154L14.4132 56.3815Z" fill="#DCE5EB"/>
</svg>
