<svg width="32" height="37" viewBox="0 0 32 37" fill="none" xmlns="http://www.w3.org/2000/svg">
<path opacity="0.64" d="M28.375 5H25V1.34375C25 0.921875 24.5781 0.5 24.1562 0.5H23.5938C23.1016 0.5 22.75 0.921875 22.75 1.34375V5H9.25V1.34375C9.25 0.921875 8.82812 0.5 8.40625 0.5H7.84375C7.35156 0.5 7 0.921875 7 1.34375V5H3.625C1.72656 5 0.25 6.54688 0.25 8.375V33.125C0.25 35.0234 1.72656 36.5 3.625 36.5H28.375C30.2031 36.5 31.75 35.0234 31.75 33.125V8.375C31.75 6.54688 30.2031 5 28.375 5ZM3.625 7.25H28.375C28.9375 7.25 29.5 7.8125 29.5 8.375V11.75H2.5V8.375C2.5 7.8125 2.99219 7.25 3.625 7.25ZM28.375 34.25H3.625C2.99219 34.25 2.5 33.7578 2.5 33.125V14H29.5V33.125C29.5 33.7578 28.9375 34.25 28.375 34.25ZM10.6562 23C11.0781 23 11.5 22.6484 11.5 22.1562V19.3438C11.5 18.9219 11.0781 18.5 10.6562 18.5H7.84375C7.35156 18.5 7 18.9219 7 19.3438V22.1562C7 22.6484 7.35156 23 7.84375 23H10.6562ZM17.4062 23C17.8281 23 18.25 22.6484 18.25 22.1562V19.3438C18.25 18.9219 17.8281 18.5 17.4062 18.5H14.5938C14.1016 18.5 13.75 18.9219 13.75 19.3438V22.1562C13.75 22.6484 14.1016 23 14.5938 23H17.4062ZM24.1562 23C24.5781 23 25 22.6484 25 22.1562V19.3438C25 18.9219 24.5781 18.5 24.1562 18.5H21.3438C20.8516 18.5 20.5 18.9219 20.5 19.3438V22.1562C20.5 22.6484 20.8516 23 21.3438 23H24.1562ZM17.4062 29.75C17.8281 29.75 18.25 29.3984 18.25 28.9062V26.0938C18.25 25.6719 17.8281 25.25 17.4062 25.25H14.5938C14.1016 25.25 13.75 25.6719 13.75 26.0938V28.9062C13.75 29.3984 14.1016 29.75 14.5938 29.75H17.4062ZM10.6562 29.75C11.0781 29.75 11.5 29.3984 11.5 28.9062V26.0938C11.5 25.6719 11.0781 25.25 10.6562 25.25H7.84375C7.35156 25.25 7 25.6719 7 26.0938V28.9062C7 29.3984 7.35156 29.75 7.84375 29.75H10.6562ZM24.1562 29.75C24.5781 29.75 25 29.3984 25 28.9062V26.0938C25 25.6719 24.5781 25.25 24.1562 25.25H21.3438C20.8516 25.25 20.5 25.6719 20.5 26.0938V28.9062C20.5 29.3984 20.8516 29.75 21.3438 29.75H24.1562Z" fill="#4E7F9B"/>
</svg>
