<svg width="37" height="37" viewBox="0 0 37 37" fill="none" xmlns="http://www.w3.org/2000/svg">
<path opacity="0.64" d="M35.9453 7.39062L30.1094 1.55469C29.4766 0.921875 28.5625 0.5 27.7188 0.5H13.375C11.4766 0.570312 10 2.04688 10 3.94531V12.1719C9.57812 12.1719 9.15625 12.1016 8.24219 11.8203C8.17188 11.8203 8.03125 11.8203 7.89062 11.8203C7.53906 11.8203 7.1875 11.9609 6.97656 12.1719C5.71094 13.5078 5.78125 13.4375 4.02344 13.9297C3.53125 14.0703 3.17969 14.4219 3.03906 14.9141C2.61719 16.6719 2.61719 16.6016 1.35156 17.8672C1 18.2188 0.859375 18.7812 1 19.2734C1.49219 20.9609 1.49219 20.9609 1 22.6484C0.859375 23.1406 1 23.7031 1.35156 24.0547C2.61719 25.3203 2.61719 25.3203 3.03906 27.0078C3.17969 27.5 3.53125 27.8516 4.02344 27.9922C4.16406 28.0625 4.23438 28.0625 4.375 28.0625V35.375C4.375 35.7969 4.51562 36.1484 4.86719 36.3594C5.21875 36.5703 5.64062 36.5703 5.99219 36.4297L10 34.3906L13.9375 36.4297C14.1484 36.5 14.2891 36.5 14.5 36.5H33.625C35.4531 36.5 37 35.0234 37 33.1953V9.78125C37 8.9375 36.5781 8.02344 35.9453 7.39062ZM28 2.82031C28.1406 2.89062 28.3516 2.96094 28.4922 3.10156L34.3984 9.00781C34.5391 9.14844 34.6094 9.35938 34.6797 9.57031H28V2.82031ZM3.32031 22.7891C3.67188 21.2422 3.67188 20.6797 3.32031 19.1328C4.375 18.0078 4.65625 17.5156 5.07812 15.9688C6.625 15.5469 7.04688 15.2656 8.17188 14.1406C8.875 14.3516 9.36719 14.4219 10 14.4219C10.5625 14.4219 11.0547 14.3516 11.7578 14.1406C12.8125 15.2656 13.3047 15.5469 14.8516 15.9688C15.2734 17.5156 15.4844 17.9375 16.6094 19.1328C16.1875 20.6797 16.1875 21.2422 16.6094 22.7891C15.5547 23.9141 15.2734 24.4062 14.8516 25.9531C13.7969 26.2344 13.1641 26.4453 12.1797 27.2891C11.4766 27.0078 10.7734 26.8672 10 26.8672C9.15625 26.8672 8.45312 27.0078 7.75 27.3594C6.76562 26.5156 6.13281 26.2344 5.07812 25.9531C4.65625 24.4062 4.44531 23.9844 3.32031 22.7891ZM10.4922 32.1406C10.1406 32 9.78906 32 9.4375 32.1406L6.625 33.6172V29.3281C6.625 29.3984 6.625 29.3984 6.625 29.3984C6.90625 29.6797 7.25781 29.75 7.53906 29.75C7.82031 29.75 8.03125 29.6797 8.3125 29.6094C8.80469 29.2578 9.36719 29.1172 10 29.1172C10.5625 29.1172 11.125 29.2578 11.6172 29.5391C11.8984 29.75 12.1094 29.75 12.3906 29.75C12.7422 29.75 13.0234 29.6797 13.3047 29.3984C13.3047 29.3984 13.3047 29.3984 13.375 29.3281V33.6172L10.4922 32.1406ZM34.75 33.1953C34.75 33.7578 34.1875 34.3203 33.625 34.3203H15.625V28.0625C15.6953 28.0625 15.7656 28.0625 15.9062 27.9922C16.3984 27.8516 16.75 27.5 16.8906 27.0078C17.3125 25.25 17.3125 25.3203 18.5781 24.0547C18.9297 23.7031 19.0703 23.1406 18.9297 22.6484C18.4375 20.9609 18.4375 20.9609 18.9297 19.2734C19.0703 18.7812 18.9297 18.2188 18.5781 17.8672C17.3125 16.6016 17.3125 16.6016 16.8906 14.9141C16.75 14.4219 16.3984 14.0703 15.9062 13.9297C14.2188 13.4375 14.2188 13.5078 12.9531 12.1719C12.7422 11.9609 12.4609 11.8906 12.25 11.8203V3.94531C12.25 3.3125 12.7422 2.75 13.375 2.75H25.75V10.1328C25.75 11.0469 26.4531 11.75 27.4375 11.75H34.75V33.1953Z" fill="#4E7F9B"/>
</svg>
