<svg width="45" height="37" viewBox="0 0 45 37" fill="none" xmlns="http://www.w3.org/2000/svg">
<path opacity="0.64" d="M42.75 0.5H13.5C12.2344 0.5 11.25 1.55469 11.25 2.75V9.5C7.45312 9.5 4.5 12.5234 4.5 16.25C4.5 20.0469 7.45312 23 11.25 23C14.9766 23 18 20.0469 18 16.25C18 13.3672 16.1016 10.9062 13.5 9.92188V2.75H42.75V27.5H38.25V23C38.25 21.8047 37.1953 20.75 36 20.75H27C25.7344 20.75 24.75 21.8047 24.75 23V27.5H21.4453C21.375 27.5 21.375 27.4297 21.3047 27.3594C20.1094 25.5312 18.0703 24.6172 15.8906 24.6172C13.9922 24.6172 13.5 25.25 11.25 25.25C9 25.25 8.50781 24.6172 6.53906 24.6172C4.35938 24.6172 2.32031 25.5312 1.125 27.3594C0.421875 28.4141 0 29.6797 0 31.0859V33.6875C0 35.3047 1.19531 36.5 2.8125 36.5H19.6875C21.2344 36.5 22.5 35.3047 22.5 33.6875V31.0859C22.5 30.6641 22.4297 30.2422 22.2891 29.75H42.75C43.9453 29.75 45 28.7656 45 27.5V2.75C45 1.55469 43.9453 0.5 42.75 0.5ZM15.75 16.25C15.75 18.7812 13.7109 20.75 11.25 20.75C8.71875 20.75 6.75 18.7812 6.75 16.25C6.75 13.7891 8.71875 11.75 11.25 11.75C13.7109 11.75 15.75 13.7891 15.75 16.25ZM20.25 33.6875C20.25 34.0391 19.9688 34.25 19.6875 34.25H2.8125C2.46094 34.25 2.25 34.0391 2.25 33.6875V31.0859C2.25 30.1719 2.46094 29.3281 2.95312 28.5547C3.72656 27.5 5.0625 26.8672 6.53906 26.8672C8.08594 26.8672 8.64844 27.5 11.25 27.5C13.7812 27.5 14.4141 26.8672 15.8906 26.8672C17.3672 26.8672 18.7031 27.5 19.4766 28.5547C19.9688 29.3281 20.25 30.1719 20.25 31.0859V33.6875ZM36 27.5H27V23H36V27.5Z" fill="#4E7F9B"/>
</svg>
