<svg width="18" height="24" viewBox="0 0 18 24" fill="none" xmlns="http://www.w3.org/2000/svg">
<path d="M17.2969 4.59375L13.4062 0.65625C12.9844 0.234375 12.375 0 11.8125 0H2.25C0.984375 0 0 1.03125 0 2.25V21.75C0 23.0156 0.984375 24 2.25 24H15.75C16.9688 24 18 23.0156 18 21.75V6.1875C18 5.625 17.7188 5.01562 17.2969 4.59375ZM16.2656 5.67188C16.3594 5.76562 16.4062 5.90625 16.4531 6H12V1.54688C12.0938 1.59375 12.2344 1.64062 12.3281 1.73438L16.2656 5.67188ZM15.75 22.5H2.25C1.82812 22.5 1.5 22.1719 1.5 21.75V2.25C1.5 1.875 1.82812 1.5 2.25 1.5H10.5V6.375C10.5 7.03125 10.9688 7.5 11.625 7.5H16.5V21.75C16.5 22.1719 16.125 22.5 15.75 22.5ZM14.7188 14.4844C14.0625 13.875 12.1406 14.0625 11.25 14.2031C10.2656 13.5938 9.60938 12.75 9.14062 11.5312C9.32812 10.6875 9.70312 9.32812 9.42188 8.48438C9.23438 7.17188 7.54688 7.3125 7.35938 8.15625C7.125 9.04688 7.3125 10.2656 7.73438 11.8125C7.17188 13.125 6.32812 14.9531 5.76562 15.9844C4.78125 16.4531 3.23438 17.3438 3 18.4219C2.85938 19.2188 4.07812 20.25 5.48438 18.7031C5.90625 18.2812 6.375 17.5781 6.9375 16.5938C8.20312 16.1719 9.60938 15.6562 10.7812 15.4688C11.8125 16.0312 13.0312 16.4062 13.8281 16.4062C15.1406 16.4062 15.1875 15 14.7188 14.4844ZM3.9375 18.6562C4.21875 17.9062 5.29688 17.0625 5.625 16.7344C4.59375 18.4219 3.9375 18.7031 3.9375 18.6562ZM8.4375 8.25C8.8125 8.25 8.76562 9.98438 8.53125 10.5C8.25 9.70312 8.29688 8.25 8.4375 8.25ZM7.07812 15.7031C7.59375 14.7656 8.0625 13.6875 8.4375 12.75C8.90625 13.5469 9.46875 14.2031 10.0781 14.6719C8.95312 14.9062 7.96875 15.375 7.07812 15.7031ZM14.2969 15.4219C14.2969 15.4219 14.0156 15.75 12.2344 15C14.1562 14.8594 14.4844 15.3281 14.2969 15.4219Z" fill="#4E7F9B"/>
</svg>
