<svg width="33" height="37" viewBox="0 0 33 37" fill="none" xmlns="http://www.w3.org/2000/svg">
<path opacity="0.64" d="M23.1797 23.0703L16.5 28.625L9.75 23.0703C8.48438 23.1406 0.75 24.1953 0.75 33.125C0.75 35.0234 2.22656 36.5 4.125 36.5H28.875C30.7031 36.5 32.25 35.0234 32.25 33.125C32.25 24.1953 24.4453 23.1406 23.1797 23.0703ZM15.375 34.25H4.125C3.49219 34.25 3 33.7578 3 33.125C3 26.1641 8.90625 25.4609 9.04688 25.3906L15.375 30.6641V34.25ZM30 33.125C30 33.7578 29.4375 34.25 28.875 34.25H17.625V30.6641L23.8828 25.3906C24.0234 25.4609 30 26.1641 30 33.125ZM1.66406 7.53125L2.15625 7.67188V10.3438C1.66406 10.625 1.3125 11.1875 1.3125 11.75C1.3125 12.3828 1.59375 12.875 2.08594 13.1562L0.960938 17.5156C0.820312 18.0078 1.10156 18.5 1.52344 18.5H4.40625C4.82812 18.5 5.10938 18.0078 4.96875 17.5156L3.84375 13.1562C4.33594 12.875 4.6875 12.3828 4.6875 11.75C4.6875 11.1875 4.33594 10.625 3.84375 10.3438V8.23438L7.07812 9.14844C6.65625 10.3438 6.375 11.6094 6.375 12.875C6.375 18.5 10.875 23 16.5 23C22.0547 23 26.625 18.5 26.625 12.875C26.625 11.6094 26.3438 10.3438 25.8516 9.14844L31.2656 7.53125C32.5312 7.17969 32.5312 5.14062 31.2656 4.71875L17.625 0.710938C17.2734 0.570312 16.8516 0.5 16.5 0.5C16.0781 0.5 15.6562 0.570312 15.3047 0.710938L1.66406 4.71875C0.398438 5.14062 0.398438 7.17969 1.66406 7.53125ZM16.5 20.75C12.1406 20.75 8.625 17.2344 8.625 12.875C8.625 11.8203 8.83594 10.7656 9.25781 9.85156L15.3047 11.6094C16.2891 11.8906 17.2031 11.75 17.625 11.6094L23.6719 9.85156C24.0938 10.7656 24.375 11.8203 24.375 12.875C24.375 17.2344 20.7891 20.75 16.5 20.75ZM15.9375 2.89062C16.0078 2.82031 16.4297 2.67969 16.9922 2.89062L28.1016 6.125L16.9922 9.42969C16.9922 9.5 16.5 9.64062 15.9375 9.42969L4.82812 6.125L15.9375 2.89062Z" fill="#4E7F9B"/>
</svg>
