<svg width="43" height="44" viewBox="0 0 43 44" fill="none" xmlns="http://www.w3.org/2000/svg">
<g clip-path="url(#clip0)">
<path d="M21.3175 43.135C33.0908 43.135 42.635 33.5908 42.635 21.8175C42.635 10.0442 33.0908 0.5 21.3175 0.5C9.54417 0.5 0 10.0442 0 21.8175C0 33.5908 9.54417 43.135 21.3175 43.135Z" fill="#D6001C"/>
<path d="M20.2735 30.1443H16.6346V22.3536C16.6346 20.4287 15.9188 19.4663 14.4871 19.4663C13.469 19.4663 12.7333 19.8123 12.2799 20.5043C11.8265 21.1963 11.5999 22.3178 11.5999 23.8688V30.1443H7.96094V11.5801H11.5999V15.3622C11.5999 15.6565 11.572 16.3484 11.5163 17.4381L11.4328 18.5119H11.6237C12.435 17.2074 13.7235 16.5552 15.4893 16.5552C17.0562 16.5552 18.2453 16.9768 19.0566 17.8199C19.8679 18.663 20.2735 19.872 20.2735 21.4468V30.1443ZM35.4771 30.1443H31.8382V22.3536C31.8382 20.4287 31.1224 19.4663 29.6907 19.4663C28.6726 19.4663 27.9369 19.8123 27.4835 20.5043C27.0301 21.1963 26.8034 22.3178 26.8034 23.8688V30.1443H23.1646V11.5801H26.8034V15.3622C26.8034 15.6565 26.7756 16.3484 26.7199 17.4381L26.6364 18.5119H26.8273C27.6386 17.2074 28.9271 16.5552 30.6929 16.5552C32.2598 16.5552 33.4489 16.9768 34.2601 17.8199C35.0714 18.663 35.4771 19.872 35.4771 21.4468V30.1443Z" fill="white"/>
</g>
<defs>
<clipPath id="clip0">
<rect width="43" height="43" fill="white" transform="translate(0 0.5)"/>
</clipPath>
</defs>
</svg>
