<svg width="14" height="14" viewBox="0 0 14 14" fill="none" xmlns="http://www.w3.org/2000/svg">
<path d="M14 1.5C14 0.6875 13.3125 0 12.5 0H1.5C0.65625 0 0 0.6875 0 1.5V12.5C0 13.3438 0.65625 14 1.5 14H12.5C13.3125 14 14 13.3438 14 12.5V1.5ZM12.5 12.3125C12.5 12.4375 12.4062 12.5 12.3125 12.5H1.6875C1.5625 12.5 1.5 12.4375 1.5 12.3125V1.6875C1.5 1.59375 1.5625 1.5 1.6875 1.5H12.3125C12.4062 1.5 12.5 1.59375 12.5 1.6875V12.3125ZM7 2.6875C6.25 2.6875 5.6875 3.28125 5.6875 4C5.6875 4.75 6.25 5.3125 7 5.3125C7.71875 5.3125 8.3125 4.75 8.3125 4C8.3125 3.28125 7.71875 2.6875 7 2.6875ZM8.75 10.625V9.875C8.75 9.6875 8.5625 9.5 8.375 9.5H8V6.375C8 6.1875 7.8125 6 7.625 6H5.625C5.40625 6 5.25 6.1875 5.25 6.375V7.125C5.25 7.34375 5.40625 7.5 5.625 7.5H6V9.5H5.625C5.40625 9.5 5.25 9.6875 5.25 9.875V10.625C5.25 10.8438 5.40625 11 5.625 11H8.375C8.5625 11 8.75 10.8438 8.75 10.625Z" fill="#4E7F9B"/>
</svg>
