<svg width="17" height="13" viewBox="0 0 17 13" fill="none" xmlns="http://www.w3.org/2000/svg">
<path d="M15 0.5H2C1.15625 0.5 0.5 1.1875 0.5 2V11C0.5 11.8438 1.15625 12.5 2 12.5H15C15.8125 12.5 16.5 11.8438 16.5 11V2C16.5 1.1875 15.8125 0.5 15 0.5ZM15 2V3.28125C14.2812 3.875 13.1562 4.75 10.7812 6.625C10.25 7.03125 9.21875 8.03125 8.5 8C7.75 8.03125 6.71875 7.03125 6.1875 6.625C3.8125 4.75 2.6875 3.875 2 3.28125V2H15ZM2 11V5.21875C2.6875 5.78125 3.71875 6.59375 5.25 7.8125C5.9375 8.34375 7.15625 9.53125 8.5 9.5C9.8125 9.53125 11 8.34375 11.7188 7.8125C13.25 6.59375 14.2812 5.78125 15 5.21875V11H2Z" fill="#DCE5EB"/>
</svg>
