<svg width="17" height="17" viewBox="0 0 17 17" fill="none" xmlns="http://www.w3.org/2000/svg">
<path d="M15.625 10.8125L12.4375 9.46875C12.2812 9.40625 12.0938 9.34375 11.875 9.34375C11.4375 9.34375 11.0312 9.5625 10.7812 9.875L9.75 11.125C8.09375 10.2188 6.78125 8.90625 5.875 7.25L7.125 6.21875C7.4375 5.96875 7.65625 5.5625 7.65625 5.125C7.65625 4.90625 7.59375 4.71875 7.53125 4.5625L6.1875 1.375C5.96875 0.875 5.4375 0.5 4.84375 0.5C4.75 0.5 4.65625 0.53125 4.53125 0.5625L1.59375 1.21875C0.96875 1.375 0.5 1.9375 0.5 2.625C0.5 10.3125 6.71875 16.5312 14.375 16.5C15.0625 16.5 15.625 16.0312 15.7812 15.4062L16.4375 12.4688C16.4688 12.3438 16.5 12.25 16.5 12.1562C16.5 11.5625 16.125 11.0312 15.625 10.8125ZM14.3125 15.0312C7.53125 15 2.03125 9.46875 2 2.6875L4.8125 2.03125L6.125 5.09375L4 6.84375C5.46875 9.9375 7.0625 11.5312 10.1562 13L11.9062 10.875L14.9688 12.1875L14.3125 15.0312Z" fill="#DCE5EB"/>
</svg>
