<svg width="57" height="39" viewBox="0 0 57 39" fill="none" xmlns="http://www.w3.org/2000/svg">
<path d="M55.0078 6.19531C54.3984 3.75781 52.4688 1.82812 50.1328 1.21875C45.7656 0 28.5 0 28.5 0C28.5 0 11.1328 0 6.76562 1.21875C4.42969 1.82812 2.5 3.75781 1.89062 6.19531C0.671875 10.4609 0.671875 19.6016 0.671875 19.6016C0.671875 19.6016 0.671875 28.6406 1.89062 33.0078C2.5 35.4453 4.42969 37.2734 6.76562 37.8828C11.1328 39 28.5 39 28.5 39C28.5 39 45.7656 39 50.1328 37.8828C52.4688 37.2734 54.3984 35.4453 55.0078 33.0078C56.2266 28.6406 56.2266 19.6016 56.2266 19.6016C56.2266 19.6016 56.2266 10.4609 55.0078 6.19531ZM22.8125 27.8281V11.375L37.2344 19.6016L22.8125 27.8281Z" fill="white"/>
</svg>
