<svg width="14" height="16" viewBox="0 0 14 16" fill="none" xmlns="http://www.w3.org/2000/svg">
<path d="M7 8C9.1875 8 11 6.21875 11 4C11 1.8125 9.1875 0 7 0C4.78125 0 3 1.8125 3 4C3 6.21875 4.78125 8 7 8ZM3.25 13.25C3.25 13.6875 3.5625 14 4 14C4.40625 14 4.75 13.6875 4.75 13.25C4.75 12.8438 4.40625 12.5 4 12.5C3.5625 12.5 3.25 12.8438 3.25 13.25ZM10 9.03125V10.5625C11.125 10.7812 12 11.8125 12 13V14.3125C12 14.5625 11.8125 14.75 11.5938 14.8125L10.5625 15C10.4375 15.0312 10.3125 14.9375 10.2812 14.8125L10.1875 14.3125C10.1562 14.1875 10.25 14.0625 10.375 14.0312L11 13.9062V13C11 11.0625 8 10.9688 8 13.0625V13.9062L8.59375 14.0312C8.71875 14.0625 8.8125 14.1875 8.78125 14.3125L8.6875 14.8125C8.65625 14.9375 8.53125 15.0312 8.40625 15L7.40625 14.875C7.1875 14.8438 7 14.625 7 14.375V13C7 11.8125 7.84375 10.8125 9 10.5625V9.15625C8.90625 9.1875 8.84375 9.1875 8.78125 9.21875C8.21875 9.40625 7.625 9.53125 7 9.53125C6.375 9.53125 5.75 9.40625 5.1875 9.21875C4.96875 9.125 4.71875 9.09375 4.5 9.0625V11.5938C5.21875 11.8125 5.75 12.4688 5.75 13.2812C5.75 14.2188 4.96875 15.0312 4 15.0312C3.03125 15.0312 2.25 14.2188 2.25 13.2812C2.25 12.4688 2.78125 11.8125 3.5 11.5938V9.09375C1.5 9.40625 0 11.125 0 13.2188V14.625C0 15.375 0.625 16 1.375 16H12.5938C13.3438 16 14 15.375 14 14.625V13.2188C14 10.9688 12.2188 9.15625 10 9.03125Z" fill="#4E7F9B"/>
</svg>
