<svg width="55" height="55" viewBox="0 0 55 55" fill="none" xmlns="http://www.w3.org/2000/svg">
<path d="M50.1841 14.3338C49.6667 14.8512 49.1286 15.2715 48.5617 15.6052L39.3571 6.40013C39.6908 5.83365 40.1106 5.29559 40.6285 4.77772C41.6181 3.78813 41.6181 2.17767 40.6281 1.18766C39.6385 0.198069 38.028 0.197657 37.038 1.18766C32.9181 5.30754 32.858 10.2876 33.579 14.7841C28.3447 13.7051 22.5583 13.2461 17.9391 17.8649C15.8511 19.9533 14.6506 22.4058 14.2691 25.3635C14.2131 25.7973 14.5196 26.1945 14.9534 26.2505C15.386 26.3065 15.7844 26 15.84 25.5662C16.1754 22.969 17.228 20.8164 19.0593 18.9851C23.3151 14.7293 28.6915 15.3419 33.8838 16.4679C34.0387 17.2436 34.1759 17.8521 34.3271 18.5208C29.1682 17.3475 24.1716 16.5181 20.4036 20.3405C11.9809 28.7752 26.293 43.1647 16.8778 52.5798C16.5058 52.9518 15.9001 52.9518 15.5281 52.5798C15.1557 52.2078 15.1557 51.6022 15.5281 51.2301C21.4982 45.2596 16.1638 36.6829 15.7457 28.4715C15.723 28.0348 15.3543 27.6978 14.9143 27.7209C14.4771 27.7431 14.141 28.1156 14.1632 28.5523C14.2501 30.2554 14.5394 31.9623 14.8578 33.5048C10.3614 32.7842 5.38166 32.8444 1.26179 36.9638C0.269715 37.9555 0.269303 39.5618 1.26179 40.5539C2.25385 41.5464 3.85978 41.5464 4.85226 40.5539C5.36972 40.0364 5.90777 39.6166 6.47426 39.2829L15.6793 48.4875C15.3452 49.0544 14.9254 49.5925 14.4079 50.1099C13.4179 51.0995 13.4179 52.7104 14.4079 53.7C15.3975 54.69 17.008 54.69 17.998 53.7C22.1179 49.5801 22.178 44.6 21.457 40.1036C27.4317 41.335 32.7706 41.349 37.0969 37.0227C41.7161 32.4035 41.2564 26.6164 40.1774 21.3821C41.6803 21.621 43.1898 21.7656 44.7096 21.7178C45.1468 21.7038 45.4899 21.338 45.4763 20.9009C45.4623 20.4637 45.0973 20.1189 44.6598 20.1341C43.2401 20.1786 41.6898 20.0456 39.8136 19.7147C39.6611 19.0461 39.5128 18.4162 39.346 17.6919C43.7398 18.5764 47.9219 18.8364 51.3043 15.454C51.6764 15.0819 52.2816 15.0819 52.654 15.454C53.0273 15.8268 53.0273 16.4308 52.654 16.8036C51.1721 18.286 49.4982 19.2484 47.5371 19.7456C47.1132 19.8532 46.8565 20.2837 46.964 20.708C47.0716 21.132 47.5025 21.3886 47.9264 21.2811C50.1718 20.7118 52.0846 19.6138 53.7742 17.9238C54.2537 17.4443 54.5178 16.8069 54.5178 16.1288C54.5178 13.874 51.774 12.7439 50.1841 14.3338ZM3.73207 39.4337C3.3588 39.807 2.75524 39.807 2.38198 39.4337C2.00913 39.0608 2.00872 38.4573 2.38198 38.084C4.94743 35.5186 7.95494 34.7469 10.946 34.7469C12.3925 34.7469 13.8357 34.9274 15.2228 35.1729C15.374 35.8379 15.5281 36.4917 15.6904 37.1962C11.2966 36.3112 7.11449 36.0513 3.73207 39.4337ZM8.03033 38.5982C10.1797 37.9378 12.7505 38.1903 16.0686 38.8932C16.7719 42.2113 17.0245 44.7821 16.3636 46.9315L8.03033 38.5982ZM20.3121 34.6501C19.7081 32.0418 19.1738 29.6094 19.1973 27.4086L27.5532 35.7645C25.3524 35.788 22.92 35.2541 20.3121 34.6501ZM29.5851 35.5565L19.4053 25.3767C19.6571 24.1753 20.1543 23.0597 20.9956 22.0412L32.9202 33.9662C31.9022 34.8079 30.7869 35.3048 29.5851 35.5565ZM34.0408 32.8464L22.1158 20.9215C23.1338 20.0802 24.2495 19.5829 25.4509 19.3312L35.6307 29.511C35.3789 30.7123 34.8821 31.828 34.0408 32.8464ZM34.7243 20.2376C35.3283 22.8458 35.8622 25.2782 35.8391 27.4791L27.4832 19.1231C29.6836 19.0996 32.1164 19.6336 34.7243 20.2376ZM35.9767 35.9026C31.7209 40.1584 26.3449 39.5458 21.1522 38.4198C21.0405 37.8628 20.919 37.2889 20.7089 36.3669C25.9341 37.5554 30.8277 38.3518 34.6271 34.5525C42.9937 26.1862 28.797 11.669 38.1586 2.30786C38.5306 1.93583 39.1358 1.93542 39.5083 2.30786C39.8803 2.67988 39.8803 3.2855 39.5083 3.65753C31.0938 12.072 45.389 26.4907 35.9767 35.9026ZM38.9678 15.9945C38.2645 12.6763 38.0119 10.1055 38.6728 7.95621L47.0061 16.2895C44.8567 16.9503 42.2859 16.6978 38.9678 15.9945Z" fill="#4E7F9B"/>
</svg>
