<svg width="53" height="54" viewBox="0 0 53 54" fill="none" xmlns="http://www.w3.org/2000/svg">
<path d="M23.8528 17.6324C23.9479 17.8262 24.043 18.02 24.138 18.1653C24.2331 18.3107 24.3757 18.456 24.4708 18.6014C24.6134 18.7467 24.7559 18.892 24.9461 19.0374C25.0887 19.1343 25.2788 19.2796 25.5165 19.328C25.7066 19.4249 25.8967 19.4734 26.1344 19.5218C26.372 19.5703 26.5622 19.5703 26.7523 19.5703C26.9424 19.5703 27.1801 19.5703 27.3702 19.5218C27.5603 19.4734 27.7505 19.4249 27.8931 19.328H27.9406C28.1307 19.2312 28.3208 19.1343 28.511 18.9889C28.6536 18.892 28.7962 18.7467 28.9388 18.6014L28.9863 18.5529C29.1289 18.4076 29.224 18.2622 29.319 18.1169C29.4141 17.9716 29.5091 17.8262 29.5567 17.6324C29.5567 17.584 29.5567 17.584 29.6042 17.5355C29.6993 17.3418 29.7468 17.0995 29.7943 16.9057C29.8419 16.712 29.8419 16.4697 29.8419 16.2759C29.8419 16.0822 29.8419 15.8399 29.7943 15.6461C29.7468 15.4524 29.6993 15.2586 29.6042 15.0163C29.4616 14.6772 29.2715 14.3866 29.0338 14.1443C28.9863 14.0959 28.9863 14.0959 28.9388 14.0474C28.7962 13.9021 28.6536 13.8052 28.4634 13.6599C28.2733 13.563 28.1307 13.4661 27.9406 13.3692C27.7505 13.2723 27.5603 13.2238 27.3702 13.1754C27.1325 13.127 26.9424 13.127 26.7523 13.127C26.5622 13.127 26.3245 13.127 26.1344 13.1754C25.9442 13.2238 25.7541 13.2723 25.564 13.3692H25.5165C25.3263 13.4661 25.1362 13.563 24.9936 13.6599C24.8035 13.8052 24.6609 13.9021 24.5183 14.0474C24.3757 14.1928 24.2331 14.3381 24.138 14.4834C24.043 14.6288 23.9479 14.8226 23.8528 15.0163C23.7578 15.2101 23.7102 15.4039 23.6627 15.5977C23.6152 15.8399 23.6152 16.0337 23.6152 16.2275C23.6152 16.4213 23.6152 16.6635 23.6627 16.8573C23.7102 17.2449 23.8053 17.4387 23.8528 17.6324Z" fill="#4E7F9B"/>
<path d="M30.4601 35.3652H29.3669V23.4959C29.3669 22.8177 28.844 22.2363 28.131 22.2363H23.1402C22.4747 22.2363 21.9043 22.7692 21.9043 23.4959V26.112C21.9043 26.7903 22.4272 27.3716 23.1402 27.3716H24.1383V35.4137H23.1402C22.4747 35.4137 21.9043 35.9466 21.9043 36.6733V39.2894C21.9043 39.9676 22.4272 40.549 23.1402 40.549H30.4601C31.1255 40.549 31.6959 40.016 31.6959 39.2894V36.6733C31.6959 35.9466 31.1255 35.3652 30.4601 35.3652Z" fill="#4E7F9B"/>
<path d="M26.7989 0.337891C12.4442 0.337891 0.798828 12.2072 0.798828 26.8379C0.798828 41.4686 12.4442 53.3379 26.7989 53.3379C41.1535 53.3379 52.7989 41.4686 52.7989 26.8379C52.7989 12.2072 41.1535 0.337891 26.7989 0.337891ZM26.7989 49.8498C14.3455 49.8498 4.22114 39.5308 4.22114 26.8379C4.22114 14.145 14.3455 3.82601 26.7989 3.82601C39.2522 3.82601 49.3765 14.145 49.3765 26.8379C49.3765 39.5308 39.2522 49.8498 26.7989 49.8498Z" fill="#4E7F9B"/>
</svg>
