<svg width="40" height="54" viewBox="0 0 40 54" fill="none" xmlns="http://www.w3.org/2000/svg">
<path d="M1.57083 53.3398H35.1375C35.6253 53.3398 36.0208 52.9443 36.0208 52.4565V40.428C36.8761 39.4295 39.5541 35.8013 39.5541 29.4898C39.5541 23.1784 36.8761 19.5502 36.0208 18.5521V15.3565C36.0208 14.8687 35.6253 14.4732 35.1375 14.4732H28.4366L33.9954 8.91439C34.3404 8.56977 34.3404 8.01035 33.9954 7.6653L33.7366 7.40651L35.762 5.38105C36.1071 5.036 36.1071 4.47702 35.762 4.13197L32.2287 0.598633C31.8841 0.253581 31.3246 0.253581 30.9796 0.598633L28.9541 2.62409L28.6954 2.3653C28.3503 2.02025 27.7913 2.02025 27.4463 2.3653L13.3129 16.4986C12.9679 16.8437 12.9679 17.4031 13.3129 17.7477L13.5717 18.0065L10.6629 20.9153C10.3179 21.2604 10.3179 21.8198 10.6629 22.1644L14.1963 25.6977C14.5413 26.0428 15.1003 26.0428 15.4454 25.6977L18.3541 22.7889L18.6129 23.0477C18.958 23.3928 19.5174 23.3928 19.862 23.0477L22.1057 20.804C24.0182 22.0807 26.5927 21.658 27.9962 19.8366C29.1327 20.4322 33.3708 23.0835 33.3708 29.4898C33.3708 35.2984 28.7747 38.5846 27.8163 39.2065H23.6541V33.0232C23.6541 32.5354 23.2586 32.1398 22.7708 32.1398H6.87082C6.38302 32.1398 5.98752 32.5354 5.98752 33.0232V36.5565C5.98752 37.0443 6.38302 37.4398 6.87082 37.4398H18.3541V39.2065H15.7041C15.2163 39.2065 14.8208 39.602 14.8208 40.0898V46.2732H5.10412C2.66594 46.2762 0.69052 48.252 0.6875 50.6898V52.4565C0.6875 52.9443 1.08301 53.3398 1.57083 53.3398ZM31.6041 2.47227L33.8884 4.75651L32.4875 6.15742L30.2032 3.87318L31.6041 2.47227ZM14.8208 23.8241L12.5366 21.5398L14.8208 19.2556L17.1051 21.5398L14.8208 23.8241ZM24.5375 19.7732C23.074 19.7732 21.8875 18.5866 21.8875 17.1232C21.8875 15.6597 23.074 14.4732 24.5375 14.4732C26.0009 14.4732 27.1875 15.6597 27.1875 17.1232C27.1857 18.5862 26.0005 19.7715 24.5375 19.7732ZM26.9692 13.4423C25.2207 12.2817 22.8963 12.5141 21.4126 13.9983C19.9284 15.482 19.696 17.8064 20.8566 19.5549L19.2375 21.1741L15.1866 17.1232L28.0708 4.23893L32.1217 8.28984L26.9692 13.4423ZM28.8649 18.0065C28.9839 17.4238 28.9839 16.823 28.8649 16.2398H34.2541V18.0065H28.8649ZM35.1375 29.4898C35.2608 25.7922 33.7327 22.2312 30.9675 19.7732H34.7376C36.8282 22.5715 37.9039 25.9988 37.7875 29.4898C37.9039 32.9809 36.8282 36.4081 34.7381 39.2065H30.6837C33.4795 36.7459 35.0982 33.2138 35.1375 29.4898ZM7.75412 35.6732V33.9065H21.8875V35.6732H7.75412ZM21.8875 37.4398V43.6232C21.8875 44.111 21.492 44.5065 21.0041 44.5065C20.5163 44.5065 20.1208 44.111 20.1208 43.6232V37.4398H21.8875ZM16.5875 40.9732H18.3541V43.6232C18.3541 45.0866 19.5407 46.2732 21.0041 46.2732C22.4676 46.2732 23.6541 45.0866 23.6541 43.6232V40.9732H34.2541V46.2732H16.5875V40.9732ZM2.45416 50.6898C2.45589 49.2268 3.64112 48.0416 5.10412 48.0398H34.2541V51.5732H2.45416V50.6898Z" fill="#4E7F9B"/>
<path d="M7.75391 42.7402H9.52051V44.5069H7.75391V42.7402Z" fill="#F2F8FC"/>
<path d="M11.2891 42.7402H13.0557V44.5069H11.2891V42.7402Z" fill="#F2F8FC"/>
</svg>
