<svg width="54" height="53" viewBox="0 0 54 53" fill="none" xmlns="http://www.w3.org/2000/svg">
<path d="M34.1261 16.1538C34.1261 16.6324 33.7306 17.0204 33.2428 17.0204C32.755 17.0204 32.3594 16.6324 32.3594 16.1538C32.3594 15.6752 32.755 15.2871 33.2428 15.2871C33.7306 15.2871 34.1261 15.6752 34.1261 16.1538Z" fill="#4E7F9B"/>
<path d="M41.1944 16.1538C41.1944 16.6324 40.7989 17.0204 40.3111 17.0204C39.8233 17.0204 39.4277 16.6324 39.4277 16.1538C39.4277 15.6752 39.8233 15.2871 40.3111 15.2871C40.7989 15.2871 41.1944 15.6752 41.1944 16.1538Z" fill="#4E7F9B"/>
<path d="M35.8769 6.88049C37.9269 6.17547 40.1995 6.97909 41.3201 8.80467C41.4809 9.06366 41.7678 9.2215 42.077 9.22066C42.3953 9.22023 42.6886 9.05223 42.8452 8.78013C43.0013 8.50845 42.997 8.17541 42.8331 7.90754C41.2778 5.37821 38.1279 4.26567 35.286 5.24194C34.8249 5.4019 34.5829 5.89871 34.7464 6.35109C34.9094 6.80389 35.4158 7.04087 35.8769 6.88049Z" fill="#4E7F9B"/>
<path d="M52.6772 50.8223H1.44388C0.956063 50.8223 0.560547 51.2103 0.560547 51.6889C0.560547 52.1675 0.956063 52.5556 1.44388 52.5556H52.6772C53.165 52.5556 53.5605 52.1675 53.5605 51.6889C53.5605 51.2103 53.165 50.8223 52.6772 50.8223Z" fill="#4E7F9B"/>
<path d="M26.1777 25.6889C26.1777 25.2103 25.7822 24.8223 25.2944 24.8223H13.8111C13.3233 24.8223 12.9277 25.2103 12.9277 25.6889C12.9277 26.1675 13.3233 26.5556 13.8111 26.5556H25.2944C25.7822 26.5556 26.1777 26.1675 26.1777 25.6889Z" fill="#4E7F9B"/>
<path d="M20.8771 28.2871H18.2271C17.7393 28.2871 17.3438 28.6752 17.3438 29.1538C17.3438 29.6324 17.7393 30.0204 18.2271 30.0204H20.8771C21.3649 30.0204 21.7605 29.6324 21.7605 29.1538C21.7605 28.6752 21.3649 28.2871 20.8771 28.2871Z" fill="#4E7F9B"/>
<path d="M52.6772 43.888C53.165 43.888 53.5605 43.5 53.5605 43.0214C53.5605 42.5427 53.165 42.1547 52.6772 42.1547H48.2605V38.688H52.6772C53.165 38.688 53.5605 38.3 53.5605 37.8214C53.5605 37.3427 53.165 36.9547 52.6772 36.9547H40.3105C38.8471 36.9547 37.6605 38.1189 37.6605 39.5547V41.288C37.6636 41.5838 37.7183 41.8771 37.8231 42.1547H35.8939C34.4304 42.1547 33.2439 43.3189 33.2439 44.7547V46.488C33.2469 46.7838 33.3017 47.0771 33.4065 47.3547H30.5939V46.488C30.5939 45.0522 29.4073 43.888 27.9439 43.888H24.4105V40.4214H31.4772C33.4285 40.4214 35.0105 38.8691 35.0105 36.9547V31.5266C38.5965 32.4555 42.2998 30.4873 43.4656 27.0329C46.6047 28.153 48.6966 31.0776 48.7022 34.3547C48.7022 34.8333 49.0977 35.2214 49.5855 35.2214C50.0734 35.2214 50.4689 34.8333 50.4689 34.3547C50.4607 29.9706 47.4087 26.1556 43.0701 25.1066H43.0356C42.7565 25.0397 42.4731 24.9868 42.185 24.9445C43.6196 23.9949 44.7712 22.689 45.5221 21.1596C47.9621 20.7411 50.9105 19.4817 50.9105 14.4214C50.9105 6.76312 44.5827 0.554688 36.7772 0.554688C28.9717 0.554688 22.6439 6.76312 22.6439 14.4214C22.6439 17.0336 23.4327 18.6273 24.5296 19.6214H6.74388C4.79261 19.6214 3.21055 21.1736 3.21055 23.088V36.9547C3.21055 38.8691 4.79261 40.4214 6.74388 40.4214H13.8105V43.888H10.2772C8.81376 43.888 7.62721 45.0522 7.62721 46.488V47.3547H1.44388C0.956063 47.3547 0.560547 47.7427 0.560547 48.2214C0.560547 48.7 0.956063 49.088 1.44388 49.088H52.6772C53.165 49.088 53.5605 48.7 53.5605 48.2214C53.5605 47.7427 53.165 47.3547 52.6772 47.3547H49.1439V43.888H52.6772ZM39.4272 41.288V39.5547C39.4272 39.0761 39.8227 38.688 40.3105 38.688H46.4939V42.1547H40.3105C39.8227 42.1547 39.4272 41.7666 39.4272 41.288ZM36.7772 30.0214C36.1751 30.0218 35.5773 29.9202 35.0105 29.7213V26.5547H40.7522C41.077 26.5555 41.4018 26.5771 41.724 26.619H41.7477C40.9804 28.6621 38.9967 30.0201 36.7772 30.0214ZM36.7772 2.28802C43.6041 2.29522 49.1365 7.72331 49.1439 14.4214C49.1439 17.4547 48.0565 18.676 46.2217 19.2236C46.3998 18.5025 46.4908 17.7632 46.4939 17.0214V11.8214C46.4939 11.3427 46.0984 10.9547 45.6105 10.9547H35.0105C34.5227 10.9547 34.1272 11.3427 34.1272 11.8214C34.1272 12.3 34.5227 12.688 35.0105 12.688H44.7272V17.0214C44.7548 19.4026 43.6593 21.6628 41.7598 23.1452C39.8602 24.6275 37.369 25.1658 35.0105 24.6038V23.088C35.0105 21.1736 33.4285 19.6214 31.4772 19.6214H29.2935C28.9868 18.7873 28.8294 17.9079 28.8272 17.0214V12.688H30.5939C31.0817 12.688 31.4772 12.3 31.4772 11.8214C31.4772 11.3427 31.0817 10.9547 30.5939 10.9547H27.9439C27.4561 10.9547 27.0605 11.3427 27.0605 11.8214V17.0214C27.0631 17.7632 27.155 18.5025 27.3336 19.2236C25.4987 18.676 24.4105 17.4547 24.4105 14.4214C24.4179 7.72331 29.9503 2.29522 36.7772 2.28802ZM15.5772 36.9547C15.5772 35.5189 16.7637 34.3547 18.2272 34.3547H19.9939C20.4817 34.3547 20.8772 33.9666 20.8772 33.488C20.8772 33.0094 20.4817 32.6214 19.9939 32.6214H18.2272C15.789 32.6243 13.8136 34.5625 13.8105 36.9547V38.688H6.74388C5.76824 38.688 4.97721 37.9119 4.97721 36.9547V23.088C4.97721 22.1308 5.76824 21.3547 6.74388 21.3547H31.4772C32.4528 21.3547 33.2439 22.1308 33.2439 23.088V36.9547C33.2439 37.9119 32.4528 38.688 31.4772 38.688H24.4105V36.9547C24.4105 36.4761 24.015 36.088 23.5272 36.088C23.0394 36.088 22.6439 36.4761 22.6439 36.9547V43.888H15.5772V36.9547ZM9.39388 46.488C9.39388 46.0094 9.78939 45.6214 10.2772 45.6214H27.9439C28.4317 45.6214 28.8272 46.0094 28.8272 46.488V47.3547H9.39388V46.488ZM35.8939 47.3547C35.4061 47.3547 35.0105 46.9666 35.0105 46.488V44.7547C35.0105 44.2761 35.4061 43.888 35.8939 43.888H40.3105V47.3547H35.8939ZM47.3772 47.3547H42.0772V43.888H47.3772V47.3547Z" fill="#4E7F9B"/>
</svg>
