<svg width="64" height="53" viewBox="0 0 64 53" fill="none" xmlns="http://www.w3.org/2000/svg">
<path d="M58.7045 6.95035H42.4886V1.72281C42.4886 1.24167 42.0348 0.851562 41.4751 0.851562H14.1109C13.5512 0.851562 13.0974 1.24167 13.0974 1.72281V6.95035H6.00299C3.20551 6.95332 0.939011 8.90172 0.935547 11.3066V35.7018C0.939011 38.1066 3.20551 40.0551 6.00299 40.058H27.0834L25.4255 47.8994H20.1918C19.6321 47.8994 19.1783 48.2895 19.1783 48.7706V51.3844C19.1783 51.8656 19.6321 52.2557 20.1918 52.2557H44.5156C45.0753 52.2557 45.5291 51.8656 45.5291 51.3844V48.7706C45.5291 48.2895 45.0753 47.8994 44.5156 47.8994H39.2799L37.624 40.058H58.7045C61.502 40.0551 63.7684 38.1066 63.7719 35.7018V11.3066C63.7684 8.90172 61.502 6.95332 58.7045 6.95035ZM58.7045 8.69286C60.3835 8.69286 61.7449 9.86314 61.7449 11.3066V33.088H51.61V16.5342C51.61 16.053 51.1562 15.6629 50.5965 15.6629H42.4886V8.69286H58.7045ZM42.4886 17.4054H49.5831V33.088H42.4886V17.4054ZM15.1244 2.59407H40.4617V33.088H15.1244V2.59407ZM6.00299 8.69286H13.0974V33.088H2.96253V11.3066C2.96253 9.86314 4.32391 8.69286 6.00299 8.69286ZM43.5022 50.5132H21.2054V49.6419H43.5022V50.5132ZM37.2183 47.8994H27.4891L29.148 40.058H35.5635L37.2183 47.8994ZM58.7045 38.3155H6.00299C4.32391 38.3155 2.96253 37.1452 2.96253 35.7018V34.8305H61.7449V35.7018C61.7449 37.1452 60.3835 38.3155 58.7045 38.3155Z" fill="#4E7F9B"/>
<path d="M18.1658 15.6634H37.4221C37.9818 15.6634 38.4356 15.2733 38.4356 14.7922C38.4356 14.311 37.9818 13.9209 37.4221 13.9209H18.1658C17.606 13.9209 17.1523 14.311 17.1523 14.7922C17.1523 15.2733 17.606 15.6634 18.1658 15.6634Z" fill="#4E7F9B"/>
<path d="M18.1658 19.1488H37.4221C37.9818 19.1488 38.4356 18.7587 38.4356 18.2775C38.4356 17.7964 37.9818 17.4062 37.4221 17.4062H18.1658C17.606 17.4062 17.1523 17.7964 17.1523 18.2775C17.1523 18.7587 17.606 19.1488 18.1658 19.1488Z" fill="#4E7F9B"/>
<path d="M18.1658 22.6341H37.4221C37.9818 22.6341 38.4356 22.244 38.4356 21.7629C38.4356 21.2817 37.9818 20.8916 37.4221 20.8916H18.1658C17.606 20.8916 17.1523 21.2817 17.1523 21.7629C17.1523 22.244 17.606 22.6341 18.1658 22.6341Z" fill="#4E7F9B"/>
<path d="M18.1658 26.1195H37.4221C37.9818 26.1195 38.4356 25.7294 38.4356 25.2482C38.4356 24.7671 37.9818 24.377 37.4221 24.377H18.1658C17.606 24.377 17.1523 24.7671 17.1523 25.2482C17.1523 25.7294 17.606 26.1195 18.1658 26.1195Z" fill="#4E7F9B"/>
<path d="M18.1658 29.6029H30.3277C30.8873 29.6029 31.3411 29.2128 31.3411 28.7316C31.3411 28.2505 30.8873 27.8604 30.3277 27.8604H18.1658C17.606 27.8604 17.1523 28.2505 17.1523 28.7316C17.1523 29.2128 17.606 29.6029 18.1658 29.6029Z" fill="#4E7F9B"/>
<path d="M34.3806 27.8604H33.367C32.8073 27.8604 32.3535 28.2505 32.3535 28.7316C32.3535 29.2128 32.8073 29.6029 33.367 29.6029H34.3806C34.9402 29.6029 35.394 29.2128 35.394 28.7316C35.394 28.2505 34.9402 27.8604 34.3806 27.8604Z" fill="#4E7F9B"/>
<path d="M13.0984 35.7021H7.0174C6.4577 35.7021 6.00391 36.0923 6.00391 36.5734C6.00391 37.0546 6.4577 37.4447 7.0174 37.4447H13.0984C13.6581 37.4447 14.1118 37.0546 14.1118 36.5734C14.1118 36.0923 13.6581 35.7021 13.0984 35.7021Z" fill="#4E7F9B"/>
<path d="M17.1519 35.7021H16.1384C15.5788 35.7021 15.125 36.0923 15.125 36.5734C15.125 37.0546 15.5788 37.4447 16.1384 37.4447H17.1519C17.7116 37.4447 18.1655 37.0546 18.1655 36.5734C18.1655 36.0923 17.7116 35.7021 17.1519 35.7021Z" fill="#4E7F9B"/>
</svg>
