<svg width="64" height="55" viewBox="0 0 64 55" fill="none" xmlns="http://www.w3.org/2000/svg">
<path d="M34.4735 10.6641C25.485 10.6641 17.7109 15.6338 15.1287 23.0292L14.3998 25.1143C13.6283 27.3257 12.2161 29.3576 10.3161 30.9898L9.34588 31.8234C9.15528 31.9854 9.04883 32.2066 9.04883 32.4383C9.04883 32.6691 9.15528 32.8912 9.34588 33.054C12.4228 35.6983 14.118 39.2135 14.118 42.9517C14.118 45.7989 16.8138 48.1157 20.129 48.1157C21.6709 48.1157 23.2019 47.7838 24.5573 47.1559L26.2838 46.3581V53.3415C26.2838 53.8223 26.7371 54.2125 27.2976 54.2125H44.5327C45.0933 54.2125 45.5466 53.8223 45.5466 53.3415V46.939C45.5466 43.9986 46.8787 41.2342 49.2997 39.1543C52.7629 36.1791 54.6709 32.2231 54.6709 28.0155C54.6709 18.4479 45.6103 10.6641 34.4735 10.6641ZM39.4636 52.4705H28.3115V45.42L35.8888 41.9153L34.9277 40.3815L23.5951 45.623C22.5347 46.1142 21.3354 46.3737 20.129 46.3737C17.933 46.3737 16.1457 44.8391 16.1457 42.9517C16.1457 39.0393 14.4951 35.3447 11.478 32.4548L11.7507 32.2205C13.8868 30.3845 15.4755 28.1 16.3433 25.6142L17.0723 23.5291C19.3939 16.8758 26.3883 12.406 34.4735 12.406C36.2052 12.406 37.8759 12.6281 39.4636 13.0192V18.5028H38.2551L37.3152 20.6532L34.8811 19.703L31.7362 22.4047L32.8433 24.4959L30.3391 25.3024V29.1225L32.8433 29.929L31.7362 32.0202L34.8811 34.7219L37.3152 33.7717L38.2551 35.9221H39.4636V52.4705ZM39.6592 34.1802L38.8167 32.251L38.3819 32.1125C38.2287 32.0637 38.0756 32.0106 37.9276 31.9514L37.5059 31.7842L35.3211 32.6368L34.1643 31.6431L35.1568 29.7661L34.9612 29.4029C34.8923 29.2758 34.8314 29.146 34.7747 29.0136L34.6134 28.6391L32.3668 27.9153V26.5096L34.6134 25.7858L34.7747 25.4113C34.8314 25.2789 34.8912 25.1491 34.9612 25.022L35.1568 24.6588L34.1643 22.7818L35.3211 21.7881L37.5059 22.6407L37.9276 22.4735C38.0756 22.4143 38.2287 22.3612 38.3819 22.3124L38.8167 22.1739L39.6582 20.2447H41.2956L42.138 22.1739L42.573 22.3124C42.7261 22.3612 42.8791 22.4143 43.0271 22.4735L43.449 22.6407L45.6338 21.7881L46.7904 22.7818L45.798 24.6588L45.9936 25.022C46.0626 25.1491 46.1234 25.2789 46.1802 25.4113L46.3413 25.7858L48.5881 26.5096V27.9153L46.3413 28.6391L46.1802 29.0136C46.1234 29.146 46.0636 29.2758 45.9936 29.4029L45.798 29.7661L46.7904 31.6431L45.6338 32.6368L43.449 31.7842L43.0271 31.9514C42.8791 32.0106 42.7261 32.0637 42.573 32.1125L42.138 32.251L41.2966 34.1802H39.6592ZM47.8661 37.9236C45.0619 40.331 43.5189 43.5326 43.5189 46.939V52.4705H41.4912V35.9221H42.6997L43.6395 33.7717L46.0738 34.7219L49.2186 32.0202L48.1115 29.929L50.6156 29.1225V25.3024L48.1115 24.4959L49.2186 22.4047L46.0738 19.703L43.6395 20.6532L42.6997 18.5028H41.4912V13.6193C48.0355 15.9822 52.6432 21.5442 52.6432 28.0155C52.6432 31.758 50.9461 35.2767 47.8661 37.9236Z" fill="#4E7F9B"/>
<path d="M52.8818 0.212891H6.00662C3.21151 0.212891 0.9375 2.16647 0.9375 4.56773C0.9375 6.96899 3.21151 8.92257 6.00662 8.92257H52.8818L63.0201 4.56773L52.8818 0.212891ZM10.0619 7.18063H6.00662C4.32976 7.18063 2.96514 6.00831 2.96514 4.56773C2.96514 3.12715 4.32976 1.95483 6.00662 1.95483H10.0619V7.18063ZM51.6287 3.69676H16.1449V5.4387H51.6287V7.18063H12.0896V5.4387H14.1173V3.69676H12.0896V1.95483H51.6287V3.69676ZM53.6564 2.49308L58.4863 4.56773L53.6564 6.64237V2.49308Z" fill="#4E7F9B"/>
<g opacity="0.6">
<path opacity="0.6" d="M35.8502 24.2129C33.6138 24.2129 31.7949 25.7754 31.7949 27.6968C31.7949 29.6181 33.6138 31.1806 35.8502 31.1806C38.0867 31.1806 39.9055 29.6181 39.9055 27.6968C39.9055 25.7754 38.0867 24.2129 35.8502 24.2129ZM35.8502 29.4387C34.7319 29.4387 33.8226 28.6574 33.8226 27.6968C33.8226 26.7361 34.7319 25.9548 35.8502 25.9548C36.9685 25.9548 37.8779 26.7361 37.8779 27.6968C37.8779 28.6574 36.9685 29.4387 35.8502 29.4387Z" fill="#F2F8FC"/>
</g>
<path d="M60.7524 48.9863C59.0756 48.9863 57.7109 50.1587 57.7109 51.5992C57.7109 53.0398 59.0756 54.2121 60.7524 54.2121C62.4293 54.2121 63.7939 53.0398 63.7939 51.5992C63.7939 50.1587 62.4293 48.9863 60.7524 48.9863ZM60.7524 52.4702C60.1929 52.4702 59.7386 52.0791 59.7386 51.5992C59.7386 51.1193 60.1929 50.7283 60.7524 50.7283C61.3121 50.7283 61.7663 51.1193 61.7663 51.5992C61.7663 52.0791 61.3121 52.4702 60.7524 52.4702Z" fill="#4E7F9B"/>
<path d="M3.97897 33.3105C2.3021 33.3105 0.9375 34.4829 0.9375 35.9235C0.9375 37.364 2.3021 38.5364 3.97897 38.5364C5.65584 38.5364 7.02045 37.364 7.02045 35.9235C7.02045 34.4829 5.65584 33.3105 3.97897 33.3105ZM3.97897 36.7944C3.41934 36.7944 2.96514 36.4034 2.96514 35.9235C2.96514 35.4435 3.41934 35.0525 3.97897 35.0525C4.53861 35.0525 4.9928 35.4435 4.9928 35.9235C4.9928 36.4034 4.53861 36.7944 3.97897 36.7944Z" fill="#4E7F9B"/>
<path d="M4.99249 42.0195H2.96484V43.7615H4.99249V42.0195Z" fill="#4E7F9B"/>
<path d="M4.99249 47.2441H2.96484V48.9861H4.99249V47.2441Z" fill="#4E7F9B"/>
<path d="M4.99249 52.4707H2.96484V54.2126H4.99249V52.4707Z" fill="#4E7F9B"/>
<path d="M61.7679 33.3105H59.7402V35.0525H61.7679V33.3105Z" fill="#4E7F9B"/>
<path d="M61.7679 38.5352H59.7402V40.2771H61.7679V38.5352Z" fill="#4E7F9B"/>
<path d="M61.7679 43.7617H59.7402V45.5037H61.7679V43.7617Z" fill="#4E7F9B"/>
</svg>
