<svg width="40" height="54" viewBox="0 0 40 54" fill="none" xmlns="http://www.w3.org/2000/svg">
<path d="M5.10638 0.339844C3.73988 0.339844 2.42723 0.92461 1.50415 1.94486C0.596967 2.94921 0.149997 4.29364 0.270127 5.63984H0.248047V48.8861C0.248047 51.3417 2.24615 53.3398 4.70178 53.3398H39.9981V10.0565V8.28984V0.339844H5.10638ZM2.01472 48.8861V9.17141C2.75318 9.72703 3.67098 10.0565 4.66468 10.0565V51.5696C3.20018 51.5493 2.01472 50.3551 2.01472 48.8861ZM38.2314 51.5732H6.43138V10.0565H9.08138V32.3174C9.08138 32.9198 9.47098 33.4322 10.0522 33.5929C10.1732 33.6256 10.2933 33.6424 10.4126 33.6424C10.4258 33.6424 10.4382 33.638 10.4515 33.6371C10.4912 33.6362 10.5292 33.6265 10.5689 33.6221C10.6599 33.6115 10.7474 33.5929 10.8331 33.5638C10.8755 33.5496 10.9152 33.5329 10.955 33.5143C11.038 33.4763 11.114 33.4286 11.1873 33.3739C11.2191 33.35 11.2518 33.3297 11.2809 33.3032C11.379 33.2157 11.4682 33.1168 11.5388 32.9976L15.2639 26.7895L18.9889 32.9984C19.2777 33.4799 19.8183 33.706 20.358 33.6053C20.3978 33.5982 20.4367 33.6035 20.4764 33.5929C21.0568 33.4313 21.4472 32.9189 21.4472 32.3174V10.0565H38.2305V51.5732H38.2314ZM19.8051 8.71649L19.8024 8.72268L19.6814 8.96471V9.00181L19.5931 9.20498L19.6814 9.33924V9.43818V30.7177L15.2647 23.3569L10.8481 30.7177V9.38164L12.2773 6.52318H20.9022L19.8051 8.71649ZM21.994 8.28984L23.7606 4.75651H11.1855L9.41878 8.28984H5.29368C3.62058 8.28984 2.18785 7.07173 2.0315 5.51618C1.94228 4.63461 2.22053 3.78749 2.81502 3.13029C3.40248 2.47928 4.23808 2.10651 5.10638 2.10651H38.2314V2.98984H33.8147C33.3263 2.98984 32.9314 3.38469 32.9314 3.87318C32.9314 4.36166 33.3263 4.75651 33.8147 4.75651H38.2314V5.63984H34.6981C34.2096 5.63984 33.8147 6.03469 33.8147 6.52318C33.8147 7.01166 34.2096 7.40651 34.6981 7.40651H38.2314V8.28984H21.994Z" fill="#4E7F9B"/>
</svg>
