<svg width="56" height="52" viewBox="0 0 56 52" fill="none" xmlns="http://www.w3.org/2000/svg">
<path d="M41.4769 4.37136C41.036 2.32812 39.1214 0.785156 36.8313 0.785156C36.3079 0.785156 35.8831 1.18591 35.8831 1.68171C35.8831 2.1775 36.3079 2.57826 36.8313 2.57826C38.3998 2.57826 39.6762 3.78502 39.6762 5.26792C39.6762 6.75081 38.3998 7.95757 36.8313 7.95757C36.3079 7.95757 35.8831 8.35833 35.8831 8.85412C35.8831 9.34992 36.3079 9.75068 36.8313 9.75068C39.1205 9.75068 41.036 8.20771 41.4769 6.16447H53.9003V12.4403H42.521H40.6244H29.2451H27.3486H15.9693H14.0727H2.69342V6.16447H15.9693H18.8141C19.3375 6.16447 19.7624 5.76371 19.7624 5.26792C19.7624 4.77212 19.3375 4.37136 18.8141 4.37136H17.092C17.4846 3.32957 18.5277 2.57826 19.7624 2.57826C21.3308 2.57826 22.6072 3.78502 22.6072 5.26792C22.6072 6.75081 21.3308 7.95757 19.7624 7.95757C19.2389 7.95757 18.8141 8.35833 18.8141 8.85412C18.8141 9.34992 19.2389 9.75068 19.7624 9.75068C22.3768 9.75068 24.5037 7.73971 24.5037 5.26792C24.5037 2.79612 22.3768 0.785156 19.7624 0.785156C17.4732 0.785156 15.5577 2.32812 15.1168 4.37136H0.796875V12.4403V15.13V24.9921V26.7852V37.5438V39.3369V51.8886H14.0727H15.9693H27.3486H29.2451H40.6244H42.521H55.7969V39.3369V37.5438V26.7852V24.9921V15.13V12.4403V4.37136H41.4769ZM29.2451 14.2334H40.6244V24.9921H29.2451V14.2334ZM40.6244 37.5438H29.2451V26.7852H40.6244V37.5438ZM15.9693 26.7852H27.3486V37.5438H15.9693V26.7852ZM15.9693 14.2334H27.3486V24.9921H15.9693V14.2334ZM2.69342 15.13V14.2334H14.0727V24.9921H2.69342V15.13ZM2.69342 26.7852H14.0727V37.5438H2.69342V26.7852ZM2.69342 50.0955V39.3369H14.0727V50.0955H2.69342ZM15.9693 50.0955V39.3369H27.3486V50.0955H15.9693ZM29.2451 50.0955V39.3369H40.6244V50.0955H29.2451ZM53.9003 50.0955H42.521V39.3369H53.9003V50.0955ZM53.9003 37.5438H42.521V26.7852H53.9003V37.5438ZM42.521 24.9921V14.2334H53.9003V15.13V24.9921H42.521Z" fill="#4E7F9B"/>
<path d="M25.4522 2.57826C27.0206 2.57826 28.297 3.78502 28.297 5.26791C28.297 6.75081 27.0206 7.95757 25.4522 7.95757C24.9287 7.95757 24.5039 8.35833 24.5039 8.85412C24.5039 9.34991 24.9287 9.75067 25.4522 9.75067C28.0666 9.75067 30.1935 7.73971 30.1935 5.26791C30.1935 2.79612 28.0666 0.785156 25.4522 0.785156C24.9287 0.785156 24.5039 1.18591 24.5039 1.68171C24.5039 2.1775 24.9287 2.57826 25.4522 2.57826Z" fill="#4E7F9B"/>
<path d="M31.1417 2.57826C32.7102 2.57826 33.9865 3.78502 33.9865 5.26791C33.9865 6.75081 32.7102 7.95757 31.1417 7.95757C30.6183 7.95757 30.1934 8.35833 30.1934 8.85412C30.1934 9.34991 30.6183 9.75067 31.1417 9.75067C33.7561 9.75067 35.8831 7.73971 35.8831 5.26791C35.8831 2.79612 33.7561 0.785156 31.1417 0.785156C30.6183 0.785156 30.1934 1.18591 30.1934 1.68171C30.1934 2.1775 30.6183 2.57826 31.1417 2.57826Z" fill="#4E7F9B"/>
<path d="M30.4715 36.3847C30.6564 36.5595 30.8992 36.6474 31.1419 36.6474C31.3847 36.6474 31.6275 36.5595 31.8124 36.3847L34.9351 33.4323L38.0577 36.3847C38.2426 36.5595 38.4854 36.6474 38.7282 36.6474C38.9709 36.6474 39.2137 36.5595 39.3986 36.3847C39.7694 36.0341 39.7694 35.4675 39.3986 35.117L36.2759 32.1646L39.3986 29.2123C39.7694 28.8617 39.7694 28.2951 39.3986 27.9446C39.0278 27.594 38.4285 27.594 38.0577 27.9446L34.9351 30.8969L31.8124 27.9446C31.4416 27.594 30.8423 27.594 30.4715 27.9446C30.1007 28.2951 30.1007 28.8617 30.4715 29.2123L33.5942 32.1646L30.4715 35.117C30.1007 35.4675 30.1007 36.0341 30.4715 36.3847Z" fill="#4E7F9B"/>
</svg>
